G04*
G04 #@! TF.GenerationSoftware,Altium Limited,Altium Designer,19.1.8 (144)*
G04*
G04 Layer_Color=16711935*
%FSLAX25Y25*%
%MOIN*%
G70*
G01*
G75*
%ADD26C,0.01000*%
%ADD39C,0.00600*%
D26*
X708661Y114173D02*
X714661Y116173D01*
X708661Y114173D02*
X714661Y112173D01*
X781402D02*
X787402Y114173D01*
X781402Y116173D02*
X787402Y114173D01*
X708661D02*
X730836D01*
X762027D02*
X787402D01*
X708661Y38802D02*
Y115173D01*
X787402Y60055D02*
Y115173D01*
X72740Y120142D02*
X78740Y122142D01*
X72740Y124142D02*
X78740Y122142D01*
X0D02*
X6000Y124142D01*
X0Y122142D02*
X6000Y120142D01*
X53365Y122142D02*
X78740D01*
X0D02*
X22175D01*
X78740Y38802D02*
Y123142D01*
X0Y60055D02*
Y123142D01*
D39*
X736435Y109574D02*
X732436D01*
X736435Y113573D01*
Y114573D01*
X735435Y115573D01*
X733436D01*
X732436Y114573D01*
X738434D02*
X739434Y115573D01*
X741433D01*
X742433Y114573D01*
Y110574D01*
X741433Y109574D01*
X739434D01*
X738434Y110574D01*
Y114573D01*
X745432Y108575D02*
X746431Y109574D01*
Y110574D01*
X745432D01*
Y109574D01*
X746431D01*
X745432Y108575D01*
X744432Y107575D01*
X750430Y114573D02*
X751430Y115573D01*
X753429D01*
X754429Y114573D01*
Y110574D01*
X753429Y109574D01*
X751430D01*
X750430Y110574D01*
Y114573D01*
X756428D02*
X757428Y115573D01*
X759427D01*
X760427Y114573D01*
Y110574D01*
X759427Y109574D01*
X757428D01*
X756428Y110574D01*
Y114573D01*
X27773Y117543D02*
X23775D01*
X27773Y121542D01*
Y122541D01*
X26774Y123541D01*
X24774D01*
X23775Y122541D01*
X29773D02*
X30772Y123541D01*
X32772D01*
X33771Y122541D01*
Y118543D01*
X32772Y117543D01*
X30772D01*
X29773Y118543D01*
Y122541D01*
X36770Y116543D02*
X37770Y117543D01*
Y118543D01*
X36770D01*
Y117543D01*
X37770D01*
X36770Y116543D01*
X35771Y115544D01*
X41769Y122541D02*
X42768Y123541D01*
X44768D01*
X45768Y122541D01*
Y118543D01*
X44768Y117543D01*
X42768D01*
X41769Y118543D01*
Y122541D01*
X47767D02*
X48766Y123541D01*
X50766D01*
X51766Y122541D01*
Y118543D01*
X50766Y117543D01*
X48766D01*
X47767Y118543D01*
Y122541D01*
M02*
