G04*
G04 #@! TF.GenerationSoftware,Altium Limited,Altium Designer,19.1.8 (144)*
G04*
G04 Layer_Physical_Order=1*
G04 Layer_Color=255*
%FSLAX25Y25*%
%MOIN*%
G70*
G01*
G75*
%ADD12R,0.07087X0.02165*%
%ADD13R,0.03543X0.03937*%
%ADD14R,0.05315X0.04331*%
%ADD15R,0.02756X0.03347*%
%ADD16R,0.03347X0.02756*%
%ADD26C,0.01000*%
%ADD27C,0.03937*%
%ADD28C,0.00800*%
%ADD29C,0.01200*%
%ADD30R,0.06496X0.06496*%
%ADD31C,0.06496*%
%ADD32C,0.15748*%
%ADD33C,0.02362*%
G36*
X759842Y42323D02*
X749803D01*
X749606Y42126D01*
Y36638D01*
X747749D01*
Y37119D01*
X747949Y37484D01*
X747949D01*
Y38862D01*
X745276D01*
X742602D01*
Y37484D01*
X742602D01*
X742802Y37119D01*
Y36614D01*
X733465D01*
X733464Y48819D01*
X741323D01*
X741618Y48441D01*
Y46276D01*
X748933D01*
Y48441D01*
X749228Y48819D01*
X759842D01*
X759842Y42323D01*
D02*
G37*
G36*
X786599Y803D02*
X736407D01*
X736308Y1303D01*
X736829Y1519D01*
X737408Y1963D01*
X737851Y2541D01*
X738130Y3214D01*
X738226Y3937D01*
Y15748D01*
Y22724D01*
X739875D01*
Y27670D01*
X738226D01*
Y35798D01*
X742802D01*
Y32763D01*
X743848D01*
Y32138D01*
X743847Y32137D01*
X743409Y31482D01*
X743256Y30709D01*
X743409Y29936D01*
X743847Y29280D01*
X744503Y28842D01*
X745276Y28689D01*
X746049Y28842D01*
X746704Y29280D01*
X747142Y29936D01*
X747296Y30709D01*
X747142Y31482D01*
X746704Y32137D01*
X746703Y32138D01*
Y32763D01*
X747749D01*
Y33783D01*
X765045D01*
X765369Y33567D01*
X766142Y33413D01*
X766915Y33567D01*
X767570Y34005D01*
X768008Y34660D01*
X768162Y35433D01*
X768008Y36206D01*
X767570Y36861D01*
X766915Y37299D01*
X766142Y37453D01*
X765369Y37299D01*
X764713Y36861D01*
X764564Y36638D01*
X750422D01*
Y41507D01*
X759842D01*
X760155Y41569D01*
X760419Y41746D01*
X760596Y42011D01*
X760658Y42323D01*
X760658Y48819D01*
X760596Y49131D01*
X760419Y49396D01*
X760155Y49573D01*
X759842Y49635D01*
X749228D01*
X749110Y49787D01*
X741441D01*
X741323Y49635D01*
X735496D01*
X735433Y49643D01*
X735371Y49635D01*
X733464D01*
X733152Y49573D01*
X732888Y49396D01*
X732711Y49131D01*
X732649Y48819D01*
Y46913D01*
X732641Y46850D01*
Y42913D01*
Y38976D01*
Y18540D01*
X727559D01*
X726836Y18445D01*
X726163Y18166D01*
X725585Y17723D01*
X725141Y17144D01*
X724862Y16471D01*
X724767Y15748D01*
X724862Y15025D01*
X725141Y14352D01*
X725585Y13773D01*
X726163Y13330D01*
X726836Y13051D01*
X727559Y12956D01*
X732641D01*
Y6729D01*
X727559D01*
X726836Y6634D01*
X726163Y6355D01*
X725585Y5912D01*
X725141Y5333D01*
X724862Y4660D01*
X724767Y3937D01*
X724862Y3214D01*
X725141Y2541D01*
X725585Y1963D01*
X726163Y1519D01*
X726684Y1303D01*
X726585Y803D01*
X690147D01*
X689803Y1303D01*
X689813Y1330D01*
X694402D01*
Y2612D01*
X695353D01*
X695422Y2509D01*
X696077Y2071D01*
X696850Y1917D01*
X697623Y2071D01*
X698279Y2509D01*
X698716Y3164D01*
X698870Y3937D01*
X698716Y4710D01*
X698279Y5365D01*
X697623Y5803D01*
X696850Y5957D01*
X696077Y5803D01*
X695422Y5365D01*
X695353Y5263D01*
X694516D01*
X694428Y5370D01*
Y10042D01*
X698241D01*
Y13808D01*
X689554D01*
Y10042D01*
X691777D01*
Y6867D01*
X689287D01*
Y7067D01*
X686569D01*
Y13583D01*
X688992D01*
Y14665D01*
X684449D01*
Y15665D01*
X683449D01*
Y17748D01*
X679906D01*
Y16991D01*
X679156D01*
X678740Y17074D01*
X678346D01*
X677839Y16973D01*
X677409Y16685D01*
X677122Y16255D01*
X677021Y15748D01*
X677122Y15241D01*
X677409Y14811D01*
X677839Y14524D01*
X678346Y14423D01*
X678407D01*
X678823Y14340D01*
X679906D01*
Y13583D01*
X683919D01*
Y7067D01*
X683744D01*
Y5098D01*
X686516D01*
Y3098D01*
X683744D01*
Y1303D01*
X683744Y1130D01*
X683380Y803D01*
X650458D01*
X650114Y1303D01*
X650124Y1330D01*
X654713D01*
Y2612D01*
X655196D01*
X655265Y2509D01*
X655920Y2071D01*
X656693Y1917D01*
X657466Y2071D01*
X658121Y2509D01*
X658559Y3164D01*
X658713Y3937D01*
X658559Y4710D01*
X658121Y5365D01*
X657466Y5803D01*
X656693Y5957D01*
X655920Y5803D01*
X655265Y5365D01*
X655237Y5365D01*
X654739Y5861D01*
Y10042D01*
X658552D01*
Y13808D01*
X649865D01*
Y10042D01*
X652088D01*
Y6867D01*
X649598D01*
Y7067D01*
X646881D01*
Y13583D01*
X649303D01*
Y14665D01*
X644760D01*
Y15665D01*
X643760D01*
Y17748D01*
X640216D01*
Y16835D01*
X637951D01*
X637443Y16734D01*
X637013Y16447D01*
X636858Y16292D01*
X636571Y15862D01*
X636470Y15354D01*
X636571Y14847D01*
X636858Y14417D01*
X637288Y14130D01*
X637795Y14029D01*
X638303Y14130D01*
X638384Y14184D01*
X640216D01*
Y13583D01*
X644230D01*
Y7067D01*
X644055D01*
Y5098D01*
X646827D01*
Y3098D01*
X644055D01*
Y1303D01*
X644055Y1130D01*
X643691Y803D01*
X611407D01*
X611063Y1303D01*
X611073Y1330D01*
X615662D01*
Y2063D01*
X616162Y2330D01*
X616550Y2071D01*
X617323Y1917D01*
X618096Y2071D01*
X618751Y2509D01*
X619189Y3164D01*
X619343Y3937D01*
X619189Y4710D01*
X618751Y5365D01*
X618096Y5803D01*
X617323Y5957D01*
X616550Y5803D01*
X616188Y5561D01*
X615688Y5828D01*
Y10042D01*
X619501D01*
Y13808D01*
X610814D01*
Y10042D01*
X613037D01*
Y6867D01*
X610547D01*
Y7067D01*
X607829D01*
Y13583D01*
X610252D01*
Y14665D01*
X605709D01*
Y15665D01*
X604709D01*
Y17748D01*
X601165D01*
Y16835D01*
X599368D01*
X598861Y16734D01*
X598431Y16447D01*
X598275Y16292D01*
X597988Y15862D01*
X597887Y15354D01*
X597988Y14847D01*
X598275Y14417D01*
X598705Y14130D01*
X599213Y14029D01*
X599720Y14130D01*
X599802Y14184D01*
X601165D01*
Y13583D01*
X605178D01*
Y7067D01*
X605004D01*
Y5098D01*
X607776D01*
Y3098D01*
X605004D01*
Y1303D01*
X605004Y1130D01*
X604639Y803D01*
X571718D01*
X571374Y1303D01*
X571384Y1330D01*
X575973D01*
Y2013D01*
X576473Y2280D01*
X576786Y2071D01*
X577559Y1917D01*
X578332Y2071D01*
X578987Y2509D01*
X579425Y3164D01*
X579579Y3937D01*
X579425Y4710D01*
X578987Y5365D01*
X578332Y5803D01*
X577559Y5957D01*
X576786Y5803D01*
X576499Y5611D01*
X575999Y5878D01*
Y10042D01*
X579812D01*
Y13808D01*
X571125D01*
Y10042D01*
X573348D01*
Y6867D01*
X570858D01*
Y7067D01*
X568140D01*
Y13583D01*
X570563D01*
Y14665D01*
X566020D01*
Y15665D01*
X565020D01*
Y17748D01*
X561476D01*
Y16991D01*
X560258D01*
X559842Y17074D01*
X559335Y16973D01*
X558905Y16685D01*
X558618Y16255D01*
X558517Y15748D01*
X558618Y15241D01*
X558905Y14811D01*
X558988Y14728D01*
X559418Y14441D01*
X559925Y14340D01*
X561476D01*
Y13583D01*
X565489D01*
Y7067D01*
X565315D01*
Y5098D01*
X568087D01*
Y3098D01*
X565315D01*
Y1303D01*
X565315Y1130D01*
X564950Y803D01*
X532666D01*
X532323Y1303D01*
X532333Y1330D01*
X536922D01*
Y2063D01*
X537422Y2330D01*
X537810Y2071D01*
X538583Y1917D01*
X539356Y2071D01*
X540011Y2509D01*
X540449Y3164D01*
X540603Y3937D01*
X540449Y4710D01*
X540011Y5365D01*
X539356Y5803D01*
X538583Y5957D01*
X537810Y5803D01*
X537448Y5561D01*
X536947Y5828D01*
Y10042D01*
X540761D01*
Y13808D01*
X532074D01*
Y10042D01*
X534297D01*
Y6867D01*
X531807D01*
Y7067D01*
X529089D01*
Y13583D01*
X531512D01*
Y14665D01*
X526968D01*
Y15665D01*
X525969D01*
Y17748D01*
X522425D01*
Y16835D01*
X520628D01*
X520121Y16734D01*
X519691Y16447D01*
X519535Y16292D01*
X519248Y15862D01*
X519147Y15354D01*
X519248Y14847D01*
X519535Y14417D01*
X519965Y14130D01*
X520472Y14029D01*
X520980Y14130D01*
X521061Y14184D01*
X522425D01*
Y13583D01*
X526438D01*
Y7067D01*
X526264D01*
Y5098D01*
X529035D01*
Y3098D01*
X526264D01*
Y1303D01*
X526264Y1130D01*
X525899Y803D01*
X493076D01*
X492732Y1303D01*
X492742Y1330D01*
X497331D01*
Y2612D01*
X498109D01*
X498178Y2509D01*
X498833Y2071D01*
X499606Y1917D01*
X500379Y2071D01*
X501035Y2509D01*
X501473Y3164D01*
X501626Y3937D01*
X501473Y4710D01*
X501035Y5365D01*
X500379Y5803D01*
X499606Y5957D01*
X498833Y5803D01*
X498178Y5365D01*
X498109Y5263D01*
X497445D01*
X497357Y5370D01*
Y10042D01*
X501170D01*
Y13808D01*
X492483D01*
Y10042D01*
X494706D01*
Y6867D01*
X492216D01*
Y7067D01*
X489499D01*
Y13583D01*
X491921D01*
Y14665D01*
X487378D01*
Y15665D01*
X486378D01*
Y17748D01*
X482835D01*
Y16835D01*
X480864D01*
X480357Y16734D01*
X479927Y16447D01*
X479771Y16292D01*
X479484Y15862D01*
X479383Y15354D01*
X479484Y14847D01*
X479771Y14417D01*
X480201Y14130D01*
X480709Y14029D01*
X481216Y14130D01*
X481298Y14184D01*
X482835D01*
Y13583D01*
X486848D01*
Y7067D01*
X486673D01*
Y5098D01*
X489445D01*
Y3098D01*
X486673D01*
Y1303D01*
X486673Y1130D01*
X486309Y803D01*
X458392D01*
X458182Y1216D01*
X458182Y1303D01*
Y2063D01*
X458682Y2330D01*
X459069Y2071D01*
X459842Y1917D01*
X460615Y2071D01*
X461271Y2509D01*
X461709Y3164D01*
X461862Y3937D01*
X461709Y4710D01*
X461271Y5365D01*
X460615Y5803D01*
X459842Y5957D01*
X459069Y5803D01*
X458707Y5561D01*
X458207Y5828D01*
Y9928D01*
X462020D01*
Y13694D01*
X453334D01*
Y9928D01*
X455556D01*
Y6753D01*
X453067D01*
Y6953D01*
X450349D01*
Y13468D01*
X452772D01*
Y14551D01*
X448228D01*
Y15551D01*
X447228D01*
Y17634D01*
X443685D01*
Y16778D01*
X441831D01*
X441324Y16677D01*
X440894Y16390D01*
X440795Y16292D01*
X440508Y15862D01*
X440407Y15354D01*
X440508Y14847D01*
X440795Y14417D01*
X441225Y14130D01*
X441732Y14029D01*
X442227Y14127D01*
X443685D01*
Y13468D01*
X447698D01*
Y6953D01*
X447524D01*
Y4984D01*
X450295D01*
Y2984D01*
X447524D01*
Y1303D01*
X447524Y1016D01*
X447112Y803D01*
X414336D01*
X413992Y1303D01*
X414002Y1330D01*
X418591D01*
Y2286D01*
X418869Y2423D01*
X419091Y2477D01*
X419699Y2071D01*
X420472Y1917D01*
X421245Y2071D01*
X421901Y2509D01*
X422339Y3164D01*
X422492Y3937D01*
X422339Y4710D01*
X421901Y5365D01*
X421245Y5803D01*
X420472Y5957D01*
X419699Y5803D01*
X419117Y5414D01*
X418829Y5496D01*
X418617Y5626D01*
Y10042D01*
X422430D01*
Y13808D01*
X413743D01*
Y10042D01*
X415966D01*
Y6867D01*
X413476D01*
Y7067D01*
X410758D01*
Y13583D01*
X413181D01*
Y14665D01*
X408638D01*
Y15665D01*
X407638D01*
Y17748D01*
X404095D01*
Y16835D01*
X402124D01*
X401617Y16734D01*
X401187Y16447D01*
X401031Y16292D01*
X400744Y15862D01*
X400643Y15354D01*
X400744Y14847D01*
X401031Y14417D01*
X401461Y14130D01*
X401968Y14029D01*
X402476Y14130D01*
X402558Y14184D01*
X404095D01*
Y13583D01*
X408108D01*
Y7067D01*
X407933D01*
Y5098D01*
X410705D01*
Y3098D01*
X407933D01*
Y1303D01*
X407933Y1130D01*
X407569Y803D01*
X374966D01*
X374622Y1303D01*
X374632Y1330D01*
X379221D01*
Y2612D01*
X379999D01*
X380068Y2509D01*
X380723Y2071D01*
X381496Y1917D01*
X382269Y2071D01*
X382924Y2509D01*
X383362Y3164D01*
X383516Y3937D01*
X383362Y4710D01*
X382924Y5365D01*
X382269Y5803D01*
X381496Y5957D01*
X380723Y5803D01*
X380068Y5365D01*
X379999Y5263D01*
X379335D01*
X379247Y5370D01*
Y10042D01*
X383060D01*
Y13808D01*
X374373D01*
Y10042D01*
X376596D01*
Y6867D01*
X374106D01*
Y7067D01*
X371388D01*
Y13583D01*
X373811D01*
Y14665D01*
X369268D01*
Y15665D01*
X368268D01*
Y17748D01*
X364724D01*
Y17032D01*
X362806D01*
X362598Y17074D01*
X362091Y16973D01*
X361661Y16685D01*
X361374Y16255D01*
X361273Y15748D01*
X361374Y15241D01*
X361661Y14811D01*
X361702Y14769D01*
X362133Y14482D01*
X362640Y14381D01*
X364724D01*
Y13583D01*
X368738D01*
Y7067D01*
X368563D01*
Y5098D01*
X371335D01*
Y3098D01*
X368563D01*
Y1303D01*
X368563Y1130D01*
X368198Y803D01*
X340282D01*
X340072Y1216D01*
X340072Y1303D01*
Y2612D01*
X340629D01*
X340698Y2509D01*
X341353Y2071D01*
X342126Y1917D01*
X342899Y2071D01*
X343554Y2509D01*
X343992Y3164D01*
X344146Y3937D01*
X343992Y4710D01*
X343554Y5365D01*
X342899Y5803D01*
X342126Y5957D01*
X341353Y5803D01*
X340698Y5365D01*
X340629Y5263D01*
X340097D01*
Y9928D01*
X343910D01*
Y13694D01*
X335224D01*
Y9928D01*
X337446D01*
Y6753D01*
X334957D01*
Y6953D01*
X332239D01*
Y13468D01*
X334661D01*
Y14551D01*
X330118D01*
Y15551D01*
X329118D01*
Y17634D01*
X325575D01*
Y16778D01*
X323721D01*
X323213Y16677D01*
X322783Y16390D01*
X322685Y16292D01*
X322397Y15862D01*
X322297Y15354D01*
X322397Y14847D01*
X322685Y14417D01*
X323115Y14130D01*
X323622Y14029D01*
X324117Y14127D01*
X325575D01*
Y13468D01*
X329588D01*
Y6953D01*
X329413D01*
Y4984D01*
X332185D01*
Y2984D01*
X329413D01*
Y1303D01*
X329413Y1016D01*
X329002Y803D01*
X300912D01*
X300702Y1216D01*
X300702Y1303D01*
Y2063D01*
X301202Y2330D01*
X301589Y2071D01*
X302362Y1917D01*
X303135Y2071D01*
X303790Y2509D01*
X304228Y3164D01*
X304382Y3937D01*
X304228Y4710D01*
X303790Y5365D01*
X303135Y5803D01*
X302362Y5957D01*
X301589Y5803D01*
X301227Y5561D01*
X300727Y5828D01*
Y9928D01*
X304540D01*
Y13694D01*
X295853D01*
Y9928D01*
X298076D01*
Y6753D01*
X295587D01*
Y6953D01*
X292869D01*
Y13468D01*
X295291D01*
Y14551D01*
X290748D01*
Y15551D01*
X289748D01*
Y17634D01*
X286205D01*
Y16975D01*
X284747D01*
X284252Y17074D01*
X283745Y16973D01*
X283315Y16685D01*
X283027Y16255D01*
X282927Y15748D01*
X283027Y15241D01*
X283315Y14811D01*
X283413Y14712D01*
X283843Y14425D01*
X284350Y14324D01*
X286205D01*
Y13468D01*
X290218D01*
Y6953D01*
X290043D01*
Y4984D01*
X292815D01*
Y2984D01*
X290043D01*
Y1303D01*
X290043Y1016D01*
X289632Y803D01*
X257076D01*
X256732Y1303D01*
X256742Y1330D01*
X261332D01*
Y2612D01*
X261889D01*
X261958Y2509D01*
X262613Y2071D01*
X263386Y1917D01*
X264159Y2071D01*
X264814Y2509D01*
X265252Y3164D01*
X265406Y3937D01*
X265252Y4710D01*
X264814Y5365D01*
X264159Y5803D01*
X263386Y5957D01*
X262613Y5803D01*
X261958Y5365D01*
X261916Y5303D01*
X261828Y5300D01*
X261357Y5766D01*
Y10042D01*
X265170D01*
Y13808D01*
X256484D01*
Y10042D01*
X258706D01*
Y6867D01*
X256217D01*
Y7067D01*
X253499D01*
Y13583D01*
X255921D01*
Y14665D01*
X251378D01*
Y15665D01*
X250378D01*
Y17748D01*
X246835D01*
Y16547D01*
X244749D01*
X244242Y16446D01*
X243812Y16159D01*
X243551Y15898D01*
X243264Y15468D01*
X243163Y14961D01*
X243264Y14453D01*
X243551Y14023D01*
X243981Y13736D01*
X244488Y13635D01*
X244995Y13736D01*
X245234Y13896D01*
X246835D01*
Y13583D01*
X250848D01*
Y7067D01*
X250673D01*
Y5098D01*
X253445D01*
Y3098D01*
X250673D01*
Y1303D01*
X250673Y1130D01*
X250309Y803D01*
X217485D01*
X217141Y1303D01*
X217152Y1330D01*
X221741D01*
Y2612D01*
X222519D01*
X222587Y2509D01*
X223243Y2071D01*
X224016Y1917D01*
X224789Y2071D01*
X225444Y2509D01*
X225882Y3164D01*
X226036Y3937D01*
X225882Y4710D01*
X225444Y5365D01*
X224789Y5803D01*
X224016Y5957D01*
X223243Y5803D01*
X222587Y5365D01*
X222519Y5263D01*
X221855D01*
X221766Y5370D01*
Y10042D01*
X225580D01*
Y13808D01*
X216893D01*
Y10042D01*
X219115D01*
Y6867D01*
X216626D01*
Y7067D01*
X213908D01*
Y13583D01*
X216331D01*
Y14665D01*
X211787D01*
Y15665D01*
X210787D01*
Y17748D01*
X207244D01*
Y16835D01*
X205667D01*
X205160Y16734D01*
X204730Y16447D01*
X204575Y16292D01*
X204287Y15862D01*
X204186Y15354D01*
X204287Y14847D01*
X204575Y14417D01*
X205005Y14130D01*
X205512Y14029D01*
X206019Y14130D01*
X206101Y14184D01*
X207244D01*
Y13583D01*
X211257D01*
Y7067D01*
X211083D01*
Y5098D01*
X213854D01*
Y3098D01*
X211083D01*
Y1303D01*
X211083Y1130D01*
X210718Y803D01*
X182801D01*
X182591Y1216D01*
X182591Y1303D01*
Y2612D01*
X183149D01*
X183217Y2509D01*
X183873Y2071D01*
X184646Y1917D01*
X185419Y2071D01*
X186074Y2509D01*
X186512Y3164D01*
X186666Y3937D01*
X186512Y4710D01*
X186074Y5365D01*
X185419Y5803D01*
X184646Y5957D01*
X183873Y5803D01*
X183217Y5365D01*
X183149Y5263D01*
X182617D01*
Y9928D01*
X186430D01*
Y13694D01*
X177743D01*
Y9928D01*
X179966D01*
Y6753D01*
X177476D01*
Y6953D01*
X174759D01*
Y13468D01*
X177181D01*
Y14551D01*
X172638D01*
Y15551D01*
X171638D01*
Y17634D01*
X168095D01*
Y16778D01*
X166240D01*
X165733Y16677D01*
X165303Y16390D01*
X165205Y16292D01*
X164917Y15862D01*
X164816Y15354D01*
X164917Y14847D01*
X165205Y14417D01*
X165635Y14130D01*
X166142Y14029D01*
X166637Y14127D01*
X168095D01*
Y13468D01*
X172108D01*
Y6953D01*
X171933D01*
Y4984D01*
X174705D01*
Y2984D01*
X171933D01*
Y1303D01*
X171933Y1016D01*
X171521Y803D01*
X138745D01*
X138401Y1303D01*
X138412Y1330D01*
X143001D01*
Y2612D01*
X143779D01*
X143847Y2509D01*
X144503Y2071D01*
X145276Y1917D01*
X146049Y2071D01*
X146704Y2509D01*
X147142Y3164D01*
X147295Y3937D01*
X147142Y4710D01*
X146704Y5365D01*
X146049Y5803D01*
X145276Y5957D01*
X144503Y5803D01*
X143847Y5365D01*
X143779Y5263D01*
X143114D01*
X143026Y5370D01*
Y10042D01*
X146839D01*
Y13808D01*
X138153D01*
Y10042D01*
X140375D01*
Y6867D01*
X137886D01*
Y7067D01*
X135168D01*
Y13583D01*
X137591D01*
Y14665D01*
X133047D01*
Y15665D01*
X132047D01*
Y17748D01*
X128504D01*
Y16835D01*
X126533D01*
X126026Y16734D01*
X125596Y16447D01*
X125441Y16292D01*
X125153Y15862D01*
X125052Y15354D01*
X125153Y14847D01*
X125441Y14417D01*
X125871Y14130D01*
X126378Y14029D01*
X126885Y14130D01*
X126967Y14184D01*
X128504D01*
Y13583D01*
X132517D01*
Y7067D01*
X132343D01*
Y5098D01*
X135114D01*
Y3098D01*
X132343D01*
Y1303D01*
X132343Y1130D01*
X131978Y803D01*
X104093D01*
X103883Y1216D01*
X103883Y1303D01*
Y2612D01*
X104409D01*
X104477Y2509D01*
X105132Y2071D01*
X105905Y1917D01*
X106678Y2071D01*
X107334Y2509D01*
X107772Y3164D01*
X107925Y3937D01*
X107772Y4710D01*
X107334Y5365D01*
X106678Y5803D01*
X105905Y5957D01*
X105132Y5803D01*
X104477Y5365D01*
X104409Y5263D01*
X103908D01*
Y9928D01*
X107721D01*
Y13694D01*
X99035D01*
Y9928D01*
X101257D01*
Y6753D01*
X98768D01*
Y6953D01*
X96050D01*
Y13468D01*
X98472D01*
Y14551D01*
X93929D01*
Y15551D01*
X92929D01*
Y17634D01*
X89386D01*
Y16975D01*
X87896D01*
X87402Y17074D01*
X86894Y16973D01*
X86464Y16685D01*
X86177Y16255D01*
X86076Y15748D01*
X86177Y15241D01*
X86464Y14811D01*
X86563Y14712D01*
X86993Y14425D01*
X87500Y14324D01*
X89386D01*
Y13468D01*
X93399D01*
Y6953D01*
X93224D01*
Y4984D01*
X95996D01*
Y2984D01*
X93224D01*
Y1303D01*
X93224Y1016D01*
X92813Y803D01*
X803D01*
Y58252D01*
X786599D01*
Y803D01*
D02*
G37*
%LPC*%
G36*
X748933Y44276D02*
X741618D01*
Y42110D01*
X742602D01*
Y40862D01*
X745276D01*
X747949D01*
Y42110D01*
X748933D01*
Y44276D01*
D02*
G37*
G36*
Y53953D02*
X746276D01*
Y51787D01*
X748933D01*
Y53953D01*
D02*
G37*
G36*
X744276D02*
X741618D01*
Y51787D01*
X744276D01*
Y53953D01*
D02*
G37*
G36*
X644110Y52083D02*
X640567D01*
Y51326D01*
X638583D01*
X638583Y51326D01*
X638075Y51225D01*
X637645Y50937D01*
X637358Y50507D01*
X637257Y50000D01*
X637358Y49493D01*
X637645Y49063D01*
X638075Y48775D01*
X638583Y48674D01*
X640567D01*
Y47917D01*
X644580D01*
Y41402D01*
X644406D01*
Y39433D01*
X647177D01*
Y37433D01*
X644406D01*
Y35465D01*
X645525D01*
Y33858D01*
X645626Y33351D01*
X645913Y32921D01*
X646343Y32634D01*
X646850Y32533D01*
X647358Y32634D01*
X647788Y32921D01*
X648075Y33351D01*
X648176Y33858D01*
Y35465D01*
X649949D01*
Y35665D01*
X655064D01*
Y37748D01*
X656421D01*
X656928Y37849D01*
X657358Y38136D01*
X657839Y38617D01*
X658268Y38531D01*
X659041Y38685D01*
X659696Y39123D01*
X660134Y39778D01*
X660288Y40551D01*
X660134Y41324D01*
X659696Y41980D01*
X659041Y42417D01*
X658268Y42571D01*
X657495Y42417D01*
X656839Y41980D01*
X656402Y41324D01*
X656303Y40830D01*
X655872Y40399D01*
X655089D01*
Y44377D01*
X658902D01*
Y48142D01*
X650216D01*
Y44377D01*
X652438D01*
Y41202D01*
X649949D01*
Y41402D01*
X647231D01*
Y47917D01*
X649653D01*
Y49000D01*
X645110D01*
Y50000D01*
X644110D01*
Y52083D01*
D02*
G37*
G36*
X604740D02*
X601197D01*
Y51326D01*
X599213D01*
X599213Y51326D01*
X598705Y51225D01*
X598275Y50937D01*
X597988Y50507D01*
X597887Y50000D01*
X597988Y49493D01*
X598275Y49063D01*
X598705Y48775D01*
X599213Y48674D01*
X601197D01*
Y47917D01*
X605210D01*
Y41402D01*
X605035D01*
Y39433D01*
X607807D01*
Y37433D01*
X605035D01*
Y35465D01*
X606549D01*
Y33465D01*
X606649Y32957D01*
X606937Y32527D01*
X607367Y32240D01*
X607874Y32139D01*
X608381Y32240D01*
X608811Y32527D01*
X609099Y32957D01*
X609199Y33465D01*
Y35465D01*
X610579D01*
Y35665D01*
X615694D01*
Y37257D01*
X617717D01*
X618224Y37358D01*
X618654Y37645D01*
X619564Y38555D01*
X619685Y38531D01*
X620458Y38685D01*
X621113Y39123D01*
X621551Y39778D01*
X621705Y40551D01*
X621551Y41324D01*
X621113Y41980D01*
X620458Y42417D01*
X619685Y42571D01*
X618912Y42417D01*
X618257Y41980D01*
X617819Y41324D01*
X617665Y40551D01*
X617689Y40430D01*
X617167Y39908D01*
X615719D01*
Y44377D01*
X619532D01*
Y48142D01*
X610846D01*
Y44377D01*
X613068D01*
Y41202D01*
X610579D01*
Y41402D01*
X607861D01*
Y47917D01*
X610283D01*
Y49000D01*
X605740D01*
Y50000D01*
X604740D01*
Y52083D01*
D02*
G37*
G36*
X565370D02*
X561827D01*
Y51326D01*
X560236D01*
X560236Y51326D01*
X559729Y51225D01*
X559299Y50937D01*
X559012Y50507D01*
X558911Y50000D01*
X559012Y49493D01*
X559299Y49063D01*
X559729Y48775D01*
X560236Y48674D01*
X561827D01*
Y47917D01*
X565840D01*
Y41402D01*
X565665D01*
Y39433D01*
X568437D01*
Y37433D01*
X565665D01*
Y35465D01*
X566785D01*
Y33465D01*
X566886Y32957D01*
X567173Y32527D01*
X567603Y32240D01*
X568110Y32139D01*
X568617Y32240D01*
X569047Y32527D01*
X569335Y32957D01*
X569436Y33465D01*
Y35465D01*
X571209D01*
Y35665D01*
X576324D01*
Y37651D01*
X577953D01*
X578460Y37752D01*
X578890Y38039D01*
X579472Y38621D01*
X579921Y38531D01*
X580694Y38685D01*
X581350Y39123D01*
X581787Y39778D01*
X581941Y40551D01*
X581787Y41324D01*
X581350Y41980D01*
X580694Y42417D01*
X579921Y42571D01*
X579148Y42417D01*
X578493Y41980D01*
X578055Y41324D01*
X577963Y40861D01*
X577404Y40302D01*
X576349D01*
Y44377D01*
X580162D01*
Y48142D01*
X571476D01*
Y44377D01*
X573698D01*
Y41202D01*
X571209D01*
Y41402D01*
X568491D01*
Y47917D01*
X570913D01*
Y49000D01*
X566370D01*
Y50000D01*
X565370D01*
Y52083D01*
D02*
G37*
G36*
X526000D02*
X522457D01*
Y51326D01*
X520866D01*
X520866Y51326D01*
X520359Y51225D01*
X519929Y50937D01*
X519642Y50507D01*
X519541Y50000D01*
X519642Y49493D01*
X519929Y49063D01*
X520359Y48775D01*
X520866Y48674D01*
X522457D01*
Y47917D01*
X526470D01*
Y41402D01*
X526295D01*
Y39433D01*
X529067D01*
Y37433D01*
X526295D01*
Y35465D01*
X527415D01*
Y33465D01*
X527516Y32957D01*
X527803Y32527D01*
X528233Y32240D01*
X528740Y32139D01*
X529247Y32240D01*
X529677Y32527D01*
X529965Y32957D01*
X530066Y33465D01*
Y35465D01*
X531839D01*
Y35665D01*
X536953D01*
Y37748D01*
X538311D01*
X538818Y37849D01*
X539248Y38136D01*
X539729Y38617D01*
X540158Y38531D01*
X540931Y38685D01*
X541586Y39123D01*
X542024Y39778D01*
X542177Y40551D01*
X542024Y41324D01*
X541586Y41980D01*
X540931Y42417D01*
X540158Y42571D01*
X539385Y42417D01*
X538729Y41980D01*
X538291Y41324D01*
X538193Y40830D01*
X537762Y40399D01*
X536979D01*
Y44377D01*
X540792D01*
Y48142D01*
X532105D01*
Y44377D01*
X534328D01*
Y41202D01*
X531839D01*
Y41402D01*
X529121D01*
Y47917D01*
X531543D01*
Y49000D01*
X527000D01*
Y50000D01*
X526000D01*
Y52083D01*
D02*
G37*
G36*
X486630D02*
X483087D01*
Y51326D01*
X481496D01*
X481496Y51326D01*
X480989Y51225D01*
X480559Y50937D01*
X480271Y50507D01*
X480171Y50000D01*
X480271Y49493D01*
X480559Y49063D01*
X480989Y48775D01*
X481496Y48674D01*
X483087D01*
Y47917D01*
X487100D01*
Y41402D01*
X486925D01*
Y39433D01*
X489697D01*
Y37433D01*
X486925D01*
Y35465D01*
X488045D01*
Y34252D01*
X488145Y33745D01*
X488433Y33315D01*
X488863Y33027D01*
X489370Y32926D01*
X489877Y33027D01*
X490307Y33315D01*
X490595Y33745D01*
X490696Y34252D01*
Y35465D01*
X492469D01*
Y35665D01*
X497583D01*
Y36863D01*
X498819D01*
X499326Y36964D01*
X499756Y37252D01*
X501060Y38555D01*
X501181Y38531D01*
X501954Y38685D01*
X502609Y39123D01*
X503047Y39778D01*
X503201Y40551D01*
X503047Y41324D01*
X502609Y41980D01*
X501954Y42417D01*
X501181Y42571D01*
X500408Y42417D01*
X499753Y41980D01*
X499315Y41324D01*
X499161Y40551D01*
X499185Y40430D01*
X498270Y39514D01*
X497609D01*
Y44377D01*
X501422D01*
Y48142D01*
X492735D01*
Y44377D01*
X494958D01*
Y41202D01*
X492469D01*
Y41402D01*
X489751D01*
Y47917D01*
X492173D01*
Y49000D01*
X487630D01*
Y50000D01*
X486630D01*
Y52083D01*
D02*
G37*
G36*
X447260D02*
X443716D01*
Y51326D01*
X442126D01*
X442126Y51326D01*
X441619Y51225D01*
X441189Y50937D01*
X440901Y50507D01*
X440801Y50000D01*
X440901Y49493D01*
X441189Y49063D01*
X441619Y48775D01*
X442126Y48674D01*
X443716D01*
Y47917D01*
X447730D01*
Y41402D01*
X447555D01*
Y39433D01*
X450327D01*
Y37433D01*
X447555D01*
Y35465D01*
X448674D01*
Y33465D01*
X448775Y32957D01*
X449063Y32527D01*
X449493Y32240D01*
X450000Y32139D01*
X450507Y32240D01*
X450937Y32527D01*
X451225Y32957D01*
X451326Y33465D01*
Y35465D01*
X453098D01*
Y35665D01*
X458213D01*
Y37748D01*
X459177D01*
X459684Y37849D01*
X460114Y38136D01*
X460595Y38617D01*
X461024Y38531D01*
X461797Y38685D01*
X462452Y39123D01*
X462890Y39778D01*
X463043Y40551D01*
X462890Y41324D01*
X462452Y41980D01*
X461797Y42417D01*
X461024Y42571D01*
X460251Y42417D01*
X459595Y41980D01*
X459158Y41324D01*
X459061Y40842D01*
X458683Y40532D01*
X458239Y40685D01*
Y44377D01*
X462052D01*
Y48142D01*
X453365D01*
Y44377D01*
X455588D01*
Y41202D01*
X453098D01*
Y41402D01*
X450381D01*
Y47917D01*
X452803D01*
Y49000D01*
X448260D01*
Y50000D01*
X447260D01*
Y52083D01*
D02*
G37*
G36*
X407890D02*
X404347D01*
Y51326D01*
X402756D01*
X402756Y51326D01*
X402249Y51225D01*
X401819Y50937D01*
X401531Y50507D01*
X401430Y50000D01*
X401531Y49493D01*
X401819Y49063D01*
X402249Y48775D01*
X402756Y48674D01*
X404347D01*
Y47917D01*
X408359D01*
Y41402D01*
X408185D01*
Y39433D01*
X410957D01*
Y37433D01*
X408185D01*
Y35465D01*
X409304D01*
Y33858D01*
X409405Y33351D01*
X409693Y32921D01*
X410123Y32634D01*
X410630Y32533D01*
X411137Y32634D01*
X411567Y32921D01*
X411855Y33351D01*
X411955Y33858D01*
Y35465D01*
X413728D01*
Y35665D01*
X418843D01*
Y37748D01*
X419734D01*
X420241Y37849D01*
X420671Y38136D01*
X421492Y38957D01*
X421654Y38925D01*
X422427Y39079D01*
X423082Y39517D01*
X423520Y40172D01*
X423673Y40945D01*
X423520Y41718D01*
X423082Y42373D01*
X422427Y42811D01*
X421654Y42965D01*
X420881Y42811D01*
X420225Y42373D01*
X419787Y41718D01*
X419638Y40967D01*
X419566Y40890D01*
X419331Y40700D01*
X418869Y40901D01*
Y44377D01*
X422682D01*
Y48142D01*
X413995D01*
Y44377D01*
X416218D01*
Y41202D01*
X413728D01*
Y41402D01*
X411011D01*
Y47917D01*
X413433D01*
Y49000D01*
X408890D01*
Y50000D01*
X407890D01*
Y52083D01*
D02*
G37*
G36*
X329150D02*
X325606D01*
Y51326D01*
X324016D01*
X324016Y51326D01*
X323509Y51225D01*
X323078Y50937D01*
X322791Y50507D01*
X322690Y50000D01*
X322791Y49493D01*
X323078Y49063D01*
X323509Y48775D01*
X324016Y48674D01*
X325606D01*
Y47917D01*
X329619D01*
Y41402D01*
X329445D01*
Y39433D01*
X332217D01*
Y37433D01*
X329445D01*
Y35465D01*
X330564D01*
Y33858D01*
X330665Y33351D01*
X330953Y32921D01*
X331382Y32634D01*
X331890Y32533D01*
X332397Y32634D01*
X332827Y32921D01*
X333114Y33351D01*
X333215Y33858D01*
Y35465D01*
X334988D01*
Y35665D01*
X340103D01*
Y36863D01*
X341339D01*
X341846Y36964D01*
X342276Y37252D01*
X343580Y38555D01*
X343701Y38531D01*
X344474Y38685D01*
X345129Y39123D01*
X345567Y39778D01*
X345721Y40551D01*
X345567Y41324D01*
X345129Y41980D01*
X344474Y42417D01*
X343701Y42571D01*
X342928Y42417D01*
X342272Y41980D01*
X341835Y41324D01*
X341681Y40551D01*
X341705Y40430D01*
X340790Y39514D01*
X340129D01*
Y44377D01*
X343942D01*
Y48142D01*
X335255D01*
Y44377D01*
X337478D01*
Y41202D01*
X334988D01*
Y41402D01*
X332270D01*
Y47917D01*
X334693D01*
Y49000D01*
X330150D01*
Y50000D01*
X329150D01*
Y52083D01*
D02*
G37*
G36*
X289779D02*
X286236D01*
Y51326D01*
X284646D01*
X284646Y51326D01*
X284138Y51225D01*
X283708Y50937D01*
X283421Y50507D01*
X283320Y50000D01*
X283421Y49493D01*
X283708Y49063D01*
X284138Y48775D01*
X284646Y48674D01*
X286236D01*
Y47917D01*
X290249D01*
Y41402D01*
X290075D01*
Y39433D01*
X292846D01*
Y37433D01*
X290075D01*
Y35465D01*
X291194D01*
Y33858D01*
X291295Y33351D01*
X291582Y32921D01*
X292012Y32634D01*
X292520Y32533D01*
X293027Y32634D01*
X293457Y32921D01*
X293744Y33351D01*
X293845Y33858D01*
Y35465D01*
X295618D01*
Y35665D01*
X300733D01*
Y37748D01*
X301697D01*
X302204Y37849D01*
X302634Y38136D01*
X303115Y38617D01*
X303543Y38531D01*
X304316Y38685D01*
X304972Y39123D01*
X305410Y39778D01*
X305563Y40551D01*
X305410Y41324D01*
X304972Y41980D01*
X304316Y42417D01*
X303543Y42571D01*
X302770Y42417D01*
X302115Y41980D01*
X301677Y41324D01*
X301581Y40842D01*
X301203Y40532D01*
X300759Y40685D01*
Y44377D01*
X304572D01*
Y48142D01*
X295885D01*
Y44377D01*
X298108D01*
Y41202D01*
X295618D01*
Y41402D01*
X292900D01*
Y47917D01*
X295323D01*
Y49000D01*
X290779D01*
Y50000D01*
X289779D01*
Y52083D01*
D02*
G37*
G36*
X250409D02*
X246866D01*
Y51326D01*
X244882D01*
X244882Y51326D01*
X244375Y51225D01*
X243945Y50937D01*
X243657Y50507D01*
X243556Y50000D01*
X243657Y49493D01*
X243945Y49063D01*
X244375Y48775D01*
X244882Y48674D01*
X246866D01*
Y47917D01*
X250879D01*
Y41402D01*
X250705D01*
Y39433D01*
X253476D01*
Y37433D01*
X250705D01*
Y35465D01*
X251824D01*
Y34252D01*
X251925Y33745D01*
X252212Y33315D01*
X252642Y33027D01*
X253150Y32926D01*
X253657Y33027D01*
X254087Y33315D01*
X254374Y33745D01*
X254475Y34252D01*
Y35465D01*
X256248D01*
Y35665D01*
X261363D01*
Y37748D01*
X262327D01*
X262834Y37849D01*
X263264Y38136D01*
X263744Y38617D01*
X264173Y38531D01*
X264946Y38685D01*
X265601Y39123D01*
X266039Y39778D01*
X266193Y40551D01*
X266039Y41324D01*
X265601Y41980D01*
X264946Y42417D01*
X264173Y42571D01*
X263400Y42417D01*
X262745Y41980D01*
X262307Y41324D01*
X262211Y40842D01*
X261833Y40532D01*
X261388Y40685D01*
Y44377D01*
X265201D01*
Y48142D01*
X256515D01*
Y44377D01*
X258737D01*
Y41202D01*
X256248D01*
Y41402D01*
X253530D01*
Y47917D01*
X255953D01*
Y49000D01*
X251409D01*
Y50000D01*
X250409D01*
Y52083D01*
D02*
G37*
G36*
X211039D02*
X207496D01*
Y51326D01*
X205512D01*
X205512Y51326D01*
X205005Y51225D01*
X204575Y50937D01*
X204287Y50507D01*
X204186Y50000D01*
X204287Y49493D01*
X204575Y49063D01*
X205005Y48775D01*
X205512Y48674D01*
X207496D01*
Y47917D01*
X211509D01*
Y41402D01*
X211335D01*
Y39433D01*
X214106D01*
Y37433D01*
X211335D01*
Y35465D01*
X212848D01*
Y33858D01*
X212949Y33351D01*
X213236Y32921D01*
X213666Y32634D01*
X214173Y32533D01*
X214681Y32634D01*
X215110Y32921D01*
X215398Y33351D01*
X215499Y33858D01*
Y35465D01*
X216878D01*
Y35665D01*
X221993D01*
Y37748D01*
X223350D01*
X223857Y37849D01*
X224288Y38136D01*
X224768Y38617D01*
X225197Y38531D01*
X225970Y38685D01*
X226625Y39123D01*
X227063Y39778D01*
X227217Y40551D01*
X227063Y41324D01*
X226625Y41980D01*
X225970Y42417D01*
X225197Y42571D01*
X224424Y42417D01*
X223769Y41980D01*
X223331Y41324D01*
X223232Y40830D01*
X222801Y40399D01*
X222018D01*
Y44377D01*
X225832D01*
Y48142D01*
X217145D01*
Y44377D01*
X219367D01*
Y41202D01*
X216878D01*
Y41402D01*
X214160D01*
Y47917D01*
X216583D01*
Y49000D01*
X212039D01*
Y50000D01*
X211039D01*
Y52083D01*
D02*
G37*
G36*
X171669D02*
X168126D01*
Y51326D01*
X166535D01*
X166535Y51326D01*
X166028Y51225D01*
X165598Y50937D01*
X165311Y50507D01*
X165210Y50000D01*
X165311Y49493D01*
X165598Y49063D01*
X166028Y48775D01*
X166535Y48674D01*
X168126D01*
Y47917D01*
X172139D01*
Y41402D01*
X171965D01*
Y39433D01*
X174736D01*
Y37433D01*
X171965D01*
Y35465D01*
X172690D01*
Y33858D01*
X172791Y33351D01*
X173079Y32921D01*
X173509Y32634D01*
X174016Y32533D01*
X174523Y32634D01*
X174953Y32921D01*
X175240Y33351D01*
X175341Y33858D01*
Y35465D01*
X177508D01*
Y35665D01*
X182623D01*
Y37257D01*
X183858D01*
X184365Y37358D01*
X184795Y37645D01*
X185705Y38555D01*
X185827Y38531D01*
X186600Y38685D01*
X187255Y39123D01*
X187693Y39778D01*
X187847Y40551D01*
X187693Y41324D01*
X187255Y41980D01*
X186600Y42417D01*
X185827Y42571D01*
X185054Y42417D01*
X184398Y41980D01*
X183961Y41324D01*
X183807Y40551D01*
X183831Y40430D01*
X183309Y39908D01*
X182648D01*
Y44377D01*
X186461D01*
Y48142D01*
X177775D01*
Y44377D01*
X179997D01*
Y41202D01*
X177508D01*
Y41402D01*
X174790D01*
Y47917D01*
X177213D01*
Y49000D01*
X172669D01*
Y50000D01*
X171669D01*
Y52083D01*
D02*
G37*
G36*
X132299D02*
X128756D01*
Y51326D01*
X127165D01*
X127165Y51326D01*
X126658Y51225D01*
X126228Y50937D01*
X125941Y50507D01*
X125840Y50000D01*
X125941Y49493D01*
X126228Y49063D01*
X126658Y48775D01*
X127165Y48674D01*
X128756D01*
Y47917D01*
X132769D01*
Y41402D01*
X132595D01*
Y39433D01*
X135366D01*
Y37433D01*
X132595D01*
Y35465D01*
X134108D01*
Y33858D01*
X134209Y33351D01*
X134496Y32921D01*
X134926Y32634D01*
X135433Y32533D01*
X135940Y32634D01*
X136370Y32921D01*
X136658Y33351D01*
X136758Y33858D01*
Y35465D01*
X138138D01*
Y35665D01*
X143253D01*
Y37748D01*
X144610D01*
X145117Y37849D01*
X145547Y38136D01*
X146028Y38617D01*
X146457Y38531D01*
X147230Y38685D01*
X147885Y39123D01*
X148323Y39778D01*
X148477Y40551D01*
X148323Y41324D01*
X147885Y41980D01*
X147230Y42417D01*
X146457Y42571D01*
X145684Y42417D01*
X145028Y41980D01*
X144590Y41324D01*
X144492Y40830D01*
X144061Y40399D01*
X143278D01*
Y44377D01*
X147091D01*
Y48142D01*
X138405D01*
Y44377D01*
X140627D01*
Y41202D01*
X138138D01*
Y41402D01*
X135420D01*
Y47917D01*
X137843D01*
Y49000D01*
X133299D01*
Y50000D01*
X132299D01*
Y52083D01*
D02*
G37*
G36*
X689024D02*
X685480D01*
Y51000D01*
X689024D01*
Y52083D01*
D02*
G37*
G36*
X649653D02*
X646110D01*
Y51000D01*
X649653D01*
Y52083D01*
D02*
G37*
G36*
X610283D02*
X606740D01*
Y51000D01*
X610283D01*
Y52083D01*
D02*
G37*
G36*
X570913D02*
X567370D01*
Y51000D01*
X570913D01*
Y52083D01*
D02*
G37*
G36*
X531543D02*
X528000D01*
Y51000D01*
X531543D01*
Y52083D01*
D02*
G37*
G36*
X492173D02*
X488630D01*
Y51000D01*
X492173D01*
Y52083D01*
D02*
G37*
G36*
X452803D02*
X449260D01*
Y51000D01*
X452803D01*
Y52083D01*
D02*
G37*
G36*
X374063Y52083D02*
X370520D01*
Y51000D01*
X374063D01*
Y52083D01*
D02*
G37*
G36*
X334693Y52083D02*
X331150D01*
Y51000D01*
X334693D01*
Y52083D01*
D02*
G37*
G36*
X295323D02*
X291779D01*
Y51000D01*
X295323D01*
Y52083D01*
D02*
G37*
G36*
X413433D02*
X409890D01*
Y51000D01*
X413433D01*
Y52083D01*
D02*
G37*
G36*
X255953D02*
X252409D01*
Y51000D01*
X255953D01*
Y52083D01*
D02*
G37*
G36*
X216583D02*
X213039D01*
Y51000D01*
X216583D01*
Y52083D01*
D02*
G37*
G36*
X177213D02*
X173669D01*
Y51000D01*
X177213D01*
Y52083D01*
D02*
G37*
G36*
X98472Y52083D02*
X94929D01*
Y51000D01*
X98472D01*
Y52083D01*
D02*
G37*
G36*
X137843Y52083D02*
X134299D01*
Y51000D01*
X137843D01*
Y52083D01*
D02*
G37*
G36*
X698272Y55623D02*
X689586D01*
Y51858D01*
X696254D01*
X700541Y47570D01*
Y40355D01*
X700026Y39840D01*
X699565Y40086D01*
X699658Y40551D01*
X699504Y41324D01*
X699066Y41980D01*
X698411Y42417D01*
X697638Y42571D01*
X696865Y42417D01*
X696209Y41980D01*
X695772Y41324D01*
X695618Y40551D01*
X695642Y40430D01*
X695120Y39908D01*
X694459D01*
Y44377D01*
X698272D01*
Y48142D01*
X689586D01*
Y44377D01*
X691808D01*
Y41202D01*
X689319D01*
Y41402D01*
X686601D01*
Y47917D01*
X689024D01*
Y49000D01*
X684480D01*
Y50000D01*
X683480D01*
Y52083D01*
X679937D01*
Y51326D01*
X677953D01*
X677446Y51225D01*
X677015Y50937D01*
X676728Y50507D01*
X676627Y50000D01*
X676728Y49493D01*
X677015Y49063D01*
X677446Y48775D01*
X677953Y48674D01*
X679937D01*
Y47917D01*
X683950D01*
Y41402D01*
X683776D01*
Y39433D01*
X686547D01*
Y37433D01*
X683776D01*
Y35465D01*
X684895D01*
Y33858D01*
X684996Y33351D01*
X685283Y32921D01*
X685713Y32634D01*
X686221Y32533D01*
X686728Y32634D01*
X687158Y32921D01*
X687445Y33351D01*
X687546Y33858D01*
Y35465D01*
X689319D01*
Y35665D01*
X694434D01*
Y37257D01*
X695669D01*
X696176Y37358D01*
X696606Y37645D01*
X697516Y38555D01*
X697638Y38531D01*
X698103Y38624D01*
X698349Y38163D01*
X692691Y32505D01*
X692382Y32042D01*
X692273Y31496D01*
X692273Y31496D01*
Y29775D01*
X692273Y29775D01*
X691835Y29120D01*
X691681Y28346D01*
X691835Y27573D01*
X692273Y26918D01*
X692273Y26918D01*
Y21288D01*
X689554D01*
Y17523D01*
X693762D01*
X693790Y17495D01*
X693790Y17495D01*
X694253Y17185D01*
X694799Y17076D01*
X694799Y17076D01*
X714567D01*
X714579Y17079D01*
X714590Y17077D01*
X714852Y17133D01*
X715113Y17185D01*
X715123Y17192D01*
X715135Y17194D01*
X715354Y17346D01*
X715576Y17495D01*
X715583Y17504D01*
X715593Y17511D01*
X726417Y28697D01*
X727151Y28842D01*
X727806Y29280D01*
X728244Y29936D01*
X728398Y30709D01*
X728244Y31482D01*
X727806Y32137D01*
X727151Y32575D01*
X726378Y32729D01*
X725605Y32575D01*
X724950Y32137D01*
X724512Y31482D01*
X724358Y30709D01*
X724364Y30680D01*
X713962Y19931D01*
X698241D01*
Y21288D01*
X695128D01*
Y26918D01*
X695129Y26918D01*
X695567Y27573D01*
X695721Y28346D01*
X695567Y29120D01*
X695129Y29775D01*
X695128Y29775D01*
Y30905D01*
X702978Y38754D01*
X702978Y38754D01*
X703287Y39217D01*
X703396Y39764D01*
X703396Y39764D01*
Y48161D01*
X703287Y48708D01*
X702978Y49171D01*
X702978Y49171D01*
X698272Y53876D01*
Y55623D01*
D02*
G37*
G36*
X368520Y52083D02*
X364976D01*
Y51326D01*
X362992D01*
X362485Y51225D01*
X362055Y50937D01*
X361768Y50507D01*
X361667Y50000D01*
X361768Y49493D01*
X362055Y49063D01*
X362485Y48775D01*
X362992Y48674D01*
X364976D01*
Y47917D01*
X368989D01*
Y41402D01*
X368815D01*
Y39433D01*
X371587D01*
Y37433D01*
X368815D01*
Y35465D01*
X369934D01*
Y34252D01*
X370035Y33745D01*
X370323Y33315D01*
X370753Y33027D01*
X371260Y32926D01*
X371767Y33027D01*
X372197Y33315D01*
X372484Y33745D01*
X372585Y34252D01*
Y35465D01*
X374358D01*
Y35665D01*
X379473D01*
Y37748D01*
X380831D01*
X381338Y37849D01*
X381768Y38136D01*
X382248Y38617D01*
X382677Y38531D01*
X383450Y38685D01*
X384105Y39123D01*
X384543Y39778D01*
X384697Y40551D01*
X384543Y41324D01*
X384105Y41980D01*
X383450Y42417D01*
X382677Y42571D01*
X381904Y42417D01*
X381249Y41980D01*
X380811Y41324D01*
X380713Y40830D01*
X380281Y40399D01*
X379499D01*
Y44377D01*
X383312D01*
Y48142D01*
X374625D01*
Y44377D01*
X376848D01*
Y41202D01*
X374358D01*
Y41402D01*
X371640D01*
Y47917D01*
X374063D01*
Y49000D01*
X369520D01*
Y50000D01*
X368520D01*
Y52083D01*
D02*
G37*
G36*
X92929D02*
X89386D01*
Y51326D01*
X88189D01*
X87682Y51225D01*
X87252Y50937D01*
X86964Y50507D01*
X86863Y50000D01*
X86964Y49493D01*
X87252Y49063D01*
X87682Y48775D01*
X88189Y48674D01*
X89386D01*
Y47917D01*
X93399D01*
Y41402D01*
X93224D01*
Y39433D01*
X95996D01*
Y37433D01*
X93224D01*
Y35465D01*
X94344D01*
Y33465D01*
X94445Y32957D01*
X94732Y32527D01*
X95162Y32240D01*
X95669Y32139D01*
X96176Y32240D01*
X96606Y32527D01*
X96894Y32957D01*
X96995Y33465D01*
Y35465D01*
X98768D01*
Y35665D01*
X103883D01*
Y37748D01*
X105240D01*
X105747Y37849D01*
X106177Y38136D01*
X106658Y38617D01*
X107087Y38531D01*
X107860Y38685D01*
X108515Y39123D01*
X108953Y39778D01*
X109107Y40551D01*
X108953Y41324D01*
X108515Y41980D01*
X107860Y42417D01*
X107087Y42571D01*
X106314Y42417D01*
X105658Y41980D01*
X105220Y41324D01*
X105122Y40830D01*
X104691Y40399D01*
X103908D01*
Y44377D01*
X107721D01*
Y48142D01*
X99035D01*
Y44377D01*
X101257D01*
Y41202D01*
X98768D01*
Y41402D01*
X96050D01*
Y47917D01*
X98472D01*
Y49000D01*
X93929D01*
Y50000D01*
X92929D01*
Y52083D01*
D02*
G37*
G36*
X624394Y34366D02*
X620850D01*
Y33609D01*
X618898D01*
X618898Y33609D01*
X618390Y33508D01*
X617960Y33221D01*
X617673Y32791D01*
X617572Y32283D01*
X617673Y31776D01*
X617960Y31346D01*
X618390Y31059D01*
X618898Y30958D01*
X620850D01*
Y30201D01*
X624863D01*
Y23685D01*
X624689D01*
Y21716D01*
X627461D01*
Y19716D01*
X624689D01*
Y17748D01*
X626234D01*
Y15748D01*
X626334Y15241D01*
X626622Y14811D01*
X627052Y14524D01*
X627559Y14423D01*
X628066Y14524D01*
X628496Y14811D01*
X628784Y15241D01*
X628885Y15748D01*
Y17748D01*
X630232D01*
Y17948D01*
X635347D01*
Y20401D01*
X635506D01*
X636013Y20502D01*
X636443Y20789D01*
X637280Y21626D01*
X637402Y21602D01*
X638175Y21756D01*
X638830Y22194D01*
X639268Y22849D01*
X639422Y23622D01*
X639268Y24395D01*
X638830Y25050D01*
X638175Y25488D01*
X637402Y25642D01*
X636629Y25488D01*
X635973Y25050D01*
X635873Y24900D01*
X635373Y25052D01*
Y26661D01*
X639186D01*
Y30426D01*
X630499D01*
Y26661D01*
X632722D01*
Y23485D01*
X630232D01*
Y23685D01*
X627514D01*
Y30201D01*
X629937D01*
Y31283D01*
X625394D01*
Y32283D01*
X624394D01*
Y34366D01*
D02*
G37*
G36*
X545685D02*
X542142D01*
Y33609D01*
X540551D01*
X540551Y33609D01*
X540044Y33508D01*
X539614Y33221D01*
X539327Y32791D01*
X539226Y32283D01*
X539327Y31776D01*
X539614Y31346D01*
X540044Y31059D01*
X540551Y30958D01*
X542142D01*
Y30201D01*
X546155D01*
Y23685D01*
X545980D01*
Y21716D01*
X548752D01*
Y19716D01*
X545980D01*
Y17748D01*
X547493D01*
Y16535D01*
X547594Y16028D01*
X547882Y15598D01*
X548312Y15311D01*
X548819Y15210D01*
X549326Y15311D01*
X549756Y15598D01*
X550043Y16028D01*
X550144Y16535D01*
Y17748D01*
X551524D01*
Y17948D01*
X556639D01*
Y20007D01*
X556766D01*
X557273Y20108D01*
X557703Y20395D01*
X558540Y21233D01*
X558661Y21208D01*
X559434Y21362D01*
X560090Y21800D01*
X560528Y22455D01*
X560681Y23228D01*
X560528Y24001D01*
X560090Y24657D01*
X559434Y25095D01*
X558661Y25248D01*
X557888Y25095D01*
X557233Y24657D01*
X557164Y24553D01*
X556664Y24705D01*
Y26661D01*
X560477D01*
Y30426D01*
X551791D01*
Y26661D01*
X554013D01*
Y23485D01*
X551524D01*
Y23685D01*
X548806D01*
Y30201D01*
X551228D01*
Y31284D01*
X546685D01*
Y32283D01*
X545685D01*
Y34366D01*
D02*
G37*
G36*
X506315D02*
X502772D01*
Y33609D01*
X501181D01*
X501181Y33609D01*
X500674Y33508D01*
X500244Y33221D01*
X499957Y32791D01*
X499856Y32283D01*
X499957Y31776D01*
X500244Y31346D01*
X500674Y31059D01*
X501181Y30958D01*
X502772D01*
Y30201D01*
X506785D01*
Y23685D01*
X506610D01*
Y21716D01*
X509382D01*
Y19716D01*
X506610D01*
Y17748D01*
X508123D01*
Y16142D01*
X508224Y15634D01*
X508512Y15204D01*
X508942Y14917D01*
X509449Y14816D01*
X509956Y14917D01*
X510386Y15204D01*
X510673Y15634D01*
X510774Y16142D01*
Y17748D01*
X512153D01*
Y17948D01*
X517269D01*
Y20007D01*
X517395D01*
X517903Y20108D01*
X518333Y20395D01*
X519170Y21233D01*
X519291Y21208D01*
X520064Y21362D01*
X520720Y21800D01*
X521158Y22455D01*
X521311Y23228D01*
X521158Y24001D01*
X520720Y24657D01*
X520064Y25095D01*
X519291Y25248D01*
X518518Y25095D01*
X517863Y24657D01*
X517794Y24553D01*
X517294Y24705D01*
Y26661D01*
X521107D01*
Y30426D01*
X512421D01*
Y26661D01*
X514643D01*
Y23485D01*
X512153D01*
Y23685D01*
X509436D01*
Y30201D01*
X511858D01*
Y31284D01*
X507315D01*
Y32283D01*
X506315D01*
Y34366D01*
D02*
G37*
G36*
X427575D02*
X424031D01*
Y33609D01*
X422441D01*
X422441Y33609D01*
X421934Y33508D01*
X421504Y33221D01*
X421216Y32791D01*
X421115Y32283D01*
X421216Y31776D01*
X421504Y31346D01*
X421934Y31059D01*
X422441Y30958D01*
X424031D01*
Y30201D01*
X428045D01*
Y23685D01*
X427870D01*
Y21716D01*
X430642D01*
Y19716D01*
X427870D01*
Y17748D01*
X429383D01*
Y16142D01*
X429484Y15634D01*
X429771Y15204D01*
X430201Y14917D01*
X430709Y14816D01*
X431216Y14917D01*
X431646Y15204D01*
X431933Y15634D01*
X432034Y16142D01*
Y17748D01*
X433413D01*
Y17948D01*
X438528D01*
Y20401D01*
X439049D01*
X439556Y20502D01*
X439986Y20789D01*
X440824Y21626D01*
X440945Y21602D01*
X441718Y21756D01*
X442373Y22194D01*
X442811Y22849D01*
X442965Y23622D01*
X442811Y24395D01*
X442373Y25050D01*
X441718Y25488D01*
X440945Y25642D01*
X440172Y25488D01*
X439517Y25050D01*
X439079Y24395D01*
X439054Y24270D01*
X438554Y24319D01*
Y26661D01*
X442367D01*
Y30426D01*
X433680D01*
Y26661D01*
X435903D01*
Y23485D01*
X433413D01*
Y23685D01*
X430695D01*
Y30201D01*
X433118D01*
Y31284D01*
X428575D01*
Y32283D01*
X427575D01*
Y34366D01*
D02*
G37*
G36*
X388205D02*
X384661D01*
Y33609D01*
X382677D01*
X382677Y33609D01*
X382170Y33508D01*
X381740Y33221D01*
X381453Y32791D01*
X381352Y32283D01*
X381453Y31776D01*
X381740Y31346D01*
X382170Y31059D01*
X382677Y30958D01*
X384661D01*
Y30201D01*
X388674D01*
Y23685D01*
X388500D01*
Y21716D01*
X391272D01*
Y19716D01*
X388500D01*
Y17748D01*
X390013D01*
Y16142D01*
X390114Y15634D01*
X390401Y15204D01*
X390831Y14917D01*
X391339Y14816D01*
X391846Y14917D01*
X392276Y15204D01*
X392563Y15634D01*
X392664Y16142D01*
Y17748D01*
X394043D01*
Y17948D01*
X399158D01*
Y20007D01*
X399285D01*
X399793Y20108D01*
X400222Y20395D01*
X401060Y21233D01*
X401181Y21208D01*
X401954Y21362D01*
X402609Y21800D01*
X403047Y22455D01*
X403201Y23228D01*
X403047Y24001D01*
X402609Y24657D01*
X401954Y25095D01*
X401181Y25248D01*
X400408Y25095D01*
X399753Y24657D01*
X399684Y24553D01*
X399184Y24705D01*
Y26661D01*
X402997D01*
Y30426D01*
X394310D01*
Y26661D01*
X396533D01*
Y23485D01*
X394043D01*
Y23685D01*
X391325D01*
Y30201D01*
X393748D01*
Y31284D01*
X389205D01*
Y32283D01*
X388205D01*
Y34366D01*
D02*
G37*
G36*
X348835D02*
X345291D01*
Y33609D01*
X343307D01*
X343307Y33609D01*
X342800Y33508D01*
X342370Y33221D01*
X342083Y32791D01*
X341982Y32283D01*
X342083Y31776D01*
X342370Y31346D01*
X342800Y31059D01*
X343307Y30958D01*
X345291D01*
Y30201D01*
X349304D01*
Y23685D01*
X349130D01*
Y21716D01*
X351902D01*
Y19716D01*
X349130D01*
Y17748D01*
X350643D01*
Y16535D01*
X350744Y16028D01*
X351031Y15598D01*
X351461Y15311D01*
X351969Y15210D01*
X352476Y15311D01*
X352906Y15598D01*
X353193Y16028D01*
X353294Y16535D01*
Y17748D01*
X354673D01*
Y17948D01*
X359788D01*
Y20007D01*
X359915D01*
X360422Y20108D01*
X360852Y20395D01*
X361690Y21233D01*
X361811Y21208D01*
X362584Y21362D01*
X363239Y21800D01*
X363677Y22455D01*
X363831Y23228D01*
X363677Y24001D01*
X363239Y24657D01*
X362584Y25095D01*
X361811Y25248D01*
X361038Y25095D01*
X360383Y24657D01*
X360314Y24553D01*
X359814Y24705D01*
Y26661D01*
X363627D01*
Y30426D01*
X354940D01*
Y26661D01*
X357163D01*
Y23485D01*
X354673D01*
Y23685D01*
X351955D01*
Y30201D01*
X354378D01*
Y31284D01*
X349835D01*
Y32283D01*
X348835D01*
Y34366D01*
D02*
G37*
G36*
X309465D02*
X305921D01*
Y33609D01*
X304331D01*
X304331Y33609D01*
X303823Y33508D01*
X303394Y33221D01*
X303106Y32791D01*
X303005Y32283D01*
X303106Y31776D01*
X303394Y31346D01*
X303823Y31059D01*
X304331Y30958D01*
X305921D01*
Y30201D01*
X309934D01*
Y23685D01*
X309760D01*
Y21716D01*
X312531D01*
Y19716D01*
X309760D01*
Y17748D01*
X311273D01*
Y16142D01*
X311374Y15634D01*
X311661Y15204D01*
X312091Y14917D01*
X312598Y14816D01*
X313106Y14917D01*
X313536Y15204D01*
X313823Y15634D01*
X313924Y16142D01*
Y17748D01*
X315303D01*
Y17948D01*
X320418D01*
Y20007D01*
X320545D01*
X321052Y20108D01*
X321482Y20395D01*
X322320Y21233D01*
X322441Y21208D01*
X323214Y21362D01*
X323869Y21800D01*
X324307Y22455D01*
X324461Y23228D01*
X324307Y24001D01*
X323869Y24657D01*
X323214Y25095D01*
X322441Y25248D01*
X321668Y25095D01*
X321013Y24657D01*
X320944Y24553D01*
X320444Y24705D01*
Y26661D01*
X324257D01*
Y30426D01*
X315570D01*
Y26661D01*
X317793D01*
Y23485D01*
X315303D01*
Y23685D01*
X312585D01*
Y30201D01*
X315008D01*
Y31284D01*
X310465D01*
Y32283D01*
X309465D01*
Y34366D01*
D02*
G37*
G36*
X270094D02*
X266551D01*
Y33609D01*
X264961D01*
X264961Y33609D01*
X264453Y33508D01*
X264023Y33221D01*
X263736Y32791D01*
X263635Y32283D01*
X263736Y31776D01*
X264023Y31346D01*
X264453Y31059D01*
X264961Y30958D01*
X266551D01*
Y30201D01*
X270564D01*
Y23685D01*
X270390D01*
Y21716D01*
X273161D01*
Y19716D01*
X270390D01*
Y17748D01*
X271509D01*
Y16142D01*
X271610Y15634D01*
X271897Y15204D01*
X272327Y14917D01*
X272835Y14816D01*
X273342Y14917D01*
X273772Y15204D01*
X274059Y15634D01*
X274160Y16142D01*
Y17748D01*
X275933D01*
Y17948D01*
X281048D01*
Y19613D01*
X281175D01*
X281682Y19714D01*
X282112Y20002D01*
X282950Y20839D01*
X283071Y20815D01*
X283844Y20968D01*
X284499Y21406D01*
X284937Y22062D01*
X285091Y22835D01*
X284937Y23608D01*
X284499Y24263D01*
X283844Y24701D01*
X283071Y24855D01*
X282298Y24701D01*
X281643Y24263D01*
X281574Y24160D01*
X281073Y24311D01*
Y26661D01*
X284887D01*
Y30426D01*
X276200D01*
Y26661D01*
X278423D01*
Y23485D01*
X275933D01*
Y23685D01*
X273215D01*
Y30201D01*
X275638D01*
Y31284D01*
X271094D01*
Y32283D01*
X270094D01*
Y34366D01*
D02*
G37*
G36*
X230724D02*
X227181D01*
Y33609D01*
X225591D01*
X225590Y33609D01*
X225083Y33508D01*
X224653Y33221D01*
X224366Y32791D01*
X224265Y32283D01*
X224366Y31776D01*
X224653Y31346D01*
X225083Y31059D01*
X225591Y30958D01*
X227181D01*
Y30201D01*
X231194D01*
Y23685D01*
X231020D01*
Y21716D01*
X233791D01*
Y19716D01*
X231020D01*
Y17748D01*
X232533D01*
Y15748D01*
X232634Y15241D01*
X232921Y14811D01*
X233351Y14524D01*
X233858Y14423D01*
X234366Y14524D01*
X234795Y14811D01*
X235083Y15241D01*
X235184Y15748D01*
Y17748D01*
X236563D01*
Y17948D01*
X241678D01*
Y20007D01*
X241805D01*
X242312Y20108D01*
X242742Y20395D01*
X243580Y21233D01*
X243701Y21208D01*
X244474Y21362D01*
X245129Y21800D01*
X245567Y22455D01*
X245721Y23228D01*
X245567Y24001D01*
X245129Y24657D01*
X244474Y25095D01*
X243701Y25248D01*
X242928Y25095D01*
X242272Y24657D01*
X242203Y24553D01*
X241703Y24705D01*
Y26661D01*
X245516D01*
Y30426D01*
X236830D01*
Y26661D01*
X239053D01*
Y23485D01*
X236563D01*
Y23685D01*
X233845D01*
Y30201D01*
X236268D01*
Y31284D01*
X231724D01*
Y32283D01*
X230724D01*
Y34366D01*
D02*
G37*
G36*
X590598Y34366D02*
X587055D01*
Y33283D01*
X590598D01*
Y34366D01*
D02*
G37*
G36*
X551228Y34366D02*
X547685D01*
Y33283D01*
X551228D01*
Y34366D01*
D02*
G37*
G36*
X511858D02*
X508315D01*
Y33283D01*
X511858D01*
Y34366D01*
D02*
G37*
G36*
X472488D02*
X468945D01*
Y33283D01*
X472488D01*
Y34366D01*
D02*
G37*
G36*
X196898Y34366D02*
X193354D01*
Y33283D01*
X196898D01*
Y34366D01*
D02*
G37*
G36*
X315008Y34366D02*
X311465D01*
Y33283D01*
X315008D01*
Y34366D01*
D02*
G37*
G36*
X433118D02*
X429575D01*
Y33283D01*
X433118D01*
Y34366D01*
D02*
G37*
G36*
X393748D02*
X390205D01*
Y33283D01*
X393748D01*
Y34366D01*
D02*
G37*
G36*
X354378D02*
X350835D01*
Y33283D01*
X354378D01*
Y34366D01*
D02*
G37*
G36*
X275638D02*
X272094D01*
Y33283D01*
X275638D01*
Y34366D01*
D02*
G37*
G36*
X236268D02*
X232724D01*
Y33283D01*
X236268D01*
Y34366D01*
D02*
G37*
G36*
X118126Y34366D02*
X114583D01*
Y33283D01*
X118126D01*
Y34366D01*
D02*
G37*
G36*
X157527D02*
X153984D01*
Y33283D01*
X157527D01*
Y34366D01*
D02*
G37*
G36*
X669307Y34366D02*
X665764D01*
Y33283D01*
X669307D01*
Y34366D01*
D02*
G37*
G36*
X629937D02*
X626394D01*
Y33283D01*
X629937D01*
Y34366D01*
D02*
G37*
G36*
X462052Y55623D02*
X453365D01*
Y51858D01*
X459575D01*
X459643Y51756D01*
X473023Y38376D01*
Y36506D01*
X473023Y36506D01*
X473050Y36368D01*
Y34141D01*
X479718D01*
X482431Y31428D01*
Y29924D01*
X482237Y29746D01*
X481737Y29966D01*
Y30426D01*
X473050D01*
Y26661D01*
X475273D01*
Y23485D01*
X472783D01*
Y23685D01*
X470066D01*
Y30201D01*
X472488D01*
Y31284D01*
X467945D01*
Y32283D01*
X466945D01*
Y34366D01*
X463402D01*
Y33609D01*
X461811D01*
X461811Y33609D01*
X461304Y33508D01*
X460874Y33221D01*
X460586Y32791D01*
X460486Y32283D01*
X460586Y31776D01*
X460874Y31346D01*
X461304Y31059D01*
X461811Y30958D01*
X463402D01*
Y30201D01*
X467415D01*
Y23685D01*
X467240D01*
Y21716D01*
X470012D01*
Y19716D01*
X467240D01*
Y17748D01*
X468753D01*
Y15748D01*
X468854Y15241D01*
X469141Y14811D01*
X469571Y14524D01*
X470079Y14423D01*
X470586Y14524D01*
X471016Y14811D01*
X471303Y15241D01*
X471404Y15748D01*
Y17748D01*
X472783D01*
Y17948D01*
X477898D01*
Y20007D01*
X478025D01*
X478533Y20108D01*
X478963Y20395D01*
X479800Y21233D01*
X479921Y21208D01*
X480694Y21362D01*
X481350Y21800D01*
X481787Y22455D01*
X481941Y23228D01*
X481787Y24001D01*
X481350Y24657D01*
X480694Y25095D01*
X479921Y25248D01*
X479148Y25095D01*
X478493Y24657D01*
X478424Y24553D01*
X477924Y24705D01*
Y26661D01*
X481737D01*
Y27055D01*
X482237Y27207D01*
X482430Y26918D01*
X483085Y26480D01*
X483858Y26327D01*
X484631Y26480D01*
X485287Y26918D01*
X485724Y27573D01*
X485878Y28346D01*
X485724Y29120D01*
X485287Y29775D01*
X485286Y29775D01*
Y32020D01*
X485177Y32566D01*
X484868Y33029D01*
X484868Y33029D01*
X481737Y36160D01*
Y37906D01*
X475878D01*
Y38967D01*
X475769Y39513D01*
X475460Y39976D01*
X475460Y39976D01*
X462055Y53381D01*
X462052Y53395D01*
Y55623D01*
D02*
G37*
G36*
X186461D02*
X177775D01*
Y51858D01*
X183984D01*
X184052Y51756D01*
X197432Y38376D01*
Y36506D01*
X197432Y36506D01*
X197460Y36368D01*
Y34141D01*
X204128D01*
X207405Y30863D01*
Y29837D01*
X207189Y29513D01*
X207035Y28740D01*
X207189Y27967D01*
X207627Y27312D01*
X208282Y26874D01*
X209055Y26720D01*
X209828Y26874D01*
X210483Y27312D01*
X210921Y27967D01*
X211075Y28740D01*
X210921Y29513D01*
X210483Y30169D01*
X210260Y30318D01*
Y31455D01*
X210260Y31455D01*
X210152Y32001D01*
X209842Y32464D01*
X209842Y32464D01*
X206146Y36160D01*
Y37906D01*
X200287D01*
Y38967D01*
X200179Y39513D01*
X199869Y39976D01*
X199869Y39976D01*
X186464Y53381D01*
X186461Y53395D01*
Y55623D01*
D02*
G37*
G36*
X764173Y29579D02*
X763400Y29425D01*
X762745Y28987D01*
X762307Y28332D01*
X762153Y27559D01*
X762297Y26835D01*
X762129Y26604D01*
X761950Y26420D01*
X744796D01*
Y27670D01*
X740440D01*
Y22724D01*
X741395D01*
Y20741D01*
X740834D01*
Y12645D01*
X748930D01*
Y20741D01*
X743842D01*
Y22724D01*
X744796D01*
Y23973D01*
X762598D01*
X763067Y24067D01*
X763464Y24332D01*
X764795Y25663D01*
X764946Y25693D01*
X765601Y26131D01*
X766039Y26786D01*
X766193Y27559D01*
X766039Y28332D01*
X765601Y28987D01*
X764946Y29425D01*
X764173Y29579D01*
D02*
G37*
G36*
X658902Y55623D02*
X650216D01*
Y51858D01*
X656404D01*
X656493Y51724D01*
X669842Y38376D01*
Y36506D01*
X669842Y36506D01*
X669869Y36368D01*
Y34141D01*
X676537D01*
X680240Y30438D01*
Y29443D01*
X680024Y29120D01*
X679870Y28346D01*
X680024Y27573D01*
X680462Y26918D01*
X681117Y26480D01*
X681890Y26327D01*
X682663Y26480D01*
X683318Y26918D01*
X683756Y27573D01*
X683910Y28346D01*
X683756Y29120D01*
X683318Y29775D01*
X683095Y29924D01*
Y31029D01*
X682986Y31576D01*
X682677Y32039D01*
X682677Y32039D01*
X678556Y36160D01*
Y37906D01*
X672697D01*
Y38967D01*
X672697Y38967D01*
X672588Y39513D01*
X672279Y39976D01*
X672279Y39976D01*
X658913Y53342D01*
X658902Y53395D01*
Y55623D01*
D02*
G37*
G36*
X619532D02*
X610846D01*
Y51858D01*
X617034D01*
X617123Y51724D01*
X630472Y38376D01*
Y36506D01*
X630472Y36506D01*
X630499Y36368D01*
Y34141D01*
X637167D01*
X640870Y30438D01*
Y29443D01*
X640654Y29120D01*
X640500Y28346D01*
X640654Y27573D01*
X641091Y26918D01*
X641747Y26480D01*
X642520Y26327D01*
X643293Y26480D01*
X643948Y26918D01*
X644386Y27573D01*
X644540Y28346D01*
X644386Y29120D01*
X643948Y29775D01*
X643725Y29924D01*
Y31029D01*
X643616Y31576D01*
X643307Y32039D01*
X643307Y32039D01*
X639186Y36160D01*
Y37906D01*
X633327D01*
Y38967D01*
X633218Y39513D01*
X632909Y39976D01*
X632908Y39976D01*
X619543Y53342D01*
X619532Y53395D01*
Y55623D01*
D02*
G37*
G36*
X580162D02*
X571476D01*
Y51858D01*
X577685D01*
X577753Y51756D01*
X591133Y38376D01*
Y36506D01*
X591133Y36506D01*
X591161Y36368D01*
Y34141D01*
X597828D01*
X601500Y30470D01*
Y29443D01*
X601284Y29120D01*
X601130Y28346D01*
X601284Y27573D01*
X601721Y26918D01*
X602377Y26480D01*
X603150Y26327D01*
X603923Y26480D01*
X604578Y26918D01*
X605016Y27573D01*
X605169Y28346D01*
X605016Y29120D01*
X604578Y29775D01*
X604355Y29924D01*
Y31061D01*
X604246Y31607D01*
X603937Y32070D01*
X603937Y32070D01*
X599847Y36160D01*
Y37906D01*
X593988D01*
Y38967D01*
X593879Y39513D01*
X593570Y39976D01*
X593570Y39976D01*
X580165Y53381D01*
X580162Y53395D01*
Y55623D01*
D02*
G37*
G36*
X540792D02*
X532105D01*
Y51858D01*
X538315D01*
X538383Y51756D01*
X551763Y38376D01*
Y36506D01*
X551763Y36506D01*
X551791Y36368D01*
Y34141D01*
X558458D01*
X562130Y30470D01*
Y29443D01*
X561913Y29120D01*
X561760Y28346D01*
X561913Y27573D01*
X562351Y26918D01*
X563006Y26480D01*
X563779Y26327D01*
X564552Y26480D01*
X565208Y26918D01*
X565646Y27573D01*
X565799Y28346D01*
X565646Y29120D01*
X565208Y29775D01*
X564985Y29924D01*
Y31061D01*
X564876Y31607D01*
X564567Y32070D01*
X564567Y32070D01*
X560477Y36160D01*
Y37906D01*
X554618D01*
Y38967D01*
X554509Y39513D01*
X554200Y39976D01*
X554200Y39976D01*
X540795Y53381D01*
X540792Y53395D01*
Y55623D01*
D02*
G37*
G36*
X501422D02*
X492735D01*
Y51858D01*
X498945D01*
X499013Y51756D01*
X512393Y38376D01*
Y36506D01*
X512393Y36506D01*
X512421Y36368D01*
Y34141D01*
X519088D01*
X522760Y30470D01*
Y29443D01*
X522543Y29120D01*
X522390Y28346D01*
X522543Y27573D01*
X522981Y26918D01*
X523636Y26480D01*
X524409Y26327D01*
X525182Y26480D01*
X525838Y26918D01*
X526276Y27573D01*
X526429Y28346D01*
X526276Y29120D01*
X525838Y29775D01*
X525615Y29924D01*
Y31061D01*
X525506Y31607D01*
X525196Y32070D01*
X525196Y32070D01*
X521107Y36160D01*
Y37906D01*
X515248D01*
Y38967D01*
X515139Y39513D01*
X514830Y39976D01*
X514830Y39976D01*
X501425Y53381D01*
X501422Y53395D01*
Y55623D01*
D02*
G37*
G36*
X422682D02*
X413995D01*
Y51858D01*
X420205D01*
X420272Y51756D01*
X433653Y38376D01*
Y36506D01*
X433653Y36506D01*
X433680Y36368D01*
Y34141D01*
X440348D01*
X444020Y30470D01*
Y29443D01*
X443803Y29120D01*
X443649Y28346D01*
X443803Y27573D01*
X444241Y26918D01*
X444896Y26480D01*
X445669Y26327D01*
X446442Y26480D01*
X447098Y26918D01*
X447535Y27573D01*
X447689Y28346D01*
X447535Y29120D01*
X447098Y29775D01*
X446874Y29924D01*
Y31061D01*
X446874Y31061D01*
X446766Y31607D01*
X446456Y32070D01*
X446456Y32070D01*
X442367Y36160D01*
Y37906D01*
X436508D01*
Y38967D01*
X436399Y39513D01*
X436090Y39976D01*
X436090Y39976D01*
X422685Y53381D01*
X422682Y53395D01*
Y55623D01*
D02*
G37*
G36*
X383312Y55623D02*
X374625D01*
Y51858D01*
X380835D01*
X380902Y51756D01*
X394283Y38376D01*
Y36506D01*
X394283Y36506D01*
X394310Y36368D01*
Y34141D01*
X400978D01*
X404649Y30470D01*
Y29443D01*
X404433Y29120D01*
X404279Y28346D01*
X404433Y27573D01*
X404871Y26918D01*
X405526Y26480D01*
X406299Y26327D01*
X407072Y26480D01*
X407727Y26918D01*
X408165Y27573D01*
X408319Y28346D01*
X408165Y29120D01*
X407727Y29775D01*
X407504Y29924D01*
Y31061D01*
X407504Y31061D01*
X407396Y31607D01*
X407086Y32070D01*
X407086Y32070D01*
X402997Y36160D01*
Y37906D01*
X397138D01*
Y38967D01*
X397029Y39513D01*
X396720Y39976D01*
X396720Y39976D01*
X383315Y53381D01*
X383312Y53395D01*
Y55623D01*
D02*
G37*
G36*
X343942Y55623D02*
X335255D01*
Y51858D01*
X341465D01*
X341532Y51756D01*
X354913Y38376D01*
Y36506D01*
X354913Y36506D01*
X354940Y36368D01*
Y34141D01*
X361608D01*
X365279Y30470D01*
Y29443D01*
X365063Y29120D01*
X364909Y28346D01*
X365063Y27573D01*
X365501Y26918D01*
X366156Y26480D01*
X366929Y26327D01*
X367702Y26480D01*
X368357Y26918D01*
X368795Y27573D01*
X368949Y28346D01*
X368795Y29120D01*
X368357Y29775D01*
X368134Y29924D01*
Y31061D01*
X368134Y31061D01*
X368025Y31607D01*
X367716Y32070D01*
X367716Y32070D01*
X363627Y36160D01*
Y37906D01*
X357768D01*
Y38967D01*
X357659Y39513D01*
X357349Y39976D01*
X357349Y39976D01*
X343945Y53381D01*
X343942Y53395D01*
Y55623D01*
D02*
G37*
G36*
X304572D02*
X295885D01*
Y51858D01*
X302095D01*
X302162Y51756D01*
X315543Y38376D01*
Y36506D01*
X315543Y36506D01*
X315570Y36368D01*
Y34141D01*
X322238D01*
X325909Y30470D01*
Y29443D01*
X325693Y29120D01*
X325539Y28346D01*
X325693Y27573D01*
X326131Y26918D01*
X326786Y26480D01*
X327559Y26327D01*
X328332Y26480D01*
X328987Y26918D01*
X329425Y27573D01*
X329579Y28346D01*
X329425Y29120D01*
X328987Y29775D01*
X328764Y29924D01*
Y31061D01*
X328656Y31607D01*
X328346Y32070D01*
X328346Y32070D01*
X324257Y36160D01*
Y37906D01*
X318397D01*
Y38967D01*
X318289Y39513D01*
X317979Y39976D01*
X317979Y39976D01*
X304574Y53381D01*
X304572Y53395D01*
Y55623D01*
D02*
G37*
G36*
X265201D02*
X256515D01*
Y51858D01*
X262724D01*
X262792Y51756D01*
X276173Y38376D01*
Y36506D01*
X276172Y36506D01*
X276200Y36368D01*
Y34141D01*
X282868D01*
X286539Y30470D01*
Y29443D01*
X286323Y29120D01*
X286169Y28346D01*
X286323Y27573D01*
X286761Y26918D01*
X287416Y26480D01*
X288189Y26327D01*
X288962Y26480D01*
X289617Y26918D01*
X290055Y27573D01*
X290209Y28346D01*
X290055Y29120D01*
X289617Y29775D01*
X289394Y29924D01*
Y31061D01*
X289285Y31607D01*
X288976Y32070D01*
X288976Y32070D01*
X284887Y36160D01*
Y37906D01*
X279027D01*
Y38967D01*
X278919Y39513D01*
X278609Y39976D01*
X278609Y39976D01*
X265204Y53381D01*
X265201Y53395D01*
Y55623D01*
D02*
G37*
G36*
X225832D02*
X217145D01*
Y51858D01*
X223354D01*
X223422Y51756D01*
X236803Y38376D01*
Y36506D01*
X236803Y36506D01*
X236830Y36368D01*
Y34141D01*
X243498D01*
X247169Y30470D01*
Y29443D01*
X246953Y29120D01*
X246799Y28346D01*
X246953Y27573D01*
X247391Y26918D01*
X248046Y26480D01*
X248819Y26327D01*
X249592Y26480D01*
X250247Y26918D01*
X250685Y27573D01*
X250839Y28346D01*
X250685Y29120D01*
X250247Y29775D01*
X250024Y29924D01*
Y31061D01*
X249915Y31607D01*
X249606Y32070D01*
X249606Y32070D01*
X245516Y36160D01*
Y37906D01*
X239657D01*
Y38967D01*
X239549Y39513D01*
X239239Y39976D01*
X239239Y39976D01*
X225834Y53381D01*
X225832Y53395D01*
Y55623D01*
D02*
G37*
G36*
X147091D02*
X138405D01*
Y51858D01*
X144614D01*
X144682Y51756D01*
X158062Y38376D01*
Y36506D01*
X158062Y36506D01*
X158090Y36368D01*
Y34141D01*
X164758D01*
X168429Y30470D01*
Y29443D01*
X168213Y29120D01*
X168059Y28346D01*
X168213Y27573D01*
X168650Y26918D01*
X169306Y26480D01*
X170079Y26327D01*
X170852Y26480D01*
X171507Y26918D01*
X171945Y27573D01*
X172099Y28346D01*
X171945Y29120D01*
X171507Y29775D01*
X171284Y29924D01*
Y31061D01*
X171175Y31607D01*
X170866Y32070D01*
X170866Y32070D01*
X166776Y36160D01*
Y37906D01*
X160917D01*
Y38967D01*
X160809Y39513D01*
X160499Y39976D01*
X160499Y39976D01*
X147094Y53381D01*
X147091Y53395D01*
Y55623D01*
D02*
G37*
G36*
X107721Y55623D02*
X99035D01*
Y51858D01*
X105223D01*
X105312Y51724D01*
X118661Y38376D01*
Y36506D01*
X118661Y36506D01*
X118688Y36368D01*
Y34141D01*
X125356D01*
X129059Y30438D01*
Y29443D01*
X128842Y29120D01*
X128689Y28346D01*
X128842Y27573D01*
X129280Y26918D01*
X129936Y26480D01*
X130709Y26327D01*
X131482Y26480D01*
X132137Y26918D01*
X132575Y27573D01*
X132729Y28346D01*
X132575Y29120D01*
X132137Y29775D01*
X131914Y29924D01*
Y31029D01*
X131805Y31576D01*
X131496Y32039D01*
X131496Y32039D01*
X127375Y36160D01*
Y37906D01*
X121516D01*
Y38967D01*
X121516Y38967D01*
X121407Y39513D01*
X121098Y39976D01*
X121098Y39976D01*
X107732Y53342D01*
X107721Y53395D01*
Y55623D01*
D02*
G37*
G36*
X663764Y34366D02*
X660220D01*
Y33609D01*
X658268D01*
X657760Y33508D01*
X657331Y33221D01*
X657043Y32791D01*
X656942Y32283D01*
X657043Y31776D01*
X657331Y31346D01*
X657760Y31059D01*
X658268Y30958D01*
X660220D01*
Y30201D01*
X664234D01*
Y23685D01*
X664059D01*
Y21716D01*
X666831D01*
Y19716D01*
X664059D01*
Y17748D01*
X665604D01*
Y15748D01*
X665705Y15241D01*
X665992Y14811D01*
X666422Y14524D01*
X666929Y14423D01*
X667436Y14524D01*
X667866Y14811D01*
X668154Y15241D01*
X668255Y15748D01*
Y17748D01*
X669602D01*
Y17948D01*
X674717D01*
Y19391D01*
X675441D01*
X675948Y19492D01*
X676378Y19779D01*
X678225Y21626D01*
X678346Y21602D01*
X679119Y21756D01*
X679775Y22194D01*
X680213Y22849D01*
X680366Y23622D01*
X680213Y24395D01*
X679775Y25050D01*
X679119Y25488D01*
X678346Y25642D01*
X677573Y25488D01*
X676918Y25050D01*
X676480Y24395D01*
X676327Y23622D01*
X676351Y23501D01*
X675243Y22393D01*
X674743Y22600D01*
Y26661D01*
X678556D01*
Y30426D01*
X669869D01*
Y26661D01*
X672092D01*
Y23485D01*
X669602D01*
Y23685D01*
X666885D01*
Y30201D01*
X669307D01*
Y31283D01*
X664764D01*
Y32283D01*
X663764D01*
Y34366D01*
D02*
G37*
G36*
X585055Y34366D02*
X581512D01*
Y33609D01*
X579921D01*
X579414Y33508D01*
X578984Y33221D01*
X578697Y32791D01*
X578596Y32283D01*
X578697Y31776D01*
X578984Y31346D01*
X579414Y31059D01*
X579921Y30958D01*
X581512D01*
Y30201D01*
X585525D01*
Y23685D01*
X585350D01*
Y21716D01*
X588122D01*
Y19716D01*
X585350D01*
Y17748D01*
X586864D01*
Y15748D01*
X586964Y15241D01*
X587252Y14811D01*
X587682Y14524D01*
X588189Y14423D01*
X588696Y14524D01*
X589126Y14811D01*
X589414Y15241D01*
X589514Y15748D01*
Y17748D01*
X590894D01*
Y17948D01*
X596009D01*
Y20007D01*
X596529D01*
X597037Y20108D01*
X597467Y20395D01*
X598304Y21233D01*
X598425Y21208D01*
X599198Y21362D01*
X599854Y21800D01*
X600291Y22455D01*
X600445Y23228D01*
X600291Y24001D01*
X599854Y24657D01*
X599198Y25095D01*
X598425Y25248D01*
X597652Y25095D01*
X596997Y24657D01*
X596559Y24001D01*
X596534Y23876D01*
X596034Y23925D01*
Y26661D01*
X599847D01*
Y30426D01*
X591161D01*
Y26661D01*
X593383D01*
Y23485D01*
X590894D01*
Y23685D01*
X588176D01*
Y30201D01*
X590598D01*
Y31284D01*
X586055D01*
Y32283D01*
X585055D01*
Y34366D01*
D02*
G37*
G36*
X191354D02*
X187811D01*
Y33609D01*
X185827D01*
X185319Y33508D01*
X184889Y33221D01*
X184602Y32791D01*
X184501Y32283D01*
X184602Y31776D01*
X184889Y31346D01*
X185319Y31059D01*
X185827Y30958D01*
X187811D01*
Y30201D01*
X191824D01*
Y23685D01*
X191650D01*
Y21716D01*
X194421D01*
Y19716D01*
X191650D01*
Y17748D01*
X192769D01*
Y16142D01*
X192870Y15634D01*
X193157Y15204D01*
X193587Y14917D01*
X194095Y14816D01*
X194602Y14917D01*
X195032Y15204D01*
X195319Y15634D01*
X195420Y16142D01*
Y17748D01*
X197193D01*
Y17948D01*
X202308D01*
Y20007D01*
X202435D01*
X202942Y20108D01*
X203372Y20395D01*
X204209Y21233D01*
X204331Y21208D01*
X205104Y21362D01*
X205759Y21800D01*
X206197Y22455D01*
X206351Y23228D01*
X206197Y24001D01*
X205759Y24657D01*
X205104Y25095D01*
X204331Y25248D01*
X203558Y25095D01*
X202902Y24657D01*
X202833Y24553D01*
X202333Y24705D01*
Y26661D01*
X206146D01*
Y30426D01*
X197460D01*
Y26661D01*
X199682D01*
Y23485D01*
X197193D01*
Y23685D01*
X194475D01*
Y30201D01*
X196898D01*
Y31284D01*
X192354D01*
Y32283D01*
X191354D01*
Y34366D01*
D02*
G37*
G36*
X151984D02*
X148441D01*
Y33609D01*
X146457D01*
X145949Y33508D01*
X145519Y33221D01*
X145232Y32791D01*
X145131Y32283D01*
X145232Y31776D01*
X145519Y31346D01*
X145949Y31059D01*
X146457Y30958D01*
X148441D01*
Y30201D01*
X152454D01*
Y23685D01*
X152279D01*
Y21716D01*
X155051D01*
Y19716D01*
X152279D01*
Y17748D01*
X153793D01*
Y16142D01*
X153893Y15634D01*
X154181Y15204D01*
X154611Y14917D01*
X155118Y14816D01*
X155625Y14917D01*
X156055Y15204D01*
X156343Y15634D01*
X156444Y16142D01*
Y17748D01*
X157823D01*
Y17948D01*
X162938D01*
Y20060D01*
X163178Y20108D01*
X163608Y20395D01*
X164446Y21233D01*
X164567Y21208D01*
X165340Y21362D01*
X165995Y21800D01*
X166433Y22455D01*
X166587Y23228D01*
X166433Y24001D01*
X165995Y24657D01*
X165340Y25095D01*
X164567Y25248D01*
X163794Y25095D01*
X163463Y24873D01*
X162963Y25141D01*
Y26661D01*
X166776D01*
Y30426D01*
X158090D01*
Y26661D01*
X160312D01*
Y23485D01*
X157823D01*
Y23685D01*
X155105D01*
Y30201D01*
X157527D01*
Y31284D01*
X152984D01*
Y32283D01*
X151984D01*
Y34366D01*
D02*
G37*
G36*
X112583D02*
X109039D01*
Y33609D01*
X107087D01*
X106579Y33508D01*
X106149Y33221D01*
X105862Y32791D01*
X105761Y32283D01*
X105862Y31776D01*
X106149Y31346D01*
X106579Y31059D01*
X107087Y30958D01*
X109039D01*
Y30201D01*
X113052D01*
Y23685D01*
X112878D01*
Y21716D01*
X115650D01*
Y19716D01*
X112878D01*
Y17748D01*
X114029D01*
Y16142D01*
X114130Y15634D01*
X114417Y15204D01*
X114847Y14917D01*
X115354Y14816D01*
X115862Y14917D01*
X116292Y15204D01*
X116579Y15634D01*
X116680Y16142D01*
Y17748D01*
X118421D01*
Y17948D01*
X123536D01*
Y20007D01*
X123695D01*
X124202Y20108D01*
X124632Y20395D01*
X125469Y21233D01*
X125591Y21208D01*
X126364Y21362D01*
X127019Y21800D01*
X127457Y22455D01*
X127611Y23228D01*
X127457Y24001D01*
X127019Y24657D01*
X126364Y25095D01*
X125591Y25248D01*
X124818Y25095D01*
X124162Y24657D01*
X124062Y24506D01*
X123562Y24658D01*
Y26661D01*
X127375D01*
Y30426D01*
X118688D01*
Y26661D01*
X120911D01*
Y23485D01*
X118421D01*
Y23685D01*
X115703D01*
Y30201D01*
X118126D01*
Y31284D01*
X113583D01*
Y32283D01*
X112583D01*
Y34366D01*
D02*
G37*
G36*
X708661Y38243D02*
X706961Y38076D01*
X705326Y37580D01*
X703819Y36775D01*
X702498Y35691D01*
X701414Y34370D01*
X700609Y32863D01*
X700113Y31228D01*
X699945Y29528D01*
X700113Y27827D01*
X700609Y26192D01*
X701414Y24685D01*
X702498Y23364D01*
X703819Y22280D01*
X705326Y21475D01*
X706961Y20979D01*
X708661Y20812D01*
X710362Y20979D01*
X711997Y21475D01*
X713504Y22280D01*
X714824Y23364D01*
X715908Y24685D01*
X716714Y26192D01*
X717210Y27827D01*
X717377Y29528D01*
X717210Y31228D01*
X716714Y32863D01*
X715908Y34370D01*
X714824Y35691D01*
X713504Y36775D01*
X711997Y37580D01*
X710362Y38076D01*
X708661Y38243D01*
D02*
G37*
G36*
X78740D02*
X77040Y38076D01*
X75405Y37580D01*
X73898Y36775D01*
X72577Y35691D01*
X71493Y34370D01*
X70688Y32863D01*
X70192Y31228D01*
X70024Y29528D01*
X70192Y27827D01*
X70688Y26192D01*
X71493Y24685D01*
X72577Y23364D01*
X73898Y22280D01*
X75405Y21475D01*
X77040Y20979D01*
X78740Y20812D01*
X80441Y20979D01*
X82076Y21475D01*
X83583Y22280D01*
X84903Y23364D01*
X85987Y24685D01*
X86793Y26192D01*
X87289Y27827D01*
X87456Y29528D01*
X87289Y31228D01*
X86793Y32863D01*
X85987Y34370D01*
X84903Y35691D01*
X83583Y36775D01*
X82076Y37580D01*
X80441Y38076D01*
X78740Y38243D01*
D02*
G37*
G36*
X654331Y30366D02*
X653558Y30213D01*
X652902Y29775D01*
X652465Y29120D01*
X652311Y28346D01*
X652465Y27573D01*
X652781Y27100D01*
Y21288D01*
X649865D01*
Y17523D01*
X658552D01*
Y21288D01*
X655636D01*
Y26836D01*
X655759Y26918D01*
X656197Y27573D01*
X656351Y28346D01*
X656197Y29120D01*
X655759Y29775D01*
X655104Y30213D01*
X654331Y30366D01*
D02*
G37*
G36*
X615354D02*
X614581Y30213D01*
X613926Y29775D01*
X613488Y29120D01*
X613334Y28346D01*
X613488Y27573D01*
X613926Y26918D01*
X613927Y26918D01*
Y21288D01*
X610814D01*
Y17523D01*
X619501D01*
Y21288D01*
X616782D01*
Y26918D01*
X616783Y26918D01*
X617220Y27573D01*
X617374Y28346D01*
X617220Y29120D01*
X616783Y29775D01*
X616127Y30213D01*
X615354Y30366D01*
D02*
G37*
G36*
X575197D02*
X574424Y30213D01*
X573769Y29775D01*
X573331Y29120D01*
X573177Y28346D01*
X573331Y27573D01*
X573769Y26918D01*
X573769Y26918D01*
Y21288D01*
X571125D01*
Y17523D01*
X579812D01*
Y21288D01*
X576624D01*
Y26918D01*
X576625Y26918D01*
X577063Y27573D01*
X577217Y28346D01*
X577063Y29120D01*
X576625Y29775D01*
X575970Y30213D01*
X575197Y30366D01*
D02*
G37*
G36*
X536614D02*
X535841Y30213D01*
X535186Y29775D01*
X534748Y29120D01*
X534594Y28346D01*
X534748Y27573D01*
X535186Y26918D01*
X535187Y26918D01*
Y21288D01*
X532074D01*
Y17523D01*
X540761D01*
Y21288D01*
X538042D01*
Y26918D01*
X538042Y26918D01*
X538480Y27573D01*
X538634Y28346D01*
X538480Y29120D01*
X538042Y29775D01*
X537387Y30213D01*
X536614Y30366D01*
D02*
G37*
G36*
X496457D02*
X495684Y30213D01*
X495028Y29775D01*
X494591Y29120D01*
X494437Y28346D01*
X494591Y27573D01*
X495028Y26918D01*
X495029Y26918D01*
Y21288D01*
X492483D01*
Y17523D01*
X501170D01*
Y21288D01*
X497884D01*
Y26918D01*
X497885Y26918D01*
X498323Y27573D01*
X498477Y28346D01*
X498323Y29120D01*
X497885Y29775D01*
X497230Y30213D01*
X496457Y30366D01*
D02*
G37*
G36*
X418110D02*
X417337Y30213D01*
X416682Y29775D01*
X416244Y29120D01*
X416090Y28346D01*
X416244Y27573D01*
X416682Y26918D01*
X416683Y26918D01*
Y21288D01*
X413743D01*
Y17523D01*
X422430D01*
Y21288D01*
X419538D01*
Y26918D01*
X419538Y26918D01*
X419976Y27573D01*
X420130Y28346D01*
X419976Y29120D01*
X419538Y29775D01*
X418883Y30213D01*
X418110Y30366D01*
D02*
G37*
G36*
X378740D02*
X377967Y30213D01*
X377312Y29775D01*
X376874Y29120D01*
X376720Y28346D01*
X376874Y27573D01*
X377312Y26918D01*
X377313Y26918D01*
Y21288D01*
X374373D01*
Y17523D01*
X383060D01*
Y21288D01*
X380168D01*
Y26918D01*
X380168Y26918D01*
X380606Y27573D01*
X380760Y28346D01*
X380606Y29120D01*
X380168Y29775D01*
X379513Y30213D01*
X378740Y30366D01*
D02*
G37*
G36*
X261024D02*
X260251Y30213D01*
X259595Y29775D01*
X259157Y29120D01*
X259004Y28346D01*
X259157Y27573D01*
X259595Y26918D01*
X259596Y26918D01*
Y21288D01*
X256484D01*
Y17523D01*
X265170D01*
Y21288D01*
X262451D01*
Y26918D01*
X262452Y26918D01*
X262890Y27573D01*
X263043Y28346D01*
X262890Y29120D01*
X262452Y29775D01*
X261797Y30213D01*
X261024Y30366D01*
D02*
G37*
G36*
X221260D02*
X220487Y30213D01*
X219832Y29775D01*
X219394Y29120D01*
X219240Y28346D01*
X219394Y27573D01*
X219832Y26918D01*
X219832Y26918D01*
Y21288D01*
X216893D01*
Y17523D01*
X225580D01*
Y21288D01*
X222687D01*
Y26918D01*
X222688Y26918D01*
X223126Y27573D01*
X223280Y28346D01*
X223126Y29120D01*
X222688Y29775D01*
X222033Y30213D01*
X221260Y30366D01*
D02*
G37*
G36*
X142717D02*
X141944Y30213D01*
X141288Y29775D01*
X140850Y29120D01*
X140697Y28346D01*
X140850Y27573D01*
X141288Y26918D01*
X141289Y26918D01*
Y21288D01*
X138153D01*
Y17523D01*
X146839D01*
Y21288D01*
X144144D01*
Y26918D01*
X144145Y26918D01*
X144583Y27573D01*
X144736Y28346D01*
X144583Y29120D01*
X144145Y29775D01*
X143490Y30213D01*
X142717Y30366D01*
D02*
G37*
G36*
X457480D02*
X456707Y30213D01*
X456052Y29775D01*
X455614Y29120D01*
X455460Y28346D01*
X455614Y27573D01*
X456052Y26918D01*
X456053Y26918D01*
Y21174D01*
X453334D01*
Y17409D01*
X462020D01*
Y21174D01*
X458908D01*
Y26918D01*
X458909Y26918D01*
X459346Y27573D01*
X459500Y28346D01*
X459346Y29120D01*
X458909Y29775D01*
X458253Y30213D01*
X457480Y30366D01*
D02*
G37*
G36*
X300000D02*
X299227Y30213D01*
X298572Y29775D01*
X298134Y29120D01*
X297980Y28346D01*
X298134Y27573D01*
X298572Y26918D01*
X298573Y26918D01*
Y21174D01*
X295853D01*
Y17409D01*
X304540D01*
Y21174D01*
X301427D01*
Y26918D01*
X301428Y26918D01*
X301866Y27573D01*
X302020Y28346D01*
X301866Y29120D01*
X301428Y29775D01*
X300773Y30213D01*
X300000Y30366D01*
D02*
G37*
G36*
X182283D02*
X181510Y30213D01*
X180855Y29775D01*
X180417Y29120D01*
X180264Y28346D01*
X180417Y27573D01*
X180855Y26918D01*
X180856Y26918D01*
Y21174D01*
X177743D01*
Y17409D01*
X186430D01*
Y21174D01*
X183711D01*
Y26918D01*
X183712Y26918D01*
X184150Y27573D01*
X184303Y28346D01*
X184150Y29120D01*
X183712Y29775D01*
X183056Y30213D01*
X182283Y30366D01*
D02*
G37*
G36*
X103150D02*
X102377Y30213D01*
X101721Y29775D01*
X101284Y29120D01*
X101130Y28346D01*
X101284Y27573D01*
X101721Y26918D01*
X101951Y26765D01*
Y21174D01*
X99035D01*
Y17409D01*
X107721D01*
Y21174D01*
X104805D01*
Y27259D01*
X105016Y27573D01*
X105169Y28346D01*
X105016Y29120D01*
X104578Y29775D01*
X103923Y30213D01*
X103150Y30366D01*
D02*
G37*
G36*
X339764D02*
X338991Y30213D01*
X338335Y29775D01*
X337898Y29120D01*
X337744Y28346D01*
X337898Y27573D01*
X338335Y26918D01*
X338336Y26918D01*
Y21174D01*
X335224D01*
Y17409D01*
X343910D01*
Y21174D01*
X341191D01*
Y26918D01*
X341192Y26918D01*
X341630Y27573D01*
X341784Y28346D01*
X341630Y29120D01*
X341192Y29775D01*
X340537Y30213D01*
X339764Y30366D01*
D02*
G37*
G36*
X255921Y17748D02*
X252378D01*
Y16665D01*
X255921D01*
Y17748D01*
D02*
G37*
G36*
X649303Y17748D02*
X645760D01*
Y16665D01*
X649303D01*
Y17748D01*
D02*
G37*
G36*
X570563D02*
X567020D01*
Y16665D01*
X570563D01*
Y17748D01*
D02*
G37*
G36*
X491921Y17748D02*
X488378D01*
Y16665D01*
X491921D01*
Y17748D01*
D02*
G37*
G36*
X413181D02*
X409638D01*
Y16665D01*
X413181D01*
Y17748D01*
D02*
G37*
G36*
X137591D02*
X134047D01*
Y16665D01*
X137591D01*
Y17748D01*
D02*
G37*
G36*
X688992D02*
X685449D01*
Y16665D01*
X688992D01*
Y17748D01*
D02*
G37*
G36*
X610252Y17748D02*
X606709D01*
Y16665D01*
X610252D01*
Y17748D01*
D02*
G37*
G36*
X531512D02*
X527969D01*
Y16665D01*
X531512D01*
Y17748D01*
D02*
G37*
G36*
X373811Y17748D02*
X370268D01*
Y16665D01*
X373811D01*
Y17748D01*
D02*
G37*
G36*
X216331D02*
X212787D01*
Y16665D01*
X216331D01*
Y17748D01*
D02*
G37*
G36*
X295291Y17634D02*
X291748D01*
Y16551D01*
X295291D01*
Y17634D01*
D02*
G37*
G36*
X177181D02*
X173638D01*
Y16551D01*
X177181D01*
Y17634D01*
D02*
G37*
G36*
X98472D02*
X94929D01*
Y16551D01*
X98472D01*
Y17634D01*
D02*
G37*
G36*
X334661Y17634D02*
X331118D01*
Y16551D01*
X334661D01*
Y17634D01*
D02*
G37*
G36*
X452772Y17634D02*
X449228D01*
Y16551D01*
X452772D01*
Y17634D01*
D02*
G37*
G36*
X745882Y10846D02*
Y7693D01*
X749035D01*
X749021Y7802D01*
X748593Y8835D01*
X747912Y9723D01*
X747024Y10404D01*
X745991Y10832D01*
X745882Y10846D01*
D02*
G37*
G36*
X743882Y10846D02*
X743773Y10832D01*
X742739Y10404D01*
X741852Y9723D01*
X741171Y8835D01*
X740743Y7802D01*
X740729Y7693D01*
X743882D01*
Y10846D01*
D02*
G37*
G36*
X749035Y5693D02*
X745882D01*
Y2540D01*
X745991Y2554D01*
X747024Y2982D01*
X747912Y3663D01*
X748593Y4551D01*
X749021Y5584D01*
X749035Y5693D01*
D02*
G37*
G36*
X743882D02*
X740729D01*
X740743Y5584D01*
X741171Y4551D01*
X741852Y3663D01*
X742739Y2982D01*
X743773Y2554D01*
X743882Y2540D01*
Y5693D01*
D02*
G37*
%LPD*%
D12*
X398654Y28543D02*
D03*
Y36024D02*
D03*
X389205Y32283D02*
D03*
X359283Y28543D02*
D03*
Y36024D02*
D03*
X349835Y32283D02*
D03*
X330118Y15551D02*
D03*
X339567Y19291D02*
D03*
Y11811D02*
D03*
X369268Y15665D02*
D03*
X378716Y19406D02*
D03*
Y11925D02*
D03*
X408638Y15665D02*
D03*
X418087Y19406D02*
D03*
Y11925D02*
D03*
X448228Y15551D02*
D03*
X457677Y19291D02*
D03*
Y11811D02*
D03*
X487378Y15665D02*
D03*
X496827Y19406D02*
D03*
Y11925D02*
D03*
X526968Y15665D02*
D03*
X536417Y19406D02*
D03*
Y11925D02*
D03*
X566020Y15665D02*
D03*
X575468Y19406D02*
D03*
Y11925D02*
D03*
X605709Y15665D02*
D03*
X615158Y19406D02*
D03*
Y11925D02*
D03*
X644760Y15665D02*
D03*
X654209Y19406D02*
D03*
Y11925D02*
D03*
X684449Y15665D02*
D03*
X693898Y19406D02*
D03*
Y11925D02*
D03*
X290748Y15551D02*
D03*
X300197Y19291D02*
D03*
Y11811D02*
D03*
X251378Y15665D02*
D03*
X260827Y19406D02*
D03*
Y11925D02*
D03*
X211787Y15665D02*
D03*
X221236Y19406D02*
D03*
Y11925D02*
D03*
X172638Y15551D02*
D03*
X182087Y19291D02*
D03*
Y11811D02*
D03*
X133047Y15665D02*
D03*
X142496Y19406D02*
D03*
Y11925D02*
D03*
X93929Y15551D02*
D03*
X103378Y19291D02*
D03*
Y11811D02*
D03*
X664764Y32283D02*
D03*
X674213Y36024D02*
D03*
Y28543D02*
D03*
X625394Y32283D02*
D03*
X634842Y36024D02*
D03*
Y28543D02*
D03*
X586055Y32283D02*
D03*
X595504Y36024D02*
D03*
Y28543D02*
D03*
X546685Y32283D02*
D03*
X556134Y36024D02*
D03*
Y28543D02*
D03*
X507315Y32283D02*
D03*
X516764Y36024D02*
D03*
Y28543D02*
D03*
X467945Y32283D02*
D03*
X477394Y36024D02*
D03*
Y28543D02*
D03*
X428575Y32283D02*
D03*
X438024Y36024D02*
D03*
Y28543D02*
D03*
X310465Y32283D02*
D03*
X319913Y36024D02*
D03*
Y28543D02*
D03*
X271094Y32283D02*
D03*
X280543Y36024D02*
D03*
Y28543D02*
D03*
X231724Y32283D02*
D03*
X241173Y36024D02*
D03*
Y28543D02*
D03*
X192354Y32283D02*
D03*
X201803Y36024D02*
D03*
Y28543D02*
D03*
X152984Y32283D02*
D03*
X162433Y36024D02*
D03*
Y28543D02*
D03*
X113583Y32283D02*
D03*
X123031Y36024D02*
D03*
Y28543D02*
D03*
X93929Y50000D02*
D03*
X103378Y53740D02*
D03*
Y46260D02*
D03*
X133299Y50000D02*
D03*
X142748Y53740D02*
D03*
Y46260D02*
D03*
X172669Y50000D02*
D03*
X182118Y53740D02*
D03*
Y46260D02*
D03*
X212039Y50000D02*
D03*
X221488Y53740D02*
D03*
Y46260D02*
D03*
X251409Y50000D02*
D03*
X260858Y53740D02*
D03*
Y46260D02*
D03*
X290779Y50000D02*
D03*
X300228Y53740D02*
D03*
Y46260D02*
D03*
X330150Y50000D02*
D03*
X339598Y53740D02*
D03*
Y46260D02*
D03*
X369520Y50000D02*
D03*
X378969Y53740D02*
D03*
Y46260D02*
D03*
X408890Y50000D02*
D03*
X418339Y53740D02*
D03*
Y46260D02*
D03*
X448260Y50000D02*
D03*
X457709Y53740D02*
D03*
Y46260D02*
D03*
X487630Y50000D02*
D03*
X497079Y53740D02*
D03*
Y46260D02*
D03*
X527000Y50000D02*
D03*
X536449Y53740D02*
D03*
Y46260D02*
D03*
X566370Y50000D02*
D03*
X575819Y53740D02*
D03*
Y46260D02*
D03*
X605740Y50000D02*
D03*
X615189Y53740D02*
D03*
Y46260D02*
D03*
X645110Y50000D02*
D03*
X654559Y53740D02*
D03*
Y46260D02*
D03*
X684480Y50000D02*
D03*
X693929Y53740D02*
D03*
Y46260D02*
D03*
D13*
X332185Y3984D02*
D03*
X337500D02*
D03*
X371335Y4098D02*
D03*
X376650D02*
D03*
X410705D02*
D03*
X416020D02*
D03*
X450295Y3984D02*
D03*
X455610D02*
D03*
X489445Y4098D02*
D03*
X494760D02*
D03*
X529035D02*
D03*
X534350D02*
D03*
X568087D02*
D03*
X573401D02*
D03*
X607776D02*
D03*
X613091D02*
D03*
X646827D02*
D03*
X652142D02*
D03*
X686516D02*
D03*
X691831D02*
D03*
X292815Y3984D02*
D03*
X298130D02*
D03*
X253445Y4098D02*
D03*
X258760D02*
D03*
X213854D02*
D03*
X219169D02*
D03*
X174705Y3984D02*
D03*
X180020D02*
D03*
X135114Y4098D02*
D03*
X140429D02*
D03*
X95996Y3984D02*
D03*
X101311D02*
D03*
X666831Y20717D02*
D03*
X672146D02*
D03*
X627461D02*
D03*
X632776D02*
D03*
X588122D02*
D03*
X593437D02*
D03*
X548752D02*
D03*
X554067D02*
D03*
X509382D02*
D03*
X514697D02*
D03*
X470012D02*
D03*
X475327D02*
D03*
X430642D02*
D03*
X435957D02*
D03*
X391272D02*
D03*
X396587D02*
D03*
X351902D02*
D03*
X357217D02*
D03*
X312531D02*
D03*
X317846D02*
D03*
X273161D02*
D03*
X278476D02*
D03*
X233791D02*
D03*
X239106D02*
D03*
X194421D02*
D03*
X199736D02*
D03*
X155051D02*
D03*
X160366D02*
D03*
X115650D02*
D03*
X120965D02*
D03*
X95996Y38433D02*
D03*
X101311D02*
D03*
X135366D02*
D03*
X140681D02*
D03*
X174736D02*
D03*
X180051D02*
D03*
X214106D02*
D03*
X219421D02*
D03*
X253476D02*
D03*
X258791D02*
D03*
X292846D02*
D03*
X298161D02*
D03*
X332217D02*
D03*
X337531D02*
D03*
X371587D02*
D03*
X376902D02*
D03*
X410957D02*
D03*
X416272D02*
D03*
X450327D02*
D03*
X455642D02*
D03*
X489697D02*
D03*
X495012D02*
D03*
X529067D02*
D03*
X534382D02*
D03*
X568437D02*
D03*
X573752D02*
D03*
X607807D02*
D03*
X613122D02*
D03*
X647177D02*
D03*
X652492D02*
D03*
X686547D02*
D03*
X691862D02*
D03*
D14*
X745276Y45276D02*
D03*
Y50787D02*
D03*
D15*
X742618Y25197D02*
D03*
X737697D02*
D03*
D16*
X745276Y34941D02*
D03*
Y39862D02*
D03*
D26*
X496283Y38189D02*
Y39705D01*
X417543Y38433D02*
Y39073D01*
X338803Y38189D02*
Y39705D01*
X87402Y15748D02*
X87500Y15650D01*
X93831D01*
X93929Y15551D01*
X115354Y16142D02*
Y20421D01*
X115650Y20717D01*
X126378Y15354D02*
X126533Y15510D01*
X132892D01*
X133047Y15665D01*
X155118Y16142D02*
Y20650D01*
X155051Y20717D02*
X155118Y20650D01*
X166142Y15354D02*
X166240Y15453D01*
X172539D01*
X172638Y15551D01*
X194095Y16142D02*
Y20390D01*
X194421Y20717D01*
X205512Y15354D02*
X205667Y15510D01*
X211632D01*
X211787Y15665D01*
X233858Y15748D02*
Y20650D01*
X233791Y20717D02*
X233858Y20650D01*
X244488Y14961D02*
X244749Y15221D01*
X250934D01*
X251378Y15665D01*
X272835Y16142D02*
Y20390D01*
X273161Y20717D01*
X284252Y15748D02*
X284350Y15650D01*
X290650D01*
X290748Y15551D01*
X312598Y16142D02*
Y20650D01*
X312531Y20717D02*
X312598Y20650D01*
X323622Y15354D02*
X323721Y15453D01*
X330020D01*
X330118Y15551D01*
X351969Y16535D02*
Y20650D01*
X351902Y20717D02*
X351969Y20650D01*
X362598Y15748D02*
X362640Y15707D01*
X369226D01*
X369268Y15665D01*
X391339Y16142D02*
Y20650D01*
X391272Y20717D02*
X391339Y20650D01*
X401968Y15354D02*
X402124Y15510D01*
X408482D01*
X408638Y15665D01*
X430709Y16142D02*
Y20650D01*
X430642Y20717D02*
X430709Y20650D01*
X441732Y15354D02*
X441831Y15453D01*
X448130D01*
X448228Y15551D01*
X470079Y15748D02*
Y20650D01*
X470012Y20717D02*
X470079Y20650D01*
X480709Y15354D02*
X480864Y15510D01*
X487222D01*
X487378Y15665D01*
X509449Y16142D02*
Y20650D01*
X509382Y20717D02*
X509449Y20650D01*
X520472Y15354D02*
X520628Y15510D01*
X526813D01*
X526968Y15665D01*
X548819Y16535D02*
Y20650D01*
X548752Y20717D02*
X548819Y20650D01*
X559842Y15748D02*
X559925Y15665D01*
X566020D01*
X588189Y15748D02*
Y20650D01*
X588122Y20717D02*
X588189Y20650D01*
X599213Y15354D02*
X599368Y15510D01*
X605553D01*
X605709Y15665D01*
X627559Y15748D02*
Y20618D01*
X627461Y20717D02*
X627559Y20618D01*
X637795Y15354D02*
X637951Y15510D01*
X644604D01*
X644760Y15665D01*
X666929Y15748D02*
Y20618D01*
X666831Y20717D02*
X666929Y20618D01*
X678346Y15748D02*
X678740D01*
X678823Y15665D01*
X684449D01*
X686221Y33858D02*
Y38106D01*
X686547Y38433D01*
X658268Y32283D02*
X664764D01*
X664764Y32283D01*
X646850Y33858D02*
Y38106D01*
X647177Y38433D01*
X618898Y32283D02*
X618898Y32283D01*
X625394D01*
X607874Y33465D02*
Y38366D01*
X607807Y38433D02*
X607874Y38366D01*
X579921Y32283D02*
X586055D01*
X568110Y33465D02*
Y38106D01*
X568437Y38433D01*
X540551Y32283D02*
X540551Y32283D01*
X546685D01*
X528740Y33465D02*
Y38106D01*
X529067Y38433D01*
X501181Y32283D02*
X501181Y32283D01*
X507315D01*
X489370Y34252D02*
Y38106D01*
X489697Y38433D01*
X461811Y32283D02*
X461811Y32283D01*
X467945D01*
X450000Y33465D02*
Y38106D01*
X450327Y38433D01*
X422441Y32283D02*
X422441Y32283D01*
X428575D01*
X410630Y33858D02*
Y38106D01*
X410957Y38433D01*
X382677Y32283D02*
X382677Y32283D01*
X389205D01*
X371260Y34252D02*
Y38106D01*
X371587Y38433D01*
X343307Y32283D02*
X343307Y32283D01*
X349835D01*
X331890Y33858D02*
Y38106D01*
X332217Y38433D01*
X304331Y32283D02*
X304331Y32283D01*
X310465D01*
X292520Y33858D02*
Y38106D01*
X292846Y38433D01*
X264961Y32283D02*
X264961Y32283D01*
X271094D01*
X253150Y34252D02*
Y38106D01*
X253476Y38433D01*
X225590Y32283D02*
X225591Y32283D01*
X231724D01*
X214173Y33858D02*
Y38366D01*
X214106Y38433D02*
X214173Y38366D01*
X185827Y32283D02*
X192354D01*
X174016Y33858D02*
Y37713D01*
X174736Y38433D01*
X146457Y32283D02*
X152984D01*
X135433Y33858D02*
Y38366D01*
X135366Y38433D02*
X135433Y38366D01*
X107087Y32283D02*
X113583D01*
X95669Y33465D02*
Y38106D01*
X95996Y38433D01*
X88189Y50000D02*
X93929D01*
X127165D02*
X127165Y50000D01*
X133299D01*
X166535Y50000D02*
X166535Y50000D01*
X172669D01*
X205512Y50000D02*
X205512Y50000D01*
X212039D01*
X244882Y50000D02*
X244882Y50000D01*
X251409D01*
X284646Y50000D02*
X284646Y50000D01*
X290779D01*
X324016Y50000D02*
X324016Y50000D01*
X330150D01*
X362992Y50000D02*
X369520D01*
X402756D02*
X402756Y50000D01*
X408890D01*
X442126Y50000D02*
X442126Y50000D01*
X448260D01*
X481496Y50000D02*
X481496Y50000D01*
X487630D01*
X520866Y50000D02*
X520866Y50000D01*
X527000D01*
X560236Y50000D02*
X560236Y50000D01*
X566370D01*
X599213Y50000D02*
X599213Y50000D01*
X605740D01*
X638583Y50000D02*
X638583Y50000D01*
X645110D01*
X677953Y50000D02*
X684480D01*
X684480Y50000D01*
X657899Y40551D02*
X658268D01*
X656421Y39073D02*
X657899Y40551D01*
X653132Y39073D02*
X656421D01*
X539789Y40551D02*
X540158D01*
X617717Y38583D02*
X619685Y40551D01*
X695669Y38583D02*
X697638Y40551D01*
X692012Y38583D02*
X695669D01*
X101951Y39073D02*
X102583Y39705D01*
X101311Y38433D02*
X101951Y39073D01*
X141321D02*
X141953Y39705D01*
X106718Y40551D02*
X107087D01*
X105240Y39073D02*
X106718Y40551D01*
X101951Y39073D02*
X105240D01*
X146088Y40551D02*
X146457D01*
X144610Y39073D02*
X146088Y40551D01*
X141321Y39073D02*
X144610D01*
X140681Y38433D02*
X141321Y39073D01*
X653132D02*
X653764Y39705D01*
X417543Y39073D02*
Y45677D01*
X224828Y40551D02*
X225197D01*
X223350Y39073D02*
X224828Y40551D01*
X220061Y39073D02*
X223350D01*
X219421Y38433D02*
X220061Y39073D01*
X263805Y40551D02*
X264173D01*
X262327Y39073D02*
X263805Y40551D01*
X259431Y39073D02*
X262327D01*
X258791Y38433D02*
X259431Y39073D01*
X303175Y40551D02*
X303543D01*
X301697Y39073D02*
X303175Y40551D01*
X298801Y39073D02*
X301697D01*
X298161Y38433D02*
X298801Y39073D01*
X538311D02*
X539789Y40551D01*
X535653Y39073D02*
X538311D01*
X535653D02*
Y39705D01*
X382309Y40551D02*
X382677D01*
X380831Y39073D02*
X382309Y40551D01*
X378173Y39073D02*
X380831D01*
X378173D02*
Y39705D01*
X652492Y38433D02*
X653132Y39073D01*
X460655Y40551D02*
X461024D01*
X459177Y39073D02*
X460655Y40551D01*
X456282Y39073D02*
X459177D01*
X455642Y38433D02*
X456282Y39073D01*
X421605Y40945D02*
X421654D01*
X419734Y39073D02*
X421605Y40945D01*
X417543Y39073D02*
X419734D01*
X183858Y38583D02*
X185827Y40551D01*
X181323Y38583D02*
X183858D01*
X181323Y39705D02*
Y45677D01*
Y38583D02*
Y39705D01*
X341339Y38189D02*
X343701Y40551D01*
X338803Y38189D02*
X341339D01*
X338803Y39705D02*
Y45677D01*
X378173Y39705D02*
Y45677D01*
X416272Y38433D02*
X417543D01*
Y45677D02*
X418126Y46260D01*
X456913Y39705D02*
Y45677D01*
X498819Y38189D02*
X501181Y40551D01*
X496283Y38189D02*
X498819D01*
X496283Y39705D02*
Y45677D01*
X535653Y39705D02*
Y45677D01*
X579528Y40551D02*
X579921D01*
X577953Y38976D02*
X579528Y40551D01*
X575024Y39705D02*
Y45677D01*
Y38976D02*
Y39705D01*
Y38976D02*
X577953D01*
X613272Y38583D02*
X617717D01*
X573752Y38433D02*
X575024Y39705D01*
X534382Y38433D02*
X535653Y39705D01*
X376902Y38433D02*
X378173Y39705D01*
X337531Y38433D02*
X338803Y39705D01*
X299098Y39370D02*
X299433Y39705D01*
X259728Y39370D02*
X260063Y39705D01*
X180051Y38433D02*
X181323Y39705D01*
X162671Y21332D02*
X164567Y23228D01*
X202435Y21332D02*
X204331Y23228D01*
X101358Y3937D02*
X105905D01*
X101311Y3984D02*
X101358Y3937D01*
X140591D02*
X145276D01*
X140429Y4098D02*
X140591Y3937D01*
X180067D02*
X184646D01*
X180020Y3984D02*
X180067Y3937D01*
X219331D02*
X224016D01*
X219169Y4098D02*
X219331Y3937D01*
X258921D02*
X263386D01*
X258760Y4098D02*
X258921Y3937D01*
X298177D02*
X302362D01*
X298130Y3984D02*
X298177Y3937D01*
X337547D02*
X342126D01*
X337500Y3984D02*
X337547Y3937D01*
X376811D02*
X381496D01*
X376650Y4098D02*
X376811Y3937D01*
X416181D02*
X420472D01*
X416020Y4098D02*
X416181Y3937D01*
X455657D02*
X459842D01*
X455610Y3984D02*
X455657Y3937D01*
X494921D02*
X499606D01*
X494760Y4098D02*
X494921Y3937D01*
X534512D02*
X538583D01*
X534350Y4098D02*
X534512Y3937D01*
X573563D02*
X577559D01*
X573401Y4098D02*
X573563Y3937D01*
X613252D02*
X617323D01*
X613091Y4098D02*
X613252Y3937D01*
X652303D02*
X656693D01*
X652142Y4098D02*
X652303Y3937D01*
X691992D02*
X696850D01*
X691831Y4098D02*
X691992Y3937D01*
X675441Y20717D02*
X678346Y23622D01*
X672146Y20717D02*
X675441D01*
X633785Y21726D02*
X634047Y21988D01*
X632776Y20717D02*
X633785Y21726D01*
X635506D01*
X637402Y23622D01*
X594053Y21332D02*
X594709Y21988D01*
X594053Y21332D02*
X596529D01*
X593437Y20717D02*
X594053Y21332D01*
X596529D02*
X598425Y23228D01*
X554683Y21332D02*
X555339Y21988D01*
X554067Y20717D02*
X554683Y21332D01*
X556766D01*
X558661Y23228D01*
X515313Y21332D02*
X515969Y21988D01*
X514697Y20717D02*
X515313Y21332D01*
X517395D01*
X519291Y23228D01*
X475943Y21332D02*
X476598Y21988D01*
X475943Y21332D02*
X478025D01*
X475327Y20717D02*
X475943Y21332D01*
X478025D02*
X479921Y23228D01*
X436966Y21726D02*
X437228Y21988D01*
X435957Y20717D02*
X436966Y21726D01*
X439049D01*
X440945Y23622D01*
X397203Y21332D02*
X397858Y21988D01*
X396587Y20717D02*
X397203Y21332D01*
X399285D01*
X401181Y23228D01*
X357833Y21332D02*
X358488Y21988D01*
X357833Y21332D02*
X359915D01*
X357217Y20717D02*
X357833Y21332D01*
X359915D02*
X361811Y23228D01*
X318462Y21332D02*
X319118Y21988D01*
X317846Y20717D02*
X318462Y21332D01*
X320545D01*
X322441Y23228D01*
X278699Y20939D02*
X279748Y21988D01*
X278699Y20939D02*
X281175D01*
X278476Y20717D02*
X278699Y20939D01*
X281175D02*
X283071Y22835D01*
X239722Y21332D02*
X240378Y21988D01*
X239106Y20717D02*
X239722Y21332D01*
X241805D01*
X243701Y23228D01*
X200352Y21332D02*
X201008Y21988D01*
X199736Y20717D02*
X200352Y21332D01*
X202435D01*
X160982D02*
X161638Y21988D01*
X160982Y21332D02*
X162671D01*
X160366Y20717D02*
X160982Y21332D01*
X121581D02*
X122236Y21988D01*
X120965Y20717D02*
X121581Y21332D01*
X123695D01*
X125591Y23228D01*
X220358Y39370D02*
X220693Y39705D01*
X495012Y38433D02*
X496283Y39705D01*
X613272Y38583D02*
X614394Y39705D01*
X613122Y38433D02*
X613272Y38583D01*
X692012Y38583D02*
X693134Y39705D01*
X691862Y38433D02*
X692012Y38583D01*
X674000Y28543D02*
X674213D01*
X673417Y21988D02*
Y27961D01*
X674000Y28543D01*
X664976Y32283D02*
X665559Y31701D01*
Y21988D02*
Y31701D01*
X664764Y32283D02*
X664976D01*
X665559Y21988D02*
X666831Y20717D01*
X672146D02*
X673417Y21988D01*
X122236Y27961D02*
X122819Y28543D01*
X123031D01*
X122236Y21988D02*
Y27961D01*
X113583Y32283D02*
X113795D01*
X114378Y31701D01*
Y21988D02*
Y31701D01*
Y21988D02*
X115650Y20717D01*
X161638Y27961D02*
X162221Y28543D01*
X162433D01*
X161638Y21988D02*
Y27961D01*
X152984Y32283D02*
X153197D01*
X153779Y31701D01*
Y21988D02*
Y31701D01*
Y21988D02*
X155051Y20717D01*
X201008Y27961D02*
X201590Y28543D01*
X201803D01*
X201008Y21988D02*
Y27961D01*
X192354Y32283D02*
X192567D01*
X193150Y31701D01*
Y21988D02*
Y31701D01*
Y21988D02*
X194421Y20717D01*
X240378Y27961D02*
X240961Y28543D01*
X241173D01*
X240378Y21988D02*
Y27961D01*
X231724Y32283D02*
X231937D01*
X232520Y31701D01*
Y21988D02*
Y31701D01*
Y21988D02*
X233791Y20717D01*
X279748Y27961D02*
X280331Y28543D01*
X280543D01*
X279748Y21988D02*
Y27961D01*
X271094Y32283D02*
X271307D01*
X271890Y31701D01*
Y21988D02*
Y31701D01*
Y21988D02*
X273161Y20717D01*
X319118Y27961D02*
X319701Y28543D01*
X319913D01*
X319118Y21988D02*
Y27961D01*
X310465Y32283D02*
X310677D01*
X311260Y31701D01*
Y21988D02*
Y31701D01*
Y21988D02*
X312531Y20717D01*
X358488Y27961D02*
X359071Y28543D01*
X359283D01*
X358488Y21988D02*
Y27961D01*
X349835Y32283D02*
X350047D01*
X350630Y31701D01*
Y21988D02*
Y31701D01*
Y21988D02*
X351902Y20717D01*
X397858Y27961D02*
X398441Y28543D01*
X398654D01*
X397858Y21988D02*
Y27961D01*
X389205Y32283D02*
X389417D01*
X390000Y31701D01*
Y21988D02*
Y31701D01*
Y21988D02*
X391272Y20717D01*
X437228Y27961D02*
X437811Y28543D01*
X438024D01*
X437228Y21988D02*
Y27961D01*
X428575Y32283D02*
X428787D01*
X429370Y31701D01*
Y21988D02*
Y31701D01*
Y21988D02*
X430642Y20717D01*
X476598Y27961D02*
X477181Y28543D01*
X477394D01*
X476598Y21988D02*
Y27961D01*
X467945Y32283D02*
X468157D01*
X468740Y31701D01*
Y21988D02*
Y31701D01*
Y21988D02*
X470012Y20717D01*
X515969Y27961D02*
X516551Y28543D01*
X516764D01*
X515969Y21988D02*
Y27961D01*
X507315Y32283D02*
X507527D01*
X508110Y31701D01*
Y21988D02*
Y31701D01*
Y21988D02*
X509382Y20717D01*
X555339Y27961D02*
X555921Y28543D01*
X556134D01*
X555339Y21988D02*
Y27961D01*
X546685Y32283D02*
X546898D01*
X547480Y31701D01*
Y21988D02*
Y31701D01*
Y21988D02*
X548752Y20717D01*
X594709Y27961D02*
X595291Y28543D01*
X595504D01*
X594709Y21988D02*
Y27961D01*
X586055Y32283D02*
X586268D01*
X586850Y31701D01*
Y21988D02*
Y31701D01*
Y21988D02*
X588122Y20717D01*
X634047Y27961D02*
X634630Y28543D01*
X634842D01*
X634047Y21988D02*
Y27961D01*
X625394Y32283D02*
X625606D01*
X626189Y31701D01*
Y21988D02*
Y31701D01*
Y21988D02*
X627461Y20717D01*
X102583Y11228D02*
X103165Y11811D01*
X103378D01*
X102583Y5256D02*
Y11228D01*
X101311Y3984D02*
X102583Y5256D01*
X93929Y15551D02*
X94142D01*
X94724Y14968D01*
Y5256D02*
Y14968D01*
Y5256D02*
X95996Y3984D01*
X141701Y11343D02*
X142283Y11925D01*
X142496D01*
X141701Y5370D02*
Y11343D01*
X140429Y4098D02*
X141701Y5370D01*
X133047Y15665D02*
X133260D01*
X133843Y15083D01*
Y5370D02*
Y15083D01*
Y5370D02*
X135114Y4098D01*
X181291Y11228D02*
X181874Y11811D01*
X182087D01*
X181291Y5256D02*
Y11228D01*
X180020Y3984D02*
X181291Y5256D01*
X172638Y15551D02*
X172850D01*
X173433Y14968D01*
Y5256D02*
Y14968D01*
Y5256D02*
X174705Y3984D01*
X220441Y11343D02*
X221024Y11925D01*
X221236D01*
X220441Y5370D02*
Y11343D01*
X219169Y4098D02*
X220441Y5370D01*
X211787Y15665D02*
X212000D01*
X212583Y15083D01*
Y5370D02*
Y15083D01*
Y5370D02*
X213854Y4098D01*
X260032Y11343D02*
X260614Y11925D01*
X260827D01*
X260032Y5370D02*
Y11343D01*
X258760Y4098D02*
X260032Y5370D01*
X251378Y15665D02*
X251590D01*
X252173Y15083D01*
Y5370D02*
Y15083D01*
Y5370D02*
X253445Y4098D01*
X299402Y11228D02*
X299984Y11811D01*
X300197D01*
X299402Y5256D02*
Y11228D01*
X298130Y3984D02*
X299402Y5256D01*
X290748Y15551D02*
X290961D01*
X291543Y14968D01*
Y5256D02*
Y14968D01*
Y5256D02*
X292815Y3984D01*
X693102Y11343D02*
X693685Y11925D01*
X693898D01*
X693102Y5370D02*
Y11343D01*
X691831Y4098D02*
X693102Y5370D01*
X684449Y15665D02*
X684661D01*
X685244Y15083D01*
Y5370D02*
Y15083D01*
Y5370D02*
X686516Y4098D01*
X653413Y11343D02*
X653996Y11925D01*
X654209D01*
X653413Y5370D02*
Y11343D01*
X652142Y4098D02*
X653413Y5370D01*
X644760Y15665D02*
X644972D01*
X645555Y15083D01*
Y5370D02*
Y15083D01*
Y5370D02*
X646827Y4098D01*
X614362Y11343D02*
X614945Y11925D01*
X615158D01*
X614362Y5370D02*
Y11343D01*
X613091Y4098D02*
X614362Y5370D01*
X605709Y15665D02*
X605921D01*
X606504Y15083D01*
Y5370D02*
Y15083D01*
Y5370D02*
X607776Y4098D01*
X574673Y11343D02*
X575256Y11925D01*
X575468D01*
X574673Y5370D02*
Y11343D01*
X573401Y4098D02*
X574673Y5370D01*
X566020Y15665D02*
X566232D01*
X566815Y15083D01*
Y5370D02*
Y15083D01*
Y5370D02*
X568087Y4098D01*
X535622Y11343D02*
X536205Y11925D01*
X536417D01*
X535622Y5370D02*
Y11343D01*
X534350Y4098D02*
X535622Y5370D01*
X526968Y15665D02*
X527181D01*
X527764Y15083D01*
Y5370D02*
Y15083D01*
Y5370D02*
X529035Y4098D01*
X496032Y11343D02*
X496614Y11925D01*
X496827D01*
X496032Y5370D02*
Y11343D01*
X494760Y4098D02*
X496032Y5370D01*
X487378Y15665D02*
X487591D01*
X488173Y15083D01*
Y5370D02*
Y15083D01*
Y5370D02*
X489445Y4098D01*
X456882Y11228D02*
X457465Y11811D01*
X457677D01*
X456882Y5256D02*
Y11228D01*
X455610Y3984D02*
X456882Y5256D01*
X448228Y15551D02*
X448441D01*
X449024Y14968D01*
Y5256D02*
Y14968D01*
Y5256D02*
X450295Y3984D01*
X417291Y11343D02*
X417874Y11925D01*
X418087D01*
X417291Y5370D02*
Y11343D01*
X416020Y4098D02*
X417291Y5370D01*
X408638Y15665D02*
X408850D01*
X409433Y15083D01*
Y5370D02*
Y15083D01*
Y5370D02*
X410705Y4098D01*
X377921Y11343D02*
X378504Y11925D01*
X378716D01*
X377921Y5370D02*
Y11343D01*
X376650Y4098D02*
X377921Y5370D01*
X369268Y15665D02*
X369480D01*
X370063Y15083D01*
Y5370D02*
Y15083D01*
Y5370D02*
X371335Y4098D01*
X338772Y11228D02*
X339354Y11811D01*
X339567D01*
X338772Y5256D02*
Y11228D01*
X337500Y3984D02*
X338772Y5256D01*
X330118Y15551D02*
X330331D01*
X330913Y14968D01*
Y5256D02*
Y14968D01*
Y5256D02*
X332185Y3984D01*
X653764Y45677D02*
X654347Y46260D01*
X654559D01*
X653764Y39705D02*
Y45677D01*
X645110Y50000D02*
X645323D01*
X645905Y49417D01*
Y39705D02*
Y49417D01*
Y39705D02*
X647177Y38433D01*
X614394Y45677D02*
X614976Y46260D01*
X615189D01*
X614394Y39705D02*
Y45677D01*
X605740Y50000D02*
X605953D01*
X606535Y49417D01*
Y39705D02*
Y49417D01*
Y39705D02*
X607807Y38433D01*
X575024Y45677D02*
X575606Y46260D01*
X575819D01*
X566370Y50000D02*
X566583D01*
X567165Y49417D01*
Y39705D02*
Y49417D01*
Y39705D02*
X568437Y38433D01*
X535653Y45677D02*
X536236Y46260D01*
X536449D01*
X527000Y50000D02*
X527213D01*
X527795Y49417D01*
Y39705D02*
Y49417D01*
Y39705D02*
X529067Y38433D01*
X496283Y45677D02*
X496866Y46260D01*
X497079D01*
X487630Y50000D02*
X487843D01*
X488425Y49417D01*
Y39705D02*
Y49417D01*
Y39705D02*
X489697Y38433D01*
X456913Y45677D02*
X457496Y46260D01*
X457709D01*
X448260Y50000D02*
X448472D01*
X449055Y49417D01*
Y39705D02*
Y49417D01*
Y39705D02*
X450327Y38433D01*
X418126Y46260D02*
X418339D01*
X408890Y50000D02*
X409102D01*
X409685Y49417D01*
Y39705D02*
Y49417D01*
Y39705D02*
X410957Y38433D01*
X378173Y45677D02*
X378756Y46260D01*
X378969D01*
X369520Y50000D02*
X369732D01*
X370315Y49417D01*
Y39705D02*
Y49417D01*
Y39705D02*
X371587Y38433D01*
X338803Y45677D02*
X339386Y46260D01*
X339598D01*
X330150Y50000D02*
X330362D01*
X330945Y49417D01*
Y39705D02*
Y49417D01*
Y39705D02*
X332217Y38433D01*
X299433Y45677D02*
X300016Y46260D01*
X300228D01*
X299433Y39705D02*
Y45677D01*
X290779Y50000D02*
X290992D01*
X291575Y49417D01*
Y39705D02*
Y49417D01*
Y39705D02*
X292846Y38433D01*
X260063Y45677D02*
X260646Y46260D01*
X260858D01*
X260063Y39705D02*
Y45677D01*
X251409Y50000D02*
X251622D01*
X252205Y49417D01*
Y39705D02*
Y49417D01*
Y39705D02*
X253476Y38433D01*
X220693Y45677D02*
X221276Y46260D01*
X221488D01*
X220693Y39705D02*
Y45677D01*
X212039Y50000D02*
X212252D01*
X212835Y49417D01*
Y39705D02*
Y49417D01*
Y39705D02*
X214106Y38433D01*
X181323Y45677D02*
X181905Y46260D01*
X182118D01*
X172669Y50000D02*
X172882D01*
X173465Y49417D01*
Y39705D02*
Y49417D01*
Y39705D02*
X174736Y38433D01*
X141953Y45677D02*
X142535Y46260D01*
X142748D01*
X141953Y39705D02*
Y45677D01*
X133299Y50000D02*
X133512D01*
X134095Y49417D01*
Y39705D02*
Y49417D01*
Y39705D02*
X135366Y38433D01*
X102583Y45677D02*
X103165Y46260D01*
X103378D01*
X102583Y39705D02*
Y45677D01*
X93929Y50000D02*
X94142D01*
X94724Y49417D01*
Y39705D02*
Y49417D01*
Y39705D02*
X95996Y38433D01*
X693134Y39705D02*
Y45677D01*
X693716Y46260D01*
X693929D01*
X685276Y39705D02*
X686547Y38433D01*
X685276Y39705D02*
Y49417D01*
X684693Y50000D02*
X685276Y49417D01*
X684480Y50000D02*
X684693D01*
D27*
X735433Y15748D02*
Y38976D01*
Y42913D02*
Y46850D01*
Y38976D02*
Y42913D01*
X731496Y15748D02*
X735433D01*
X727559D02*
X731496D01*
Y3937D02*
X735433D01*
X727559D02*
X731496D01*
X735433D02*
Y15748D01*
D28*
X764236Y26834D02*
Y27497D01*
X764173Y27559D02*
X764236Y27497D01*
X762598Y25197D02*
X764236Y26834D01*
X742618Y25197D02*
X762598D01*
X742618Y18957D02*
X744882Y16693D01*
X742618Y18957D02*
Y25197D01*
D29*
X714567Y18504D02*
X726378Y30709D01*
X694799Y18504D02*
X714567D01*
X745276Y30709D02*
Y34941D01*
X701968Y39764D02*
Y48161D01*
X693701Y31496D02*
X701968Y39764D01*
X693701Y28346D02*
Y31496D01*
X693898Y19406D02*
X694799Y18504D01*
X765919Y35211D02*
X766142Y35433D01*
X745545Y35211D02*
X765919D01*
X745276Y34941D02*
X745545Y35211D01*
X696390Y53740D02*
X701968Y48161D01*
X693929Y53740D02*
X696390D01*
X671752Y36024D02*
X674213D01*
X671269Y36506D02*
X671752Y36024D01*
X671269Y36506D02*
Y38967D01*
X657502Y52734D02*
X671269Y38967D01*
X657502Y52734D02*
Y53258D01*
X657020Y53740D02*
X657502Y53258D01*
X654559Y53740D02*
X657020D01*
X632382Y36024D02*
X634842D01*
X631899Y36506D02*
X632382Y36024D01*
X631899Y36506D02*
Y38967D01*
X618132Y52734D02*
X631899Y38967D01*
X618132Y52734D02*
Y53258D01*
X617650Y53740D02*
X618132Y53258D01*
X615189Y53740D02*
X617650D01*
X593043Y36024D02*
X595504D01*
X592561Y36506D02*
X593043Y36024D01*
X592561Y36506D02*
Y38967D01*
X578762Y52765D02*
X592561Y38967D01*
X578762Y52765D02*
Y53258D01*
X578279Y53740D02*
X578762Y53258D01*
X575819Y53740D02*
X578279D01*
X553673Y36024D02*
X556134D01*
X553191Y36506D02*
X553673Y36024D01*
X553191Y36506D02*
Y38967D01*
X539392Y52765D02*
X553191Y38967D01*
X539392Y52765D02*
Y53258D01*
X538909Y53740D02*
X539392Y53258D01*
X536449Y53740D02*
X538909D01*
X514303Y36024D02*
X516764D01*
X513820Y36506D02*
X514303Y36024D01*
X513820Y36506D02*
Y38967D01*
X500022Y52765D02*
X513820Y38967D01*
X500022Y52765D02*
Y53258D01*
X499539Y53740D02*
X500022Y53258D01*
X497079Y53740D02*
X499539D01*
X474933Y36024D02*
X477394D01*
X474450Y36506D02*
X474933Y36024D01*
X474450Y36506D02*
Y38967D01*
X460652Y52765D02*
X474450Y38967D01*
X460652Y52765D02*
Y53258D01*
X460169Y53740D02*
X460652Y53258D01*
X457709Y53740D02*
X460169D01*
X435563Y36024D02*
X438024D01*
X435080Y36506D02*
X435563Y36024D01*
X435080Y36506D02*
Y38967D01*
X421282Y52765D02*
X435080Y38967D01*
X421282Y52765D02*
Y53258D01*
X420799Y53740D02*
X421282Y53258D01*
X418339Y53740D02*
X420799D01*
X396193Y36024D02*
X398654D01*
X395710Y36506D02*
X396193Y36024D01*
X395710Y36506D02*
Y38967D01*
X381912Y52765D02*
X395710Y38967D01*
X381912Y52765D02*
Y53258D01*
X381429Y53740D02*
X381912Y53258D01*
X378969Y53740D02*
X381429D01*
X356823Y36024D02*
X359283D01*
X356340Y36506D02*
X356823Y36024D01*
X356340Y36506D02*
Y38967D01*
X342542Y52765D02*
X356340Y38967D01*
X342542Y52765D02*
Y53258D01*
X342059Y53740D02*
X342542Y53258D01*
X339598Y53740D02*
X342059D01*
X317453Y36024D02*
X319913D01*
X316970Y36506D02*
X317453Y36024D01*
X316970Y36506D02*
Y38967D01*
X303172Y52765D02*
X316970Y38967D01*
X303172Y52765D02*
Y53258D01*
X302689Y53740D02*
X303172Y53258D01*
X300228Y53740D02*
X302689D01*
X278083Y36024D02*
X280543D01*
X277600Y36506D02*
X278083Y36024D01*
X277600Y36506D02*
Y38967D01*
X263802Y52765D02*
X277600Y38967D01*
X263802Y52765D02*
Y53258D01*
X263319Y53740D02*
X263802Y53258D01*
X260858Y53740D02*
X263319D01*
X238713Y36024D02*
X241173D01*
X238230Y36506D02*
X238713Y36024D01*
X238230Y36506D02*
Y38967D01*
X224431Y52765D02*
X238230Y38967D01*
X224431Y52765D02*
Y53258D01*
X223949Y53740D02*
X224431Y53258D01*
X221488Y53740D02*
X223949D01*
X199343Y36024D02*
X201803D01*
X198860Y36506D02*
X199343Y36024D01*
X198860Y36506D02*
Y38967D01*
X185061Y52765D02*
X198860Y38967D01*
X185061Y52765D02*
Y53258D01*
X184579Y53740D02*
X185061Y53258D01*
X182118Y53740D02*
X184579D01*
X159972Y36024D02*
X162433D01*
X159490Y36506D02*
X159972Y36024D01*
X159490Y36506D02*
Y38967D01*
X145691Y52765D02*
X159490Y38967D01*
X145691Y52765D02*
Y53258D01*
X145209Y53740D02*
X145691Y53258D01*
X142748Y53740D02*
X145209D01*
X120571Y36024D02*
X123031D01*
X120088Y36506D02*
X120571Y36024D01*
X120088Y36506D02*
Y38967D01*
X106321Y52734D02*
X120088Y38967D01*
X106321Y52734D02*
Y53258D01*
X105839Y53740D02*
X106321Y53258D01*
X103378Y53740D02*
X105839D01*
X681667Y28569D02*
X681890Y28346D01*
X681667Y28569D02*
Y31029D01*
X676673Y36024D02*
X681667Y31029D01*
X674213Y36024D02*
X676673D01*
X642297Y28569D02*
X642520Y28346D01*
X642297Y28569D02*
Y31029D01*
X637303Y36024D02*
X642297Y31029D01*
X634842Y36024D02*
X637303D01*
X602927Y28569D02*
X603150Y28346D01*
X602927Y28569D02*
Y31061D01*
X597964Y36024D02*
X602927Y31061D01*
X595504Y36024D02*
X597964D01*
X563557Y28569D02*
X563779Y28346D01*
X563557Y28569D02*
Y31061D01*
X558595Y36024D02*
X563557Y31061D01*
X556134Y36024D02*
X558595D01*
X524187Y28569D02*
X524409Y28346D01*
X524187Y28569D02*
Y31061D01*
X519224Y36024D02*
X524187Y31061D01*
X516764Y36024D02*
X519224D01*
X483858Y28346D02*
Y32020D01*
X479854Y36024D02*
X483858Y32020D01*
X477394Y36024D02*
X479854D01*
X445447Y28569D02*
X445669Y28346D01*
X445447Y28569D02*
Y31061D01*
X440484Y36024D02*
X445447Y31061D01*
X438024Y36024D02*
X440484D01*
X406077Y28569D02*
X406299Y28346D01*
X406077Y28569D02*
Y31061D01*
X401114Y36024D02*
X406077Y31061D01*
X398654Y36024D02*
X401114D01*
X366707Y28569D02*
X366929Y28346D01*
X366707Y28569D02*
Y31061D01*
X361744Y36024D02*
X366707Y31061D01*
X359283Y36024D02*
X361744D01*
X327337Y28569D02*
X327559Y28346D01*
X327337Y28569D02*
Y31061D01*
X322374Y36024D02*
X327337Y31061D01*
X319913Y36024D02*
X322374D01*
X287967Y28569D02*
X288189Y28346D01*
X287967Y28569D02*
Y31061D01*
X283004Y36024D02*
X287967Y31061D01*
X280543Y36024D02*
X283004D01*
X248597Y28569D02*
X248819Y28346D01*
X248597Y28569D02*
Y31061D01*
X243634Y36024D02*
X248597Y31061D01*
X241173Y36024D02*
X243634D01*
X208833Y28962D02*
X209055Y28740D01*
X208833Y28962D02*
Y31455D01*
X204264Y36024D02*
X208833Y31455D01*
X201803Y36024D02*
X204264D01*
X169856Y28569D02*
X170079Y28346D01*
X169856Y28569D02*
Y31061D01*
X164894Y36024D02*
X169856Y31061D01*
X162433Y36024D02*
X164894D01*
X130486Y28569D02*
X130709Y28346D01*
X130486Y28569D02*
Y31029D01*
X125492Y36024D02*
X130486Y31029D01*
X123031Y36024D02*
X125492D01*
X142717Y19626D02*
Y28346D01*
X142496Y19406D02*
X142717Y19626D01*
X182283Y19488D02*
Y28346D01*
X182087Y19291D02*
X182283Y19488D01*
X221260Y19429D02*
Y28346D01*
X221236Y19406D02*
X221260Y19429D01*
X261024Y19602D02*
Y28346D01*
X260827Y19406D02*
X261024Y19602D01*
X300000Y19488D02*
Y28346D01*
Y19488D02*
X300197Y19291D01*
X339764Y19488D02*
Y28346D01*
X339567Y19291D02*
X339764Y19488D01*
X378740Y19429D02*
Y28346D01*
X378716Y19406D02*
X378740Y19429D01*
X418110Y19429D02*
Y28346D01*
X418087Y19406D02*
X418110Y19429D01*
X457480Y19488D02*
Y28346D01*
Y19488D02*
X457677Y19291D01*
X496457Y19775D02*
Y28346D01*
Y19775D02*
X496827Y19406D01*
X536614Y19602D02*
Y28346D01*
X536417Y19406D02*
X536614Y19602D01*
X575197Y19677D02*
Y28346D01*
Y19677D02*
X575468Y19406D01*
X615354Y19602D02*
Y28346D01*
X615158Y19406D02*
X615354Y19602D01*
X654209Y28224D02*
X654331Y28346D01*
X654209Y19406D02*
Y28224D01*
X693701Y19602D02*
X693898Y19406D01*
X693701Y19602D02*
Y28346D01*
X103378Y19291D02*
Y28118D01*
X103150Y28346D02*
X103378Y28118D01*
D30*
X744882Y16693D02*
D03*
D31*
Y6693D02*
D03*
D32*
X708661Y29528D02*
D03*
X78740D02*
D03*
D33*
X739370Y46850D02*
D03*
X735433D02*
D03*
Y38976D02*
D03*
X739370Y42913D02*
D03*
X755905Y45276D02*
D03*
X751575D02*
D03*
X771260Y22835D02*
D03*
Y19291D02*
D03*
Y15748D02*
D03*
X767717Y22835D02*
D03*
X764173D02*
D03*
X767717Y15748D02*
D03*
X764173D02*
D03*
X767717Y19291D02*
D03*
X764173D02*
D03*
Y27559D02*
D03*
X726378Y30709D02*
D03*
X745276D02*
D03*
X735433Y42913D02*
D03*
Y15748D02*
D03*
X731496D02*
D03*
X727559D02*
D03*
Y3937D02*
D03*
X731496D02*
D03*
X735433D02*
D03*
X766142Y35433D02*
D03*
X739370Y38976D02*
D03*
X87402Y15748D02*
D03*
X115354Y16142D02*
D03*
X126378Y15354D02*
D03*
X155118Y16142D02*
D03*
X166142Y15354D02*
D03*
X194095Y16142D02*
D03*
X205512Y15354D02*
D03*
X233858Y15748D02*
D03*
X244488Y14961D02*
D03*
X272835Y16142D02*
D03*
X284252Y15748D02*
D03*
X312598Y16142D02*
D03*
X323622Y15354D02*
D03*
X351969Y16535D02*
D03*
X362598Y15748D02*
D03*
X391339Y16142D02*
D03*
X401968Y15354D02*
D03*
X430709Y16142D02*
D03*
X441732Y15354D02*
D03*
X470079Y15748D02*
D03*
X480709Y15354D02*
D03*
X509449Y16142D02*
D03*
X520472Y15354D02*
D03*
X548819Y16535D02*
D03*
X559842Y15748D02*
D03*
X588189D02*
D03*
X599213Y15354D02*
D03*
X627559Y15748D02*
D03*
X637795Y15354D02*
D03*
X666929Y15748D02*
D03*
X678346D02*
D03*
X686221Y33858D02*
D03*
X658268Y32283D02*
D03*
X646850Y33858D02*
D03*
X618898Y32283D02*
D03*
X607874Y33465D02*
D03*
X579921Y32283D02*
D03*
X568110Y33465D02*
D03*
X540551Y32283D02*
D03*
X528740Y33465D02*
D03*
X501181Y32283D02*
D03*
X489370Y34252D02*
D03*
X461811Y32283D02*
D03*
X450000Y33465D02*
D03*
X422441Y32283D02*
D03*
X410630Y33858D02*
D03*
X382677Y32283D02*
D03*
X371260Y34252D02*
D03*
X343307Y32283D02*
D03*
X331890Y33858D02*
D03*
X304331Y32283D02*
D03*
X292520Y33858D02*
D03*
X264961Y32283D02*
D03*
X253150Y34252D02*
D03*
X225590Y32283D02*
D03*
X214173Y33858D02*
D03*
X185827Y32283D02*
D03*
X174016Y33858D02*
D03*
X146457Y32283D02*
D03*
X135433Y33858D02*
D03*
X107087Y32283D02*
D03*
X95669Y33465D02*
D03*
X88189Y50000D02*
D03*
X127165D02*
D03*
X166535D02*
D03*
X205512D02*
D03*
X244882D02*
D03*
X284646D02*
D03*
X324016D02*
D03*
X362992D02*
D03*
X402756D02*
D03*
X442126D02*
D03*
X481496D02*
D03*
X520866D02*
D03*
X560236D02*
D03*
X599213D02*
D03*
X638583D02*
D03*
X677953D02*
D03*
X681890Y28346D02*
D03*
X642520D02*
D03*
X603150D02*
D03*
X563779D02*
D03*
X524409D02*
D03*
X483858D02*
D03*
X445669D02*
D03*
X406299D02*
D03*
X366929D02*
D03*
X327559D02*
D03*
X288189D02*
D03*
X248819D02*
D03*
X209055Y28740D02*
D03*
X170079Y28346D02*
D03*
X130709D02*
D03*
X142717D02*
D03*
X182283D02*
D03*
X221260D02*
D03*
X261024D02*
D03*
X300000D02*
D03*
X339764D02*
D03*
X378740D02*
D03*
X418110D02*
D03*
X457480D02*
D03*
X496457D02*
D03*
X536614D02*
D03*
X575197D02*
D03*
X615354D02*
D03*
X654331D02*
D03*
X693701D02*
D03*
X103150D02*
D03*
X540158Y40551D02*
D03*
X619685D02*
D03*
X697638D02*
D03*
X658268D02*
D03*
X107087D02*
D03*
X146457D02*
D03*
X185827D02*
D03*
X225197D02*
D03*
X264173D02*
D03*
X303543D02*
D03*
X343701D02*
D03*
X382677D02*
D03*
X421654Y40945D02*
D03*
X461024Y40551D02*
D03*
X501181D02*
D03*
X579921D02*
D03*
X164567Y23228D02*
D03*
X204331D02*
D03*
X105905Y3937D02*
D03*
X145276D02*
D03*
X184646D02*
D03*
X224016D02*
D03*
X263386D02*
D03*
X302362D02*
D03*
X342126D02*
D03*
X381496D02*
D03*
X420472D02*
D03*
X459842D02*
D03*
X499606D02*
D03*
X538583D02*
D03*
X577559D02*
D03*
X617323D02*
D03*
X656693D02*
D03*
X696850D02*
D03*
X678346Y23622D02*
D03*
X637402D02*
D03*
X598425Y23228D02*
D03*
X558661D02*
D03*
X519291D02*
D03*
X479921D02*
D03*
X440945Y23622D02*
D03*
X401181Y23228D02*
D03*
X361811D02*
D03*
X322441D02*
D03*
X283071Y22835D02*
D03*
X243701Y23228D02*
D03*
X125591D02*
D03*
M02*
