G04*
G04 #@! TF.GenerationSoftware,Altium Limited,Altium Designer,19.1.8 (144)*
G04*
G04 Layer_Color=32768*
%FSLAX25Y25*%
%MOIN*%
G70*
G01*
G75*
%ADD41C,0.00394*%
%ADD42C,0.00197*%
D41*
X391961Y32283D02*
X395898D01*
X393929Y30315D02*
Y34252D01*
X352590Y32283D02*
X356527D01*
X354559Y30315D02*
Y34252D01*
X334842Y13583D02*
Y17520D01*
X332874Y15551D02*
X336811D01*
X334842Y2114D02*
Y5854D01*
X332972Y3984D02*
X336713D01*
X373992Y13697D02*
Y17634D01*
X372024Y15665D02*
X375961D01*
X373992Y2228D02*
Y5968D01*
X372122Y4098D02*
X375862D01*
X413362Y13697D02*
Y17634D01*
X411394Y15665D02*
X415331D01*
X413362Y2228D02*
Y5968D01*
X411492Y4098D02*
X415232D01*
X452953Y13583D02*
Y17520D01*
X450984Y15551D02*
X454921D01*
X452953Y2114D02*
Y5854D01*
X451083Y3984D02*
X454823D01*
X492102Y13697D02*
Y17634D01*
X490134Y15665D02*
X494071D01*
X492102Y2228D02*
Y5968D01*
X490232Y4098D02*
X493972D01*
X531693Y13697D02*
Y17634D01*
X529724Y15665D02*
X533661D01*
X531693Y2228D02*
Y5968D01*
X529823Y4098D02*
X533563D01*
X570744Y13697D02*
Y17634D01*
X568776Y15665D02*
X572713D01*
X570744Y2228D02*
Y5968D01*
X568874Y4098D02*
X572614D01*
X610433Y13697D02*
Y17634D01*
X608465Y15665D02*
X612402D01*
X610433Y2228D02*
Y5968D01*
X608563Y4098D02*
X612303D01*
X649484Y13697D02*
Y17634D01*
X647516Y15665D02*
X651453D01*
X649484Y2228D02*
Y5968D01*
X647614Y4098D02*
X651354D01*
X689173Y13697D02*
Y17634D01*
X687205Y15665D02*
X691142D01*
X689173Y2228D02*
Y5968D01*
X687303Y4098D02*
X691043D01*
X295472Y13583D02*
Y17520D01*
X293504Y15551D02*
X297441D01*
X295472Y2114D02*
Y5854D01*
X293602Y3984D02*
X297342D01*
X256102Y13697D02*
Y17634D01*
X254134Y15665D02*
X258071D01*
X256102Y2228D02*
Y5968D01*
X254232Y4098D02*
X257972D01*
X216512Y13697D02*
Y17634D01*
X214543Y15665D02*
X218480D01*
X216512Y2228D02*
Y5968D01*
X214642Y4098D02*
X218382D01*
X177362Y13583D02*
Y17520D01*
X175394Y15551D02*
X179331D01*
X177362Y2114D02*
Y5854D01*
X175492Y3984D02*
X179232D01*
X137772Y13697D02*
Y17634D01*
X135803Y15665D02*
X139740D01*
X137772Y2228D02*
Y5968D01*
X135901Y4098D02*
X139642D01*
X98654Y13583D02*
Y17520D01*
X96685Y15551D02*
X100622D01*
X98654Y2114D02*
Y5854D01*
X96784Y3984D02*
X100524D01*
X669488Y30315D02*
Y34252D01*
X667520Y32283D02*
X671457D01*
X669488Y18846D02*
Y22587D01*
X667618Y20717D02*
X671358D01*
X630118Y30315D02*
Y34252D01*
X628150Y32283D02*
X632087D01*
X630118Y18846D02*
Y22587D01*
X628248Y20717D02*
X631988D01*
X590779Y30315D02*
Y34252D01*
X588811Y32283D02*
X592748D01*
X590779Y18846D02*
Y22587D01*
X588909Y20717D02*
X592650D01*
X551409Y30315D02*
Y34252D01*
X549441Y32283D02*
X553378D01*
X551409Y18846D02*
Y22587D01*
X549539Y20717D02*
X553279D01*
X512039Y30315D02*
Y34252D01*
X510071Y32283D02*
X514008D01*
X512039Y18846D02*
Y22587D01*
X510169Y20717D02*
X513909D01*
X472669Y30315D02*
Y34252D01*
X470701Y32283D02*
X474638D01*
X472669Y18846D02*
Y22587D01*
X470799Y20717D02*
X474539D01*
X433299Y30315D02*
Y34252D01*
X431331Y32283D02*
X435268D01*
X433299Y18846D02*
Y22587D01*
X431429Y20717D02*
X435169D01*
X393929Y18846D02*
Y22587D01*
X392059Y20717D02*
X395799D01*
X354559Y18846D02*
Y22587D01*
X352689Y20717D02*
X356429D01*
X315189Y30315D02*
Y34252D01*
X313221Y32283D02*
X317158D01*
X315189Y18846D02*
Y22587D01*
X313319Y20717D02*
X317059D01*
X275819Y30315D02*
Y34252D01*
X273850Y32283D02*
X277787D01*
X275819Y18846D02*
Y22587D01*
X273949Y20717D02*
X277689D01*
X236449Y30315D02*
Y34252D01*
X234480Y32283D02*
X238417D01*
X236449Y18846D02*
Y22587D01*
X234579Y20717D02*
X238319D01*
X197079Y30315D02*
Y34252D01*
X195110Y32283D02*
X199047D01*
X197079Y18846D02*
Y22587D01*
X195209Y20717D02*
X198949D01*
X157709Y30315D02*
Y34252D01*
X155740Y32283D02*
X159677D01*
X157709Y18846D02*
Y22587D01*
X155839Y20717D02*
X159579D01*
X118307Y30315D02*
Y34252D01*
X116339Y32283D02*
X120276D01*
X118307Y18846D02*
Y22587D01*
X116437Y20717D02*
X120177D01*
X743307Y48031D02*
X747244D01*
X745276Y46063D02*
Y50000D01*
X738287Y25197D02*
X742028D01*
X740158Y23327D02*
Y27067D01*
X98654Y48031D02*
Y51968D01*
X96685Y50000D02*
X100622D01*
X98654Y36563D02*
Y40303D01*
X96784Y38433D02*
X100524D01*
X138024Y48031D02*
Y51968D01*
X136055Y50000D02*
X139992D01*
X138024Y36563D02*
Y40303D01*
X136153Y38433D02*
X139894D01*
X177394Y48031D02*
Y51968D01*
X175425Y50000D02*
X179362D01*
X177394Y36563D02*
Y40303D01*
X175524Y38433D02*
X179264D01*
X216764Y48031D02*
Y51968D01*
X214795Y50000D02*
X218732D01*
X216764Y36563D02*
Y40303D01*
X214894Y38433D02*
X218634D01*
X256134Y48031D02*
Y51968D01*
X254165Y50000D02*
X258102D01*
X256134Y36563D02*
Y40303D01*
X254264Y38433D02*
X258004D01*
X295504Y48031D02*
Y51968D01*
X293535Y50000D02*
X297472D01*
X295504Y36563D02*
Y40303D01*
X293634Y38433D02*
X297374D01*
X334874Y48031D02*
Y51968D01*
X332906Y50000D02*
X336842D01*
X334874Y36563D02*
Y40303D01*
X333004Y38433D02*
X336744D01*
X374244Y48031D02*
Y51968D01*
X372276Y50000D02*
X376213D01*
X374244Y36563D02*
Y40303D01*
X372374Y38433D02*
X376114D01*
X413614Y48031D02*
Y51968D01*
X411646Y50000D02*
X415583D01*
X413614Y36563D02*
Y40303D01*
X411744Y38433D02*
X415484D01*
X452984Y48031D02*
Y51968D01*
X451016Y50000D02*
X454953D01*
X452984Y36563D02*
Y40303D01*
X451114Y38433D02*
X454854D01*
X492354Y48031D02*
Y51968D01*
X490386Y50000D02*
X494323D01*
X492354Y36563D02*
Y40303D01*
X490484Y38433D02*
X494224D01*
X531724Y48031D02*
Y51968D01*
X529756Y50000D02*
X533693D01*
X531724Y36563D02*
Y40303D01*
X529854Y38433D02*
X533595D01*
X571095Y48031D02*
Y51968D01*
X569126Y50000D02*
X573063D01*
X571095Y36563D02*
Y40303D01*
X569224Y38433D02*
X572964D01*
X610464Y48031D02*
Y51968D01*
X608496Y50000D02*
X612433D01*
X610464Y36563D02*
Y40303D01*
X608595Y38433D02*
X612335D01*
X649835Y48031D02*
Y51968D01*
X647866Y50000D02*
X651803D01*
X649835Y36563D02*
Y40303D01*
X647964Y38433D02*
X651705D01*
X689205Y48031D02*
Y51968D01*
X687236Y50000D02*
X691173D01*
X689205Y36563D02*
Y40303D01*
X687335Y38433D02*
X691075D01*
X745276Y35531D02*
Y39272D01*
X743405Y37402D02*
X747146D01*
D42*
X733976Y9724D02*
Y13661D01*
X732008Y11693D02*
X735945D01*
X748917Y315D02*
Y23071D01*
X704567D02*
X748917D01*
X704567Y315D02*
Y23071D01*
Y315D02*
X748917D01*
X404165Y24213D02*
Y40354D01*
X383693Y24213D02*
Y40354D01*
Y24213D02*
X404165D01*
X383693Y40354D02*
X404165D01*
X364795Y24213D02*
Y40354D01*
X344323Y24213D02*
Y40354D01*
Y24213D02*
X364795D01*
X344323Y40354D02*
X364795D01*
X324606Y23622D02*
X345079D01*
X324606Y7480D02*
X345079D01*
X324606D02*
Y23622D01*
X345079Y7480D02*
Y23622D01*
X329528Y6937D02*
X340158D01*
X329528Y1032D02*
X340158D01*
X329528D02*
Y6937D01*
X340158Y1032D02*
Y6937D01*
X363756Y23736D02*
X384228D01*
X363756Y7594D02*
X384228D01*
X363756D02*
Y23736D01*
X384228Y7594D02*
Y23736D01*
X368677Y7051D02*
X379307D01*
X368677Y1146D02*
X379307D01*
X368677D02*
Y7051D01*
X379307Y1146D02*
Y7051D01*
X403126Y23736D02*
X423598D01*
X403126Y7594D02*
X423598D01*
X403126D02*
Y23736D01*
X423598Y7594D02*
Y23736D01*
X408047Y7051D02*
X418677D01*
X408047Y1146D02*
X418677D01*
X408047D02*
Y7051D01*
X418677Y1146D02*
Y7051D01*
X442717Y23622D02*
X463189D01*
X442717Y7480D02*
X463189D01*
X442717D02*
Y23622D01*
X463189Y7480D02*
Y23622D01*
X447638Y6937D02*
X458268D01*
X447638Y1032D02*
X458268D01*
X447638D02*
Y6937D01*
X458268Y1032D02*
Y6937D01*
X481866Y23736D02*
X502339D01*
X481866Y7594D02*
X502339D01*
X481866D02*
Y23736D01*
X502339Y7594D02*
Y23736D01*
X486787Y7051D02*
X497417D01*
X486787Y1146D02*
X497417D01*
X486787D02*
Y7051D01*
X497417Y1146D02*
Y7051D01*
X521457Y23736D02*
X541929D01*
X521457Y7594D02*
X541929D01*
X521457D02*
Y23736D01*
X541929Y7594D02*
Y23736D01*
X526378Y7051D02*
X537008D01*
X526378Y1146D02*
X537008D01*
X526378D02*
Y7051D01*
X537008Y1146D02*
Y7051D01*
X560508Y23736D02*
X580980D01*
X560508Y7594D02*
X580980D01*
X560508D02*
Y23736D01*
X580980Y7594D02*
Y23736D01*
X565429Y7051D02*
X576059D01*
X565429Y1146D02*
X576059D01*
X565429D02*
Y7051D01*
X576059Y1146D02*
Y7051D01*
X600197Y23736D02*
X620669D01*
X600197Y7594D02*
X620669D01*
X600197D02*
Y23736D01*
X620669Y7594D02*
Y23736D01*
X605118Y7051D02*
X615748D01*
X605118Y1146D02*
X615748D01*
X605118D02*
Y7051D01*
X615748Y1146D02*
Y7051D01*
X639248Y23736D02*
X659720D01*
X639248Y7594D02*
X659720D01*
X639248D02*
Y23736D01*
X659720Y7594D02*
Y23736D01*
X644169Y7051D02*
X654799D01*
X644169Y1146D02*
X654799D01*
X644169D02*
Y7051D01*
X654799Y1146D02*
Y7051D01*
X678937Y23736D02*
X699409D01*
X678937Y7594D02*
X699409D01*
X678937D02*
Y23736D01*
X699409Y7594D02*
Y23736D01*
X683858Y7051D02*
X694488D01*
X683858Y1146D02*
X694488D01*
X683858D02*
Y7051D01*
X694488Y1146D02*
Y7051D01*
X285236Y23622D02*
X305709D01*
X285236Y7480D02*
X305709D01*
X285236D02*
Y23622D01*
X305709Y7480D02*
Y23622D01*
X290158Y6937D02*
X300787D01*
X290158Y1032D02*
X300787D01*
X290158D02*
Y6937D01*
X300787Y1032D02*
Y6937D01*
X245866Y23736D02*
X266339D01*
X245866Y7594D02*
X266339D01*
X245866D02*
Y23736D01*
X266339Y7594D02*
Y23736D01*
X250787Y7051D02*
X261417D01*
X250787Y1146D02*
X261417D01*
X250787D02*
Y7051D01*
X261417Y1146D02*
Y7051D01*
X206276Y23736D02*
X226748D01*
X206276Y7594D02*
X226748D01*
X206276D02*
Y23736D01*
X226748Y7594D02*
Y23736D01*
X211197Y7051D02*
X221827D01*
X211197Y1146D02*
X221827D01*
X211197D02*
Y7051D01*
X221827Y1146D02*
Y7051D01*
X167126Y23622D02*
X187598D01*
X167126Y7480D02*
X187598D01*
X167126D02*
Y23622D01*
X187598Y7480D02*
Y23622D01*
X172047Y6937D02*
X182677D01*
X172047Y1032D02*
X182677D01*
X172047D02*
Y6937D01*
X182677Y1032D02*
Y6937D01*
X127535Y23736D02*
X148008D01*
X127535Y7594D02*
X148008D01*
X127535D02*
Y23736D01*
X148008Y7594D02*
Y23736D01*
X132457Y7051D02*
X143087D01*
X132457Y1146D02*
X143087D01*
X132457D02*
Y7051D01*
X143087Y1146D02*
Y7051D01*
X88417Y23622D02*
X108890D01*
X88417Y7480D02*
X108890D01*
X88417D02*
Y23622D01*
X108890Y7480D02*
Y23622D01*
X93339Y6937D02*
X103969D01*
X93339Y1032D02*
X103969D01*
X93339D02*
Y6937D01*
X103969Y1032D02*
Y6937D01*
X659252Y40354D02*
X679724D01*
X659252Y24213D02*
X679724D01*
X659252D02*
Y40354D01*
X679724Y24213D02*
Y40354D01*
X664173Y23669D02*
X674803D01*
X664173Y17764D02*
X674803D01*
X664173D02*
Y23669D01*
X674803Y17764D02*
Y23669D01*
X619882Y40354D02*
X640354D01*
X619882Y24213D02*
X640354D01*
X619882D02*
Y40354D01*
X640354Y24213D02*
Y40354D01*
X624803Y23669D02*
X635433D01*
X624803Y17764D02*
X635433D01*
X624803D02*
Y23669D01*
X635433Y17764D02*
Y23669D01*
X580543Y40354D02*
X601016D01*
X580543Y24213D02*
X601016D01*
X580543D02*
Y40354D01*
X601016Y24213D02*
Y40354D01*
X585464Y23669D02*
X596095D01*
X585464Y17764D02*
X596095D01*
X585464D02*
Y23669D01*
X596095Y17764D02*
Y23669D01*
X541173Y40354D02*
X561646D01*
X541173Y24213D02*
X561646D01*
X541173D02*
Y40354D01*
X561646Y24213D02*
Y40354D01*
X546095Y23669D02*
X556724D01*
X546095Y17764D02*
X556724D01*
X546095D02*
Y23669D01*
X556724Y17764D02*
Y23669D01*
X501803Y40354D02*
X522276D01*
X501803Y24213D02*
X522276D01*
X501803D02*
Y40354D01*
X522276Y24213D02*
Y40354D01*
X506724Y23669D02*
X517354D01*
X506724Y17764D02*
X517354D01*
X506724D02*
Y23669D01*
X517354Y17764D02*
Y23669D01*
X462433Y40354D02*
X482905D01*
X462433Y24213D02*
X482905D01*
X462433D02*
Y40354D01*
X482905Y24213D02*
Y40354D01*
X467354Y23669D02*
X477984D01*
X467354Y17764D02*
X477984D01*
X467354D02*
Y23669D01*
X477984Y17764D02*
Y23669D01*
X423063Y40354D02*
X443535D01*
X423063Y24213D02*
X443535D01*
X423063D02*
Y40354D01*
X443535Y24213D02*
Y40354D01*
X427984Y23669D02*
X438614D01*
X427984Y17764D02*
X438614D01*
X427984D02*
Y23669D01*
X438614Y17764D02*
Y23669D01*
X388614D02*
X399244D01*
X388614Y17764D02*
X399244D01*
X388614D02*
Y23669D01*
X399244Y17764D02*
Y23669D01*
X349244D02*
X359874D01*
X349244Y17764D02*
X359874D01*
X349244D02*
Y23669D01*
X359874Y17764D02*
Y23669D01*
X304953Y40354D02*
X325425D01*
X304953Y24213D02*
X325425D01*
X304953D02*
Y40354D01*
X325425Y24213D02*
Y40354D01*
X309874Y23669D02*
X320504D01*
X309874Y17764D02*
X320504D01*
X309874D02*
Y23669D01*
X320504Y17764D02*
Y23669D01*
X265583Y40354D02*
X286055D01*
X265583Y24213D02*
X286055D01*
X265583D02*
Y40354D01*
X286055Y24213D02*
Y40354D01*
X270504Y23669D02*
X281134D01*
X270504Y17764D02*
X281134D01*
X270504D02*
Y23669D01*
X281134Y17764D02*
Y23669D01*
X226213Y40354D02*
X246685D01*
X226213Y24213D02*
X246685D01*
X226213D02*
Y40354D01*
X246685Y24213D02*
Y40354D01*
X231134Y23669D02*
X241764D01*
X231134Y17764D02*
X241764D01*
X231134D02*
Y23669D01*
X241764Y17764D02*
Y23669D01*
X186843Y40354D02*
X207315D01*
X186843Y24213D02*
X207315D01*
X186843D02*
Y40354D01*
X207315Y24213D02*
Y40354D01*
X191764Y23669D02*
X202394D01*
X191764Y17764D02*
X202394D01*
X191764D02*
Y23669D01*
X202394Y17764D02*
Y23669D01*
X147472Y40354D02*
X167945D01*
X147472Y24213D02*
X167945D01*
X147472D02*
Y40354D01*
X167945Y24213D02*
Y40354D01*
X152394Y23669D02*
X163024D01*
X152394Y17764D02*
X163024D01*
X152394D02*
Y23669D01*
X163024Y17764D02*
Y23669D01*
X108071Y40354D02*
X128543D01*
X108071Y24213D02*
X128543D01*
X108071D02*
Y40354D01*
X128543Y24213D02*
Y40354D01*
X112992Y23669D02*
X123622D01*
X112992Y17764D02*
X123622D01*
X112992D02*
Y23669D01*
X123622Y17764D02*
Y23669D01*
X741929Y42717D02*
Y53347D01*
X748622Y42717D02*
Y53347D01*
X741929Y42717D02*
X748622D01*
X741929Y53347D02*
X748622D01*
X744488Y22835D02*
Y27559D01*
X735827Y22835D02*
Y27559D01*
Y22835D02*
X744488D01*
X735827Y27559D02*
X744488D01*
X751378Y2854D02*
Y56201D01*
Y2854D02*
X783366D01*
Y56201D01*
X751378D02*
X783366D01*
X771654Y27559D02*
Y31496D01*
X769685Y29528D02*
X773622D01*
X13780D02*
X17717D01*
X15748Y27559D02*
Y31496D01*
X4035Y2854D02*
X36024D01*
X4035D02*
Y56201D01*
X36024D01*
Y2854D02*
Y56201D01*
X88417Y58071D02*
X108890D01*
X88417Y41929D02*
X108890D01*
X88417D02*
Y58071D01*
X108890Y41929D02*
Y58071D01*
X93339Y41386D02*
X103969D01*
X93339Y35480D02*
X103969D01*
X93339D02*
Y41386D01*
X103969Y35480D02*
Y41386D01*
X127787Y58071D02*
X148260D01*
X127787Y41929D02*
X148260D01*
X127787D02*
Y58071D01*
X148260Y41929D02*
Y58071D01*
X132709Y41386D02*
X143339D01*
X132709Y35480D02*
X143339D01*
X132709D02*
Y41386D01*
X143339Y35480D02*
Y41386D01*
X167157Y58071D02*
X187630D01*
X167157Y41929D02*
X187630D01*
X167157D02*
Y58071D01*
X187630Y41929D02*
Y58071D01*
X172079Y41386D02*
X182709D01*
X172079Y35480D02*
X182709D01*
X172079D02*
Y41386D01*
X182709Y35480D02*
Y41386D01*
X206527Y58071D02*
X227000D01*
X206527Y41929D02*
X227000D01*
X206527D02*
Y58071D01*
X227000Y41929D02*
Y58071D01*
X211449Y41386D02*
X222079D01*
X211449Y35480D02*
X222079D01*
X211449D02*
Y41386D01*
X222079Y35480D02*
Y41386D01*
X245898Y58071D02*
X266370D01*
X245898Y41929D02*
X266370D01*
X245898D02*
Y58071D01*
X266370Y41929D02*
Y58071D01*
X250819Y41386D02*
X261449D01*
X250819Y35480D02*
X261449D01*
X250819D02*
Y41386D01*
X261449Y35480D02*
Y41386D01*
X285268Y58071D02*
X305740D01*
X285268Y41929D02*
X305740D01*
X285268D02*
Y58071D01*
X305740Y41929D02*
Y58071D01*
X290189Y41386D02*
X300819D01*
X290189Y35480D02*
X300819D01*
X290189D02*
Y41386D01*
X300819Y35480D02*
Y41386D01*
X324638Y58071D02*
X345110D01*
X324638Y41929D02*
X345110D01*
X324638D02*
Y58071D01*
X345110Y41929D02*
Y58071D01*
X329559Y41386D02*
X340189D01*
X329559Y35480D02*
X340189D01*
X329559D02*
Y41386D01*
X340189Y35480D02*
Y41386D01*
X364008Y58071D02*
X384480D01*
X364008Y41929D02*
X384480D01*
X364008D02*
Y58071D01*
X384480Y41929D02*
Y58071D01*
X368929Y41386D02*
X379559D01*
X368929Y35480D02*
X379559D01*
X368929D02*
Y41386D01*
X379559Y35480D02*
Y41386D01*
X403378Y58071D02*
X423850D01*
X403378Y41929D02*
X423850D01*
X403378D02*
Y58071D01*
X423850Y41929D02*
Y58071D01*
X408299Y41386D02*
X418929D01*
X408299Y35480D02*
X418929D01*
X408299D02*
Y41386D01*
X418929Y35480D02*
Y41386D01*
X442748Y58071D02*
X463220D01*
X442748Y41929D02*
X463220D01*
X442748D02*
Y58071D01*
X463220Y41929D02*
Y58071D01*
X447669Y41386D02*
X458299D01*
X447669Y35480D02*
X458299D01*
X447669D02*
Y41386D01*
X458299Y35480D02*
Y41386D01*
X482118Y58071D02*
X502591D01*
X482118Y41929D02*
X502591D01*
X482118D02*
Y58071D01*
X502591Y41929D02*
Y58071D01*
X487039Y41386D02*
X497669D01*
X487039Y35480D02*
X497669D01*
X487039D02*
Y41386D01*
X497669Y35480D02*
Y41386D01*
X521488Y58071D02*
X541961D01*
X521488Y41929D02*
X541961D01*
X521488D02*
Y58071D01*
X541961Y41929D02*
Y58071D01*
X526409Y41386D02*
X537039D01*
X526409Y35480D02*
X537039D01*
X526409D02*
Y41386D01*
X537039Y35480D02*
Y41386D01*
X560858Y58071D02*
X581331D01*
X560858Y41929D02*
X581331D01*
X560858D02*
Y58071D01*
X581331Y41929D02*
Y58071D01*
X565779Y41386D02*
X576409D01*
X565779Y35480D02*
X576409D01*
X565779D02*
Y41386D01*
X576409Y35480D02*
Y41386D01*
X600228Y58071D02*
X620701D01*
X600228Y41929D02*
X620701D01*
X600228D02*
Y58071D01*
X620701Y41929D02*
Y58071D01*
X605150Y41386D02*
X615779D01*
X605150Y35480D02*
X615779D01*
X605150D02*
Y41386D01*
X615779Y35480D02*
Y41386D01*
X639598Y58071D02*
X660071D01*
X639598Y41929D02*
X660071D01*
X639598D02*
Y58071D01*
X660071Y41929D02*
Y58071D01*
X644520Y41386D02*
X655150D01*
X644520Y35480D02*
X655150D01*
X644520D02*
Y41386D01*
X655150Y35480D02*
Y41386D01*
X678968Y58071D02*
X699441D01*
X678968Y41929D02*
X699441D01*
X678968D02*
Y58071D01*
X699441Y41929D02*
Y58071D01*
X683890Y41386D02*
X694520D01*
X683890Y35480D02*
X694520D01*
X683890D02*
Y41386D01*
X694520Y35480D02*
Y41386D01*
X742913Y33071D02*
X747638D01*
X742913Y41732D02*
X747638D01*
X742913Y33071D02*
Y41732D01*
X747638Y33071D02*
Y41732D01*
M02*
