G04*
G04 #@! TF.GenerationSoftware,Altium Limited,Altium Designer,19.1.8 (144)*
G04*
G04 Layer_Color=65535*
%FSLAX25Y25*%
%MOIN*%
G70*
G01*
G75*
%ADD10C,0.00984*%
%ADD11C,0.00787*%
D10*
X399146Y25295D02*
X398408Y25721D01*
Y24869D01*
X399146Y25295D01*
X359776D02*
X359037Y25721D01*
Y24869D01*
X359776Y25295D01*
X340059Y8563D02*
X339321Y8989D01*
Y8137D01*
X340059Y8563D01*
X379209Y8677D02*
X378470Y9103D01*
Y8251D01*
X379209Y8677D01*
X418579D02*
X417840Y9103D01*
Y8251D01*
X418579Y8677D01*
X458169Y8563D02*
X457431Y8989D01*
Y8137D01*
X458169Y8563D01*
X497319Y8677D02*
X496581Y9103D01*
Y8251D01*
X497319Y8677D01*
X536909Y8677D02*
X536171Y9103D01*
Y8251D01*
X536909Y8677D01*
X575961D02*
X575222Y9103D01*
Y8251D01*
X575961Y8677D01*
X615650D02*
X614911Y9103D01*
Y8251D01*
X615650Y8677D01*
X654701D02*
X653963Y9103D01*
Y8251D01*
X654701Y8677D01*
X694390Y8677D02*
X693652Y9103D01*
Y8251D01*
X694390Y8677D01*
X300689Y8563D02*
X299951Y8989D01*
Y8137D01*
X300689Y8563D01*
X261319Y8677D02*
X260581Y9103D01*
Y8251D01*
X261319Y8677D01*
X221728D02*
X220990Y9103D01*
Y8251D01*
X221728Y8677D01*
X182579Y8563D02*
X181841Y8989D01*
Y8137D01*
X182579Y8563D01*
X142988Y8677D02*
X142250Y9103D01*
Y8251D01*
X142988Y8677D01*
X103870Y8563D02*
X103132Y8989D01*
Y8137D01*
X103870Y8563D01*
X674705Y25295D02*
X673967Y25721D01*
Y24869D01*
X674705Y25295D01*
X635335D02*
X634596Y25721D01*
Y24869D01*
X635335Y25295D01*
X595996Y25295D02*
X595258Y25721D01*
Y24869D01*
X595996Y25295D01*
X556626Y25295D02*
X555888Y25721D01*
Y24869D01*
X556626Y25295D01*
X517256D02*
X516518Y25721D01*
Y24869D01*
X517256Y25295D01*
X477886D02*
X477148Y25721D01*
Y24869D01*
X477886Y25295D01*
X438516D02*
X437778Y25721D01*
Y24869D01*
X438516Y25295D01*
X320406D02*
X319667Y25721D01*
Y24869D01*
X320406Y25295D01*
X281035D02*
X280297Y25721D01*
Y24869D01*
X281035Y25295D01*
X241665D02*
X240927Y25721D01*
Y24869D01*
X241665Y25295D01*
X202295Y25295D02*
X201557Y25721D01*
Y24869D01*
X202295Y25295D01*
X162925D02*
X162187Y25721D01*
Y24869D01*
X162925Y25295D01*
X123524D02*
X122785Y25721D01*
Y24869D01*
X123524Y25295D01*
X103870Y43012D02*
X103132Y43438D01*
Y42586D01*
X103870Y43012D01*
X143240Y43012D02*
X142502Y43438D01*
Y42586D01*
X143240Y43012D01*
X182610D02*
X181872Y43438D01*
Y42586D01*
X182610Y43012D01*
X221980D02*
X221242Y43438D01*
Y42586D01*
X221980Y43012D01*
X261350D02*
X260612Y43438D01*
Y42586D01*
X261350Y43012D01*
X300721D02*
X299982Y43438D01*
Y42586D01*
X300721Y43012D01*
X340090D02*
X339352Y43438D01*
Y42586D01*
X340090Y43012D01*
X379461Y43012D02*
X378722Y43438D01*
Y42586D01*
X379461Y43012D01*
X418831Y43012D02*
X418092Y43438D01*
Y42586D01*
X418831Y43012D01*
X458201D02*
X457463Y43438D01*
Y42586D01*
X458201Y43012D01*
X497571D02*
X496833Y43438D01*
Y42586D01*
X497571Y43012D01*
X536941D02*
X536203Y43438D01*
Y42586D01*
X536941Y43012D01*
X576311D02*
X575573Y43438D01*
Y42586D01*
X576311Y43012D01*
X615681D02*
X614943Y43438D01*
Y42586D01*
X615681Y43012D01*
X655051D02*
X654313Y43438D01*
Y42586D01*
X655051Y43012D01*
X694421D02*
X693683Y43438D01*
Y42586D01*
X694421Y43012D01*
D11*
X390484Y26181D02*
X393634D01*
X390484D02*
Y29626D01*
Y38386D02*
X393634D01*
X390484Y34941D02*
Y38386D01*
X351114Y26181D02*
X354264D01*
X351114D02*
Y29626D01*
Y38386D02*
X354264D01*
X351114Y34941D02*
Y38386D01*
X331398Y18209D02*
Y21654D01*
X334547D01*
X331398Y9449D02*
Y12894D01*
Y9449D02*
X334547D01*
X370547Y18323D02*
Y21768D01*
X373697D01*
X370547Y9563D02*
Y13008D01*
Y9563D02*
X373697D01*
X409917Y18323D02*
Y21768D01*
X413067D01*
X409917Y9563D02*
Y13008D01*
Y9563D02*
X413067D01*
X449508Y18209D02*
Y21654D01*
X452658D01*
X449508Y9449D02*
Y12894D01*
Y9449D02*
X452658D01*
X488657Y18323D02*
Y21768D01*
X491807D01*
X488657Y9563D02*
Y13008D01*
Y9563D02*
X491807D01*
X528248Y18323D02*
Y21768D01*
X531398D01*
X528248Y9563D02*
Y13008D01*
Y9563D02*
X531398D01*
X567299Y18323D02*
Y21768D01*
X570449D01*
X567299Y9563D02*
Y13008D01*
Y9563D02*
X570449D01*
X606988Y18323D02*
Y21768D01*
X610138D01*
X606988Y9563D02*
Y13008D01*
Y9563D02*
X610138D01*
X646039Y18323D02*
Y21768D01*
X649189D01*
X646039Y9563D02*
Y13008D01*
Y9563D02*
X649189D01*
X685728Y18323D02*
Y21768D01*
X688878D01*
X685728Y9563D02*
Y13008D01*
Y9563D02*
X688878D01*
X292028Y18209D02*
Y21654D01*
X295177D01*
X292028Y9449D02*
Y12894D01*
Y9449D02*
X295177D01*
X252658Y18323D02*
Y21768D01*
X255807D01*
X252658Y9563D02*
Y13008D01*
Y9563D02*
X255807D01*
X213067Y18323D02*
Y21768D01*
X216216D01*
X213067Y9563D02*
Y13008D01*
Y9563D02*
X216216D01*
X173917Y18209D02*
Y21654D01*
X177067D01*
X173917Y9449D02*
Y12894D01*
Y9449D02*
X177067D01*
X134327Y18323D02*
Y21768D01*
X137476D01*
X134327Y9563D02*
Y13008D01*
Y9563D02*
X137476D01*
X95209Y18209D02*
Y21654D01*
X98358D01*
X95209Y9449D02*
Y12894D01*
Y9449D02*
X98358D01*
X666043Y34941D02*
Y38386D01*
X669193D01*
X666043Y26181D02*
Y29626D01*
Y26181D02*
X669193D01*
X626673Y34941D02*
Y38386D01*
X629823D01*
X626673Y26181D02*
Y29626D01*
Y26181D02*
X629823D01*
X587335Y34941D02*
Y38386D01*
X590484D01*
X587335Y26181D02*
Y29626D01*
Y26181D02*
X590484D01*
X547964Y34941D02*
Y38386D01*
X551114D01*
X547964Y26181D02*
Y29626D01*
Y26181D02*
X551114D01*
X508595Y34941D02*
Y38386D01*
X511744D01*
X508595Y26181D02*
Y29626D01*
Y26181D02*
X511744D01*
X469224Y34941D02*
Y38386D01*
X472374D01*
X469224Y26181D02*
Y29626D01*
Y26181D02*
X472374D01*
X429854Y34941D02*
Y38386D01*
X433004D01*
X429854Y26181D02*
Y29626D01*
Y26181D02*
X433004D01*
X311744Y34941D02*
Y38386D01*
X314894D01*
X311744Y26181D02*
Y29626D01*
Y26181D02*
X314894D01*
X272374Y34941D02*
Y38386D01*
X275524D01*
X272374Y26181D02*
Y29626D01*
Y26181D02*
X275524D01*
X233004Y34941D02*
Y38386D01*
X236154D01*
X233004Y26181D02*
Y29626D01*
Y26181D02*
X236154D01*
X193634Y34941D02*
Y38386D01*
X196783D01*
X193634Y26181D02*
Y29626D01*
Y26181D02*
X196783D01*
X154264Y34941D02*
Y38386D01*
X157413D01*
X154264Y26181D02*
Y29626D01*
Y26181D02*
X157413D01*
X114862Y34941D02*
Y38386D01*
X118012D01*
X114862Y26181D02*
Y29626D01*
Y26181D02*
X118012D01*
X95209Y52658D02*
Y56102D01*
X98358D01*
X95209Y43898D02*
Y47343D01*
Y43898D02*
X98358D01*
X134579Y52658D02*
Y56102D01*
X137728D01*
X134579Y43898D02*
Y47343D01*
Y43898D02*
X137728D01*
X173949Y52658D02*
Y56102D01*
X177098D01*
X173949Y43898D02*
Y47343D01*
Y43898D02*
X177098D01*
X213319Y52658D02*
Y56102D01*
X216469D01*
X213319Y43898D02*
Y47343D01*
Y43898D02*
X216469D01*
X252689Y52658D02*
Y56102D01*
X255839D01*
X252689Y43898D02*
Y47343D01*
Y43898D02*
X255839D01*
X292059Y52658D02*
Y56102D01*
X295209D01*
X292059Y43898D02*
Y47343D01*
Y43898D02*
X295209D01*
X331429Y52658D02*
Y56102D01*
X334579D01*
X331429Y43898D02*
Y47343D01*
Y43898D02*
X334579D01*
X370799Y52658D02*
Y56102D01*
X373949D01*
X370799Y43898D02*
Y47343D01*
Y43898D02*
X373949D01*
X410169Y52658D02*
Y56102D01*
X413319D01*
X410169Y43898D02*
Y47343D01*
Y43898D02*
X413319D01*
X449539Y52658D02*
Y56102D01*
X452689D01*
X449539Y43898D02*
Y47343D01*
Y43898D02*
X452689D01*
X488909Y52658D02*
Y56102D01*
X492059D01*
X488909Y43898D02*
Y47343D01*
Y43898D02*
X492059D01*
X528279Y52658D02*
Y56102D01*
X531429D01*
X528279Y43898D02*
Y47343D01*
Y43898D02*
X531429D01*
X567650Y52658D02*
Y56102D01*
X570799D01*
X567650Y43898D02*
Y47343D01*
Y43898D02*
X570799D01*
X607020Y52658D02*
Y56102D01*
X610169D01*
X607020Y43898D02*
Y47343D01*
Y43898D02*
X610169D01*
X646390Y52658D02*
Y56102D01*
X649539D01*
X646390Y43898D02*
Y47343D01*
Y43898D02*
X649539D01*
X685760Y52658D02*
Y56102D01*
X688909D01*
X685760Y43898D02*
Y47343D01*
Y43898D02*
X688909D01*
M02*
