G04*
G04 #@! TF.GenerationSoftware,Altium Limited,Altium Designer,19.1.8 (144)*
G04*
G04 Layer_Color=255*
%FSLAX25Y25*%
%MOIN*%
G70*
G01*
G75*
%ADD12R,0.07087X0.02165*%
%ADD13R,0.03543X0.03937*%
%ADD14R,0.05315X0.04331*%
%ADD15R,0.02756X0.03347*%
%ADD16R,0.03347X0.02756*%
%ADD30R,0.06496X0.06496*%
%ADD31C,0.06496*%
%ADD32C,0.15748*%
D12*
X398654Y28543D02*
D03*
Y36024D02*
D03*
X389205Y32283D02*
D03*
X359283Y28543D02*
D03*
Y36024D02*
D03*
X349835Y32283D02*
D03*
X330118Y15551D02*
D03*
X339567Y19291D02*
D03*
Y11811D02*
D03*
X369268Y15665D02*
D03*
X378716Y19406D02*
D03*
Y11925D02*
D03*
X408638Y15665D02*
D03*
X418087Y19406D02*
D03*
Y11925D02*
D03*
X448228Y15551D02*
D03*
X457677Y19291D02*
D03*
Y11811D02*
D03*
X487378Y15665D02*
D03*
X496827Y19406D02*
D03*
Y11925D02*
D03*
X526968Y15665D02*
D03*
X536417Y19406D02*
D03*
Y11925D02*
D03*
X566020Y15665D02*
D03*
X575468Y19406D02*
D03*
Y11925D02*
D03*
X605709Y15665D02*
D03*
X615158Y19406D02*
D03*
Y11925D02*
D03*
X644760Y15665D02*
D03*
X654209Y19406D02*
D03*
Y11925D02*
D03*
X684449Y15665D02*
D03*
X693898Y19406D02*
D03*
Y11925D02*
D03*
X290748Y15551D02*
D03*
X300197Y19291D02*
D03*
Y11811D02*
D03*
X251378Y15665D02*
D03*
X260827Y19406D02*
D03*
Y11925D02*
D03*
X211787Y15665D02*
D03*
X221236Y19406D02*
D03*
Y11925D02*
D03*
X172638Y15551D02*
D03*
X182087Y19291D02*
D03*
Y11811D02*
D03*
X133047Y15665D02*
D03*
X142496Y19406D02*
D03*
Y11925D02*
D03*
X93929Y15551D02*
D03*
X103378Y19291D02*
D03*
Y11811D02*
D03*
X664764Y32283D02*
D03*
X674213Y36024D02*
D03*
Y28543D02*
D03*
X625394Y32283D02*
D03*
X634842Y36024D02*
D03*
Y28543D02*
D03*
X586055Y32283D02*
D03*
X595504Y36024D02*
D03*
Y28543D02*
D03*
X546685Y32283D02*
D03*
X556134Y36024D02*
D03*
Y28543D02*
D03*
X507315Y32283D02*
D03*
X516764Y36024D02*
D03*
Y28543D02*
D03*
X467945Y32283D02*
D03*
X477394Y36024D02*
D03*
Y28543D02*
D03*
X428575Y32283D02*
D03*
X438024Y36024D02*
D03*
Y28543D02*
D03*
X310465Y32283D02*
D03*
X319913Y36024D02*
D03*
Y28543D02*
D03*
X271094Y32283D02*
D03*
X280543Y36024D02*
D03*
Y28543D02*
D03*
X231724Y32283D02*
D03*
X241173Y36024D02*
D03*
Y28543D02*
D03*
X192354Y32283D02*
D03*
X201803Y36024D02*
D03*
Y28543D02*
D03*
X152984Y32283D02*
D03*
X162433Y36024D02*
D03*
Y28543D02*
D03*
X113583Y32283D02*
D03*
X123031Y36024D02*
D03*
Y28543D02*
D03*
X93929Y50000D02*
D03*
X103378Y53740D02*
D03*
Y46260D02*
D03*
X133299Y50000D02*
D03*
X142748Y53740D02*
D03*
Y46260D02*
D03*
X172669Y50000D02*
D03*
X182118Y53740D02*
D03*
Y46260D02*
D03*
X212039Y50000D02*
D03*
X221488Y53740D02*
D03*
Y46260D02*
D03*
X251409Y50000D02*
D03*
X260858Y53740D02*
D03*
Y46260D02*
D03*
X290779Y50000D02*
D03*
X300228Y53740D02*
D03*
Y46260D02*
D03*
X330150Y50000D02*
D03*
X339598Y53740D02*
D03*
Y46260D02*
D03*
X369520Y50000D02*
D03*
X378969Y53740D02*
D03*
Y46260D02*
D03*
X408890Y50000D02*
D03*
X418339Y53740D02*
D03*
Y46260D02*
D03*
X448260Y50000D02*
D03*
X457709Y53740D02*
D03*
Y46260D02*
D03*
X487630Y50000D02*
D03*
X497079Y53740D02*
D03*
Y46260D02*
D03*
X527000Y50000D02*
D03*
X536449Y53740D02*
D03*
Y46260D02*
D03*
X566370Y50000D02*
D03*
X575819Y53740D02*
D03*
Y46260D02*
D03*
X605740Y50000D02*
D03*
X615189Y53740D02*
D03*
Y46260D02*
D03*
X645110Y50000D02*
D03*
X654559Y53740D02*
D03*
Y46260D02*
D03*
X684480Y50000D02*
D03*
X693929Y53740D02*
D03*
Y46260D02*
D03*
D13*
X332185Y3984D02*
D03*
X337500D02*
D03*
X371335Y4098D02*
D03*
X376650D02*
D03*
X410705D02*
D03*
X416020D02*
D03*
X450295Y3984D02*
D03*
X455610D02*
D03*
X489445Y4098D02*
D03*
X494760D02*
D03*
X529035D02*
D03*
X534350D02*
D03*
X568087D02*
D03*
X573401D02*
D03*
X607776D02*
D03*
X613091D02*
D03*
X646827D02*
D03*
X652142D02*
D03*
X686516D02*
D03*
X691831D02*
D03*
X292815Y3984D02*
D03*
X298130D02*
D03*
X253445Y4098D02*
D03*
X258760D02*
D03*
X213854D02*
D03*
X219169D02*
D03*
X174705Y3984D02*
D03*
X180020D02*
D03*
X135114Y4098D02*
D03*
X140429D02*
D03*
X95996Y3984D02*
D03*
X101311D02*
D03*
X666831Y20717D02*
D03*
X672146D02*
D03*
X627461D02*
D03*
X632776D02*
D03*
X588122D02*
D03*
X593437D02*
D03*
X548752D02*
D03*
X554067D02*
D03*
X509382D02*
D03*
X514697D02*
D03*
X470012D02*
D03*
X475327D02*
D03*
X430642D02*
D03*
X435957D02*
D03*
X391272D02*
D03*
X396587D02*
D03*
X351902D02*
D03*
X357217D02*
D03*
X312531D02*
D03*
X317846D02*
D03*
X273161D02*
D03*
X278476D02*
D03*
X233791D02*
D03*
X239106D02*
D03*
X194421D02*
D03*
X199736D02*
D03*
X155051D02*
D03*
X160366D02*
D03*
X115650D02*
D03*
X120965D02*
D03*
X95996Y38433D02*
D03*
X101311D02*
D03*
X135366D02*
D03*
X140681D02*
D03*
X174736D02*
D03*
X180051D02*
D03*
X214106D02*
D03*
X219421D02*
D03*
X253476D02*
D03*
X258791D02*
D03*
X292846D02*
D03*
X298161D02*
D03*
X332217D02*
D03*
X337531D02*
D03*
X371587D02*
D03*
X376902D02*
D03*
X410957D02*
D03*
X416272D02*
D03*
X450327D02*
D03*
X455642D02*
D03*
X489697D02*
D03*
X495012D02*
D03*
X529067D02*
D03*
X534382D02*
D03*
X568437D02*
D03*
X573752D02*
D03*
X607807D02*
D03*
X613122D02*
D03*
X647177D02*
D03*
X652492D02*
D03*
X686547D02*
D03*
X691862D02*
D03*
D14*
X745276Y45276D02*
D03*
Y50787D02*
D03*
D15*
X742618Y25197D02*
D03*
X737697D02*
D03*
D16*
X745276Y34941D02*
D03*
Y39862D02*
D03*
D30*
X744882Y16693D02*
D03*
D31*
Y6693D02*
D03*
D32*
X708661Y29528D02*
D03*
X78740D02*
D03*
M02*
