G04*
G04 #@! TF.GenerationSoftware,Altium Limited,Altium Designer,19.1.8 (144)*
G04*
G04 Layer_Color=16711935*
%FSLAX25Y25*%
%MOIN*%
G70*
G01*
G75*
%ADD41C,0.00394*%
D41*
X738976Y1693D02*
Y21693D01*
X728976D02*
X738976D01*
X728976Y1693D02*
Y21693D01*
Y1693D02*
X738976D01*
X705354Y6693D02*
X706142Y7953D01*
X705354Y6693D02*
X706142Y5433D01*
Y7953D02*
X728976D01*
X706142Y5433D02*
X728976D01*
X706142Y15433D02*
X728976D01*
X706142Y17953D02*
X728976D01*
X705354Y16693D02*
X706142Y15433D01*
X705354Y16693D02*
X706142Y17953D01*
X397374Y26181D02*
Y38386D01*
X390484Y26181D02*
Y38386D01*
Y26181D02*
X397374D01*
X390484Y38386D02*
X397374D01*
X358004Y26181D02*
Y38386D01*
X351114Y26181D02*
Y38386D01*
Y26181D02*
X358004D01*
X351114Y38386D02*
X358004D01*
X331398Y21654D02*
X338287D01*
X331398Y9449D02*
X338287D01*
X331398D02*
Y21654D01*
X338287Y9449D02*
Y21654D01*
X331398Y5854D02*
X338287D01*
X331398Y2114D02*
X338287D01*
X331398D02*
Y5854D01*
X338287Y2114D02*
Y5854D01*
X370547Y21768D02*
X377437D01*
X370547Y9563D02*
X377437D01*
X370547D02*
Y21768D01*
X377437Y9563D02*
Y21768D01*
X370547Y5968D02*
X377437D01*
X370547Y2228D02*
X377437D01*
X370547D02*
Y5968D01*
X377437Y2228D02*
Y5968D01*
X409917Y21768D02*
X416807D01*
X409917Y9563D02*
X416807D01*
X409917D02*
Y21768D01*
X416807Y9563D02*
Y21768D01*
X409917Y5968D02*
X416807D01*
X409917Y2228D02*
X416807D01*
X409917D02*
Y5968D01*
X416807Y2228D02*
Y5968D01*
X449508Y21654D02*
X456398D01*
X449508Y9449D02*
X456398D01*
X449508D02*
Y21654D01*
X456398Y9449D02*
Y21654D01*
X449508Y5854D02*
X456398D01*
X449508Y2114D02*
X456398D01*
X449508D02*
Y5854D01*
X456398Y2114D02*
Y5854D01*
X488657Y21768D02*
X495547D01*
X488657Y9563D02*
X495547D01*
X488657D02*
Y21768D01*
X495547Y9563D02*
Y21768D01*
X488657Y5968D02*
X495547D01*
X488657Y2228D02*
X495547D01*
X488657D02*
Y5968D01*
X495547Y2228D02*
Y5968D01*
X528248Y21768D02*
X535138D01*
X528248Y9563D02*
X535138D01*
X528248D02*
Y21768D01*
X535138Y9563D02*
Y21768D01*
X528248Y5968D02*
X535138D01*
X528248Y2228D02*
X535138D01*
X528248D02*
Y5968D01*
X535138Y2228D02*
Y5968D01*
X567299Y21768D02*
X574189D01*
X567299Y9563D02*
X574189D01*
X567299D02*
Y21768D01*
X574189Y9563D02*
Y21768D01*
X567299Y5968D02*
X574189D01*
X567299Y2228D02*
X574189D01*
X567299D02*
Y5968D01*
X574189Y2228D02*
Y5968D01*
X606988Y21768D02*
X613878D01*
X606988Y9563D02*
X613878D01*
X606988D02*
Y21768D01*
X613878Y9563D02*
Y21768D01*
X606988Y5968D02*
X613878D01*
X606988Y2228D02*
X613878D01*
X606988D02*
Y5968D01*
X613878Y2228D02*
Y5968D01*
X646039Y21768D02*
X652929D01*
X646039Y9563D02*
X652929D01*
X646039D02*
Y21768D01*
X652929Y9563D02*
Y21768D01*
X646039Y5968D02*
X652929D01*
X646039Y2228D02*
X652929D01*
X646039D02*
Y5968D01*
X652929Y2228D02*
Y5968D01*
X685728Y21768D02*
X692618D01*
X685728Y9563D02*
X692618D01*
X685728D02*
Y21768D01*
X692618Y9563D02*
Y21768D01*
X685728Y5968D02*
X692618D01*
X685728Y2228D02*
X692618D01*
X685728D02*
Y5968D01*
X692618Y2228D02*
Y5968D01*
X292028Y21654D02*
X298917D01*
X292028Y9449D02*
X298917D01*
X292028D02*
Y21654D01*
X298917Y9449D02*
Y21654D01*
X292028Y5854D02*
X298917D01*
X292028Y2114D02*
X298917D01*
X292028D02*
Y5854D01*
X298917Y2114D02*
Y5854D01*
X252658Y21768D02*
X259547D01*
X252658Y9563D02*
X259547D01*
X252658D02*
Y21768D01*
X259547Y9563D02*
Y21768D01*
X252658Y5968D02*
X259547D01*
X252658Y2228D02*
X259547D01*
X252658D02*
Y5968D01*
X259547Y2228D02*
Y5968D01*
X213067Y21768D02*
X219957D01*
X213067Y9563D02*
X219957D01*
X213067D02*
Y21768D01*
X219957Y9563D02*
Y21768D01*
X213067Y5968D02*
X219957D01*
X213067Y2228D02*
X219957D01*
X213067D02*
Y5968D01*
X219957Y2228D02*
Y5968D01*
X173917Y21654D02*
X180807D01*
X173917Y9449D02*
X180807D01*
X173917D02*
Y21654D01*
X180807Y9449D02*
Y21654D01*
X173917Y5854D02*
X180807D01*
X173917Y2114D02*
X180807D01*
X173917D02*
Y5854D01*
X180807Y2114D02*
Y5854D01*
X134327Y21768D02*
X141217D01*
X134327Y9563D02*
X141217D01*
X134327D02*
Y21768D01*
X141217Y9563D02*
Y21768D01*
X134327Y5968D02*
X141217D01*
X134327Y2228D02*
X141217D01*
X134327D02*
Y5968D01*
X141217Y2228D02*
Y5968D01*
X95209Y21654D02*
X102098D01*
X95209Y9449D02*
X102098D01*
X95209D02*
Y21654D01*
X102098Y9449D02*
Y21654D01*
X95209Y5854D02*
X102098D01*
X95209Y2114D02*
X102098D01*
X95209D02*
Y5854D01*
X102098Y2114D02*
Y5854D01*
X666043Y38386D02*
X672933D01*
X666043Y26181D02*
X672933D01*
X666043D02*
Y38386D01*
X672933Y26181D02*
Y38386D01*
X666043Y22587D02*
X672933D01*
X666043Y18846D02*
X672933D01*
X666043D02*
Y22587D01*
X672933Y18846D02*
Y22587D01*
X626673Y38386D02*
X633563D01*
X626673Y26181D02*
X633563D01*
X626673D02*
Y38386D01*
X633563Y26181D02*
Y38386D01*
X626673Y22587D02*
X633563D01*
X626673Y18846D02*
X633563D01*
X626673D02*
Y22587D01*
X633563Y18846D02*
Y22587D01*
X587335Y38386D02*
X594224D01*
X587335Y26181D02*
X594224D01*
X587335D02*
Y38386D01*
X594224Y26181D02*
Y38386D01*
X587335Y22587D02*
X594224D01*
X587335Y18846D02*
X594224D01*
X587335D02*
Y22587D01*
X594224Y18846D02*
Y22587D01*
X547964Y38386D02*
X554854D01*
X547964Y26181D02*
X554854D01*
X547964D02*
Y38386D01*
X554854Y26181D02*
Y38386D01*
X547964Y22587D02*
X554854D01*
X547964Y18846D02*
X554854D01*
X547964D02*
Y22587D01*
X554854Y18846D02*
Y22587D01*
X508595Y38386D02*
X515484D01*
X508595Y26181D02*
X515484D01*
X508595D02*
Y38386D01*
X515484Y26181D02*
Y38386D01*
X508595Y22587D02*
X515484D01*
X508595Y18846D02*
X515484D01*
X508595D02*
Y22587D01*
X515484Y18846D02*
Y22587D01*
X469224Y38386D02*
X476114D01*
X469224Y26181D02*
X476114D01*
X469224D02*
Y38386D01*
X476114Y26181D02*
Y38386D01*
X469224Y22587D02*
X476114D01*
X469224Y18846D02*
X476114D01*
X469224D02*
Y22587D01*
X476114Y18846D02*
Y22587D01*
X429854Y38386D02*
X436744D01*
X429854Y26181D02*
X436744D01*
X429854D02*
Y38386D01*
X436744Y26181D02*
Y38386D01*
X429854Y22587D02*
X436744D01*
X429854Y18846D02*
X436744D01*
X429854D02*
Y22587D01*
X436744Y18846D02*
Y22587D01*
X390484D02*
X397374D01*
X390484Y18846D02*
X397374D01*
X390484D02*
Y22587D01*
X397374Y18846D02*
Y22587D01*
X351114D02*
X358004D01*
X351114Y18846D02*
X358004D01*
X351114D02*
Y22587D01*
X358004Y18846D02*
Y22587D01*
X311744Y38386D02*
X318634D01*
X311744Y26181D02*
X318634D01*
X311744D02*
Y38386D01*
X318634Y26181D02*
Y38386D01*
X311744Y22587D02*
X318634D01*
X311744Y18846D02*
X318634D01*
X311744D02*
Y22587D01*
X318634Y18846D02*
Y22587D01*
X272374Y38386D02*
X279264D01*
X272374Y26181D02*
X279264D01*
X272374D02*
Y38386D01*
X279264Y26181D02*
Y38386D01*
X272374Y22587D02*
X279264D01*
X272374Y18846D02*
X279264D01*
X272374D02*
Y22587D01*
X279264Y18846D02*
Y22587D01*
X233004Y38386D02*
X239894D01*
X233004Y26181D02*
X239894D01*
X233004D02*
Y38386D01*
X239894Y26181D02*
Y38386D01*
X233004Y22587D02*
X239894D01*
X233004Y18846D02*
X239894D01*
X233004D02*
Y22587D01*
X239894Y18846D02*
Y22587D01*
X193634Y38386D02*
X200524D01*
X193634Y26181D02*
X200524D01*
X193634D02*
Y38386D01*
X200524Y26181D02*
Y38386D01*
X193634Y22587D02*
X200524D01*
X193634Y18846D02*
X200524D01*
X193634D02*
Y22587D01*
X200524Y18846D02*
Y22587D01*
X154264Y38386D02*
X161153D01*
X154264Y26181D02*
X161153D01*
X154264D02*
Y38386D01*
X161153Y26181D02*
Y38386D01*
X154264Y22587D02*
X161153D01*
X154264Y18846D02*
X161153D01*
X154264D02*
Y22587D01*
X161153Y18846D02*
Y22587D01*
X114862Y38386D02*
X121752D01*
X114862Y26181D02*
X121752D01*
X114862D02*
Y38386D01*
X121752Y26181D02*
Y38386D01*
X114862Y22587D02*
X121752D01*
X114862Y18846D02*
X121752D01*
X114862D02*
Y22587D01*
X121752Y18846D02*
Y22587D01*
X742421Y43701D02*
Y52362D01*
X748130Y43701D02*
Y52362D01*
X742421Y43701D02*
X748130D01*
X742421Y52362D02*
X748130D01*
X743602Y23327D02*
Y27067D01*
X736713Y23327D02*
Y27067D01*
Y23327D02*
X743602D01*
X736713Y27067D02*
X743602D01*
X761024Y7874D02*
X777953D01*
X761024Y51181D02*
X777953D01*
X761024Y7874D02*
Y51181D01*
X777953D02*
Y55118D01*
Y3937D02*
Y7874D01*
X782283Y3937D02*
Y55118D01*
X777953D02*
X782283D01*
X777953Y3937D02*
X782283D01*
X5118Y55118D02*
X9449D01*
X5118Y3937D02*
X9449D01*
X5118D02*
Y55118D01*
X9449Y51181D02*
Y55118D01*
Y3937D02*
Y7874D01*
X26378D02*
Y51181D01*
X9449Y7874D02*
X26378D01*
X9449Y51181D02*
X26378D01*
X95209Y56102D02*
X102098D01*
X95209Y43898D02*
X102098D01*
X95209D02*
Y56102D01*
X102098Y43898D02*
Y56102D01*
X95209Y40303D02*
X102098D01*
X95209Y36563D02*
X102098D01*
X95209D02*
Y40303D01*
X102098Y36563D02*
Y40303D01*
X134579Y56102D02*
X141469D01*
X134579Y43898D02*
X141469D01*
X134579D02*
Y56102D01*
X141469Y43898D02*
Y56102D01*
X134579Y40303D02*
X141469D01*
X134579Y36563D02*
X141469D01*
X134579D02*
Y40303D01*
X141469Y36563D02*
Y40303D01*
X173949Y56102D02*
X180839D01*
X173949Y43898D02*
X180839D01*
X173949D02*
Y56102D01*
X180839Y43898D02*
Y56102D01*
X173949Y40303D02*
X180839D01*
X173949Y36563D02*
X180839D01*
X173949D02*
Y40303D01*
X180839Y36563D02*
Y40303D01*
X213319Y56102D02*
X220209D01*
X213319Y43898D02*
X220209D01*
X213319D02*
Y56102D01*
X220209Y43898D02*
Y56102D01*
X213319Y40303D02*
X220209D01*
X213319Y36563D02*
X220209D01*
X213319D02*
Y40303D01*
X220209Y36563D02*
Y40303D01*
X252689Y56102D02*
X259579D01*
X252689Y43898D02*
X259579D01*
X252689D02*
Y56102D01*
X259579Y43898D02*
Y56102D01*
X252689Y40303D02*
X259579D01*
X252689Y36563D02*
X259579D01*
X252689D02*
Y40303D01*
X259579Y36563D02*
Y40303D01*
X292059Y56102D02*
X298949D01*
X292059Y43898D02*
X298949D01*
X292059D02*
Y56102D01*
X298949Y43898D02*
Y56102D01*
X292059Y40303D02*
X298949D01*
X292059Y36563D02*
X298949D01*
X292059D02*
Y40303D01*
X298949Y36563D02*
Y40303D01*
X331429Y56102D02*
X338319D01*
X331429Y43898D02*
X338319D01*
X331429D02*
Y56102D01*
X338319Y43898D02*
Y56102D01*
X331429Y40303D02*
X338319D01*
X331429Y36563D02*
X338319D01*
X331429D02*
Y40303D01*
X338319Y36563D02*
Y40303D01*
X370799Y56102D02*
X377689D01*
X370799Y43898D02*
X377689D01*
X370799D02*
Y56102D01*
X377689Y43898D02*
Y56102D01*
X370799Y40303D02*
X377689D01*
X370799Y36563D02*
X377689D01*
X370799D02*
Y40303D01*
X377689Y36563D02*
Y40303D01*
X410169Y56102D02*
X417059D01*
X410169Y43898D02*
X417059D01*
X410169D02*
Y56102D01*
X417059Y43898D02*
Y56102D01*
X410169Y40303D02*
X417059D01*
X410169Y36563D02*
X417059D01*
X410169D02*
Y40303D01*
X417059Y36563D02*
Y40303D01*
X449539Y56102D02*
X456429D01*
X449539Y43898D02*
X456429D01*
X449539D02*
Y56102D01*
X456429Y43898D02*
Y56102D01*
X449539Y40303D02*
X456429D01*
X449539Y36563D02*
X456429D01*
X449539D02*
Y40303D01*
X456429Y36563D02*
Y40303D01*
X488909Y56102D02*
X495799D01*
X488909Y43898D02*
X495799D01*
X488909D02*
Y56102D01*
X495799Y43898D02*
Y56102D01*
X488909Y40303D02*
X495799D01*
X488909Y36563D02*
X495799D01*
X488909D02*
Y40303D01*
X495799Y36563D02*
Y40303D01*
X528279Y56102D02*
X535169D01*
X528279Y43898D02*
X535169D01*
X528279D02*
Y56102D01*
X535169Y43898D02*
Y56102D01*
X528279Y40303D02*
X535169D01*
X528279Y36563D02*
X535169D01*
X528279D02*
Y40303D01*
X535169Y36563D02*
Y40303D01*
X567650Y56102D02*
X574539D01*
X567650Y43898D02*
X574539D01*
X567650D02*
Y56102D01*
X574539Y43898D02*
Y56102D01*
X567650Y40303D02*
X574539D01*
X567650Y36563D02*
X574539D01*
X567650D02*
Y40303D01*
X574539Y36563D02*
Y40303D01*
X607020Y56102D02*
X613909D01*
X607020Y43898D02*
X613909D01*
X607020D02*
Y56102D01*
X613909Y43898D02*
Y56102D01*
X607020Y40303D02*
X613909D01*
X607020Y36563D02*
X613909D01*
X607020D02*
Y40303D01*
X613909Y36563D02*
Y40303D01*
X646390Y56102D02*
X653279D01*
X646390Y43898D02*
X653279D01*
X646390D02*
Y56102D01*
X653279Y43898D02*
Y56102D01*
X646390Y40303D02*
X653279D01*
X646390Y36563D02*
X653279D01*
X646390D02*
Y40303D01*
X653279Y36563D02*
Y40303D01*
X685760Y56102D02*
X692650D01*
X685760Y43898D02*
X692650D01*
X685760D02*
Y56102D01*
X692650Y43898D02*
Y56102D01*
X685760Y40303D02*
X692650D01*
X685760Y36563D02*
X692650D01*
X685760D02*
Y40303D01*
X692650Y36563D02*
Y40303D01*
X743405Y33957D02*
X747146D01*
X743405Y40846D02*
X747146D01*
X743405Y33957D02*
Y40846D01*
X747146Y33957D02*
Y40846D01*
M02*
