M48
;Layer_Color=9474304
;FILE_FORMAT=2:5
INCH,TZ
;TYPE=PLATED
T1F00S00C0.01181
T2F00S00C0.01378
T3F00S00C0.04331
T4F00S00C0.09449
%
T01
X727559Y3937
X731496
Y15748
X735433
X727559
X735433Y38976
Y42913
Y46850
X739370
Y42913
Y38976
X751575Y45276
X755905
X764173Y22835
X767717
X771260
Y19291
X767717
Y15748
X771260
X764173
Y19291
T02
X87402Y15748
X95669Y33465
X107087Y32283
X103150Y28346
X107087Y40551
X88189Y50000
X127165
X135433Y33858
X130709Y28346
X125591Y23228
X126378Y15354
X115354Y16142
X105905Y3937
X145276
X155118Y16142
X142717Y28346
X146457Y32283
Y40551
X166535Y50000
X174016Y33858
X170079Y28346
X164567Y23228
X166142Y15354
X194095Y16142
X205512Y15354
X204331Y23228
X209055Y28740
X214173Y33858
X221260Y28346
X225590Y32283
X225197Y40551
X205512Y50000
X185827Y40551
Y32283
X182283Y28346
X184646Y3937
X224016
X233858Y15748
X244488Y14961
X243701Y23228
X248819Y28346
X253150Y34252
X261024Y28346
X264961Y32283
X264173Y40551
X244882Y50000
X284646
X292520Y33858
X288189Y28346
X283071Y22835
X284252Y15748
X272835Y16142
X263386Y3937
X302362
X300000Y28346
X304331Y32283
X303543Y40551
X324016Y50000
X331890Y33858
X327559Y28346
X322441Y23228
X323622Y15354
X312598Y16142
X339764Y28346
X343307Y32283
X343701Y40551
X362992Y50000
X371260Y34252
X366929Y28346
X361811Y23228
X362598Y15748
X351969Y16535
X342126Y3937
X381496
X391339Y16142
X401968Y15354
X401181Y23228
X406299Y28346
X410630Y33858
X418110Y28346
X422441Y32283
X421654Y40945
X402756Y50000
X382677Y40551
Y32283
X378740Y28346
X430709Y16142
X441732Y15354
X440945Y23622
X445669Y28346
X450000Y33465
X457480Y28346
X461811Y32283
X461024Y40551
X442126Y50000
X459842Y3937
X420472
X470079Y15748
X480709Y15354
X479921Y23228
X483858Y28346
X489370Y34252
X496457Y28346
X501181Y32283
Y40551
X481496Y50000
X520866
X528740Y33465
X524409Y28346
X519291Y23228
X520472Y15354
X509449Y16142
X499606Y3937
X538583
X548819Y16535
X559842Y15748
X558661Y23228
X563779Y28346
X568110Y33465
X575197Y28346
X579921Y32283
Y40551
X599213Y50000
X607874Y33465
X603150Y28346
X598425Y23228
X599213Y15354
X588189Y15748
X577559Y3937
X617323
X615354Y28346
X618898Y32283
X619685Y40551
X560236Y50000
X540158Y40551
X540551Y32283
X536614Y28346
X627559Y15748
X637795Y15354
X637402Y23622
X642520Y28346
X646850Y33858
X654331Y28346
X658268Y32283
Y40551
X638583Y50000
X677953
X686221Y33858
X681890Y28346
X678346Y23622
Y15748
X666929
X656693Y3937
X696850
X693701Y28346
X697638Y40551
X726378Y30709
X745276
X764173Y27559
X766142Y35433
X735433Y3937
T03
X744882Y6693
Y16693
T04
X78740Y29528
X708661
M30
