G04*
G04 #@! TF.GenerationSoftware,Altium Limited,Altium Designer,19.1.8 (144)*
G04*
G04 Layer_Color=16711935*
%FSLAX25Y25*%
%MOIN*%
G70*
G01*
G75*
%ADD22R,0.07296X0.07296*%
%ADD23C,0.07296*%
%ADD24C,0.16548*%
%ADD25C,0.03162*%
%ADD37R,0.11036X0.07887*%
%ADD38R,0.09461X0.03162*%
D22*
X744882Y16693D02*
D03*
D23*
Y6693D02*
D03*
D24*
X708661Y29528D02*
D03*
X78740D02*
D03*
D25*
X739370Y46850D02*
D03*
X735433D02*
D03*
Y38976D02*
D03*
X739370Y42913D02*
D03*
X755905Y45276D02*
D03*
X751575D02*
D03*
X771260Y22835D02*
D03*
Y19291D02*
D03*
Y15748D02*
D03*
X767717Y22835D02*
D03*
X764173D02*
D03*
X767717Y15748D02*
D03*
X764173D02*
D03*
X767717Y19291D02*
D03*
X764173D02*
D03*
Y27559D02*
D03*
X726378Y30709D02*
D03*
X745276D02*
D03*
X735433Y42913D02*
D03*
Y15748D02*
D03*
X731496D02*
D03*
X727559D02*
D03*
Y3937D02*
D03*
X731496D02*
D03*
X735433D02*
D03*
X766142Y35433D02*
D03*
X739370Y38976D02*
D03*
X87402Y15748D02*
D03*
X115354Y16142D02*
D03*
X126378Y15354D02*
D03*
X155118Y16142D02*
D03*
X166142Y15354D02*
D03*
X194095Y16142D02*
D03*
X205512Y15354D02*
D03*
X233858Y15748D02*
D03*
X244488Y14961D02*
D03*
X272835Y16142D02*
D03*
X284252Y15748D02*
D03*
X312598Y16142D02*
D03*
X323622Y15354D02*
D03*
X351969Y16535D02*
D03*
X362598Y15748D02*
D03*
X391339Y16142D02*
D03*
X401968Y15354D02*
D03*
X430709Y16142D02*
D03*
X441732Y15354D02*
D03*
X470079Y15748D02*
D03*
X480709Y15354D02*
D03*
X509449Y16142D02*
D03*
X520472Y15354D02*
D03*
X548819Y16535D02*
D03*
X559842Y15748D02*
D03*
X588189D02*
D03*
X599213Y15354D02*
D03*
X627559Y15748D02*
D03*
X637795Y15354D02*
D03*
X666929Y15748D02*
D03*
X678346D02*
D03*
X686221Y33858D02*
D03*
X658268Y32283D02*
D03*
X646850Y33858D02*
D03*
X618898Y32283D02*
D03*
X607874Y33465D02*
D03*
X579921Y32283D02*
D03*
X568110Y33465D02*
D03*
X540551Y32283D02*
D03*
X528740Y33465D02*
D03*
X501181Y32283D02*
D03*
X489370Y34252D02*
D03*
X461811Y32283D02*
D03*
X450000Y33465D02*
D03*
X422441Y32283D02*
D03*
X410630Y33858D02*
D03*
X382677Y32283D02*
D03*
X371260Y34252D02*
D03*
X343307Y32283D02*
D03*
X331890Y33858D02*
D03*
X304331Y32283D02*
D03*
X292520Y33858D02*
D03*
X264961Y32283D02*
D03*
X253150Y34252D02*
D03*
X225590Y32283D02*
D03*
X214173Y33858D02*
D03*
X185827Y32283D02*
D03*
X174016Y33858D02*
D03*
X146457Y32283D02*
D03*
X135433Y33858D02*
D03*
X107087Y32283D02*
D03*
X95669Y33465D02*
D03*
X88189Y50000D02*
D03*
X127165D02*
D03*
X166535D02*
D03*
X205512D02*
D03*
X244882D02*
D03*
X284646D02*
D03*
X324016D02*
D03*
X362992D02*
D03*
X402756D02*
D03*
X442126D02*
D03*
X481496D02*
D03*
X520866D02*
D03*
X560236D02*
D03*
X599213D02*
D03*
X638583D02*
D03*
X677953D02*
D03*
X681890Y28346D02*
D03*
X642520D02*
D03*
X603150D02*
D03*
X563779D02*
D03*
X524409D02*
D03*
X483858D02*
D03*
X445669D02*
D03*
X406299D02*
D03*
X366929D02*
D03*
X327559D02*
D03*
X288189D02*
D03*
X248819D02*
D03*
X209055Y28740D02*
D03*
X170079Y28346D02*
D03*
X130709D02*
D03*
X142717D02*
D03*
X182283D02*
D03*
X221260D02*
D03*
X261024D02*
D03*
X300000D02*
D03*
X339764D02*
D03*
X378740D02*
D03*
X418110D02*
D03*
X457480D02*
D03*
X496457D02*
D03*
X536614D02*
D03*
X575197D02*
D03*
X615354D02*
D03*
X654331D02*
D03*
X693701D02*
D03*
X103150D02*
D03*
X540158Y40551D02*
D03*
X619685D02*
D03*
X697638D02*
D03*
X658268D02*
D03*
X107087D02*
D03*
X146457D02*
D03*
X185827D02*
D03*
X225197D02*
D03*
X264173D02*
D03*
X303543D02*
D03*
X343701D02*
D03*
X382677D02*
D03*
X421654Y40945D02*
D03*
X461024Y40551D02*
D03*
X501181D02*
D03*
X579921D02*
D03*
X164567Y23228D02*
D03*
X204331D02*
D03*
X105905Y3937D02*
D03*
X145276D02*
D03*
X184646D02*
D03*
X224016D02*
D03*
X263386D02*
D03*
X302362D02*
D03*
X342126D02*
D03*
X381496D02*
D03*
X420472D02*
D03*
X459842D02*
D03*
X499606D02*
D03*
X538583D02*
D03*
X577559D02*
D03*
X617323D02*
D03*
X656693D02*
D03*
X696850D02*
D03*
X678346Y23622D02*
D03*
X637402D02*
D03*
X598425Y23228D02*
D03*
X558661D02*
D03*
X519291D02*
D03*
X479921D02*
D03*
X440945Y23622D02*
D03*
X401181Y23228D02*
D03*
X361811D02*
D03*
X322441D02*
D03*
X283071Y22835D02*
D03*
X243701Y23228D02*
D03*
X125591D02*
D03*
D37*
X765945Y9449D02*
D03*
Y49606D02*
D03*
X21457Y9449D02*
D03*
Y49606D02*
D03*
D38*
X756496Y27559D02*
D03*
Y31496D02*
D03*
Y35433D02*
D03*
Y39370D02*
D03*
Y23622D02*
D03*
Y19685D02*
D03*
X30906Y39370D02*
D03*
Y35433D02*
D03*
Y19685D02*
D03*
Y23622D02*
D03*
Y27559D02*
D03*
Y31496D02*
D03*
M02*
