G04*
G04 #@! TF.GenerationSoftware,Altium Limited,Altium Designer,19.1.8 (144)*
G04*
G04 Layer_Color=32768*
%FSLAX25Y25*%
%MOIN*%
G70*
G01*
G75*
%ADD41C,0.00394*%
%ADD42C,0.00197*%
D41*
X62598Y59055D02*
Y62992D01*
X60630Y61024D02*
X64567D01*
X39370Y109252D02*
Y113189D01*
X37402Y111221D02*
X41339D01*
X60335Y129134D02*
X64075D01*
X62205Y127264D02*
Y131004D01*
X60236Y141732D02*
X64173D01*
X62205Y139764D02*
Y143701D01*
X14665Y129134D02*
X18406D01*
X16535Y127264D02*
Y131004D01*
X14567Y141732D02*
X18504D01*
X16535Y139764D02*
Y143701D01*
Y152067D02*
Y155807D01*
X14665Y153937D02*
X18406D01*
X62205Y152067D02*
Y155807D01*
X60335Y153937D02*
X64075D01*
D42*
X75811Y-393D02*
Y66929D01*
X2189Y-393D02*
X75811D01*
X2189D02*
Y66929D01*
X75811D01*
X37031Y33268D02*
X40968D01*
X39000Y31299D02*
Y35236D01*
X57284Y64370D02*
X67913D01*
X57284Y57677D02*
X67913D01*
X57284D02*
Y64370D01*
X67913Y57677D02*
Y64370D01*
X32677Y116732D02*
X46063D01*
X32677Y105709D02*
X46063D01*
X32677D02*
Y116732D01*
X46063Y105709D02*
Y116732D01*
X55512Y125000D02*
Y133268D01*
X68898Y125000D02*
Y133268D01*
X55512D02*
X68898D01*
X55512Y125000D02*
X68898D01*
X13189Y216535D02*
X17126D01*
X15157Y214567D02*
Y218504D01*
X3445Y243209D02*
X35433D01*
X3445Y189862D02*
Y243209D01*
Y189862D02*
X35433D01*
Y243209D01*
X55315Y135236D02*
Y148228D01*
X69095Y135236D02*
Y148228D01*
X55315D02*
X69095D01*
X55315Y135236D02*
X69095D01*
X23228Y125000D02*
Y133268D01*
X9843Y125000D02*
Y133268D01*
Y125000D02*
X23228D01*
X9843Y133268D02*
X23228D01*
X9646Y135236D02*
Y148228D01*
X23425Y135236D02*
Y148228D01*
X9646D02*
X23425D01*
X9646Y135236D02*
X23425D01*
X61614Y216535D02*
X65551D01*
X63583Y214567D02*
Y218504D01*
X43307Y189862D02*
X75295D01*
Y243209D01*
X43307D02*
X75295D01*
X43307Y189862D02*
Y243209D01*
X11220Y156890D02*
X21850D01*
X11220Y150984D02*
X21850D01*
X11220D02*
Y156890D01*
X21850Y150984D02*
Y156890D01*
X56890D02*
X67520D01*
X56890Y150984D02*
X67520D01*
X56890D02*
Y156890D01*
X67520Y150984D02*
Y156890D01*
M02*
