M48
;Layer_Color=9474304
;FILE_FORMAT=2:5
INCH,TZ
;TYPE=PLATED
T1F00S00C0.01181
T2F00S00C0.01378
T3F00S00C0.03543
T4F00S00C0.06693
T5F00S00C0.09449
;TYPE=NON_PLATED
T6F00S00C0.12598
%
T01
X56693Y68110
Y71653
X60236
Y68110
X63386Y203150
X67323
Y207087
X63386
X71260
Y203150
X53150Y71653
Y68110
X49606
Y71653
X15354Y224410
X11417
Y228346
X15354
X7480
Y224410
T02
X64862Y158563
X59449Y210630
X38189Y206693
X19291Y210630
X19193Y158366
X40945Y142126
X44882Y141732
Y101969
X41339Y98819
X37795Y101969
X34646Y98819
X29921Y114567
X22835Y214567
X17717Y218504
X20866Y222441
X55905Y214567
T03
X14196Y10000
X23999
X53999
X46499Y51181
X36499
X26499
X56499
X63802Y10000
X51499Y61181
X41499
X31499
X21499
T04
X7897Y41339
X70102
T05
X59055Y86614
X19685
X39370Y177165
T06
X16499Y26181
X61499
M30
