G04*
G04 #@! TF.GenerationSoftware,Altium Limited,Altium Designer,19.1.8 (144)*
G04*
G04 Layer_Color=65535*
%FSLAX25Y25*%
%MOIN*%
G70*
G01*
G75*
%ADD10C,0.00984*%
%ADD11C,0.00787*%
%ADD12C,0.00600*%
D10*
X35138Y103937D02*
X34400Y104363D01*
Y103511D01*
X35138Y103937D01*
X57677Y148721D02*
X56939Y149147D01*
Y148294D01*
X57677Y148721D01*
X12008D02*
X11270Y149147D01*
Y148294D01*
X12008Y148721D01*
D11*
X26083Y228740D02*
Y231890D01*
X8858Y238189D02*
Y242421D01*
X4232Y190650D02*
Y242421D01*
X8858D01*
Y238189D02*
X14567D01*
X26083Y201181D02*
Y204331D01*
X8858Y194882D02*
X14567D01*
X4232Y190650D02*
X8858D01*
Y194882D01*
X60236Y147835D02*
X64173D01*
X60236Y135630D02*
X64173D01*
X60236D02*
Y147835D01*
X64173Y135630D02*
Y147835D01*
X14567D02*
X18504D01*
X14567Y135630D02*
X18504D01*
X14567D02*
Y147835D01*
X18504Y135630D02*
Y147835D01*
X52658Y201181D02*
Y204331D01*
X69882Y190650D02*
Y194882D01*
X74508Y190650D02*
Y242421D01*
X69882Y190650D02*
X74508D01*
X64173Y194882D02*
X69882D01*
X52658Y228740D02*
Y231890D01*
X64173Y238189D02*
X69882D01*
Y242421D02*
X74508D01*
X69882Y238189D02*
Y242421D01*
D12*
X27756Y230709D02*
Y229376D01*
Y230042D01*
X31755D01*
X31088Y230709D01*
X31755Y200877D02*
X31088Y202210D01*
X29755Y203543D01*
X28422D01*
X27756Y202877D01*
Y201544D01*
X28422Y200877D01*
X29089D01*
X29755Y201544D01*
Y203543D01*
X50984Y202362D02*
Y203695D01*
Y203029D01*
X46986D01*
X47652Y202362D01*
X46986Y232193D02*
X47652Y230860D01*
X48985Y229528D01*
X50318D01*
X50984Y230194D01*
Y231527D01*
X50318Y232193D01*
X49651D01*
X48985Y231527D01*
Y229528D01*
M02*
