G04*
G04 #@! TF.GenerationSoftware,Altium Limited,Altium Designer,19.1.8 (144)*
G04*
G04 Layer_Color=16711935*
%FSLAX25Y25*%
%MOIN*%
G70*
G01*
G75*
%ADD27C,0.16548*%
%ADD28C,0.13398*%
%ADD29C,0.10642*%
%ADD30C,0.06312*%
%ADD31R,0.06312X0.06312*%
%ADD32C,0.03162*%
D27*
X59055Y86614D02*
D03*
X19685D02*
D03*
X39370Y177165D02*
D03*
D28*
X16499Y26181D02*
D03*
X61499D02*
D03*
D29*
X7897Y41339D02*
D03*
X70102D02*
D03*
D30*
X14196Y10000D02*
D03*
X63802D02*
D03*
X23999D02*
D03*
X53999D02*
D03*
X51499Y61181D02*
D03*
X46499Y51181D02*
D03*
X41499Y61181D02*
D03*
X36499Y51181D02*
D03*
X31499Y61181D02*
D03*
X26499Y51181D02*
D03*
X21499Y61181D02*
D03*
D31*
X56499Y51181D02*
D03*
D32*
X38189Y206693D02*
D03*
X15354Y224410D02*
D03*
X11417D02*
D03*
X7480D02*
D03*
X15354Y228346D02*
D03*
X11417D02*
D03*
X7480D02*
D03*
X71260Y203150D02*
D03*
X67323D02*
D03*
X63386D02*
D03*
X71260Y207087D02*
D03*
X67323D02*
D03*
X63386D02*
D03*
X64862Y158563D02*
D03*
X19193Y158366D02*
D03*
X29921Y114567D02*
D03*
X49606Y68110D02*
D03*
Y71653D02*
D03*
X56693Y68110D02*
D03*
X53150D02*
D03*
Y71653D02*
D03*
X56693D02*
D03*
X60236D02*
D03*
Y68110D02*
D03*
X17717Y218504D02*
D03*
X20866Y222441D02*
D03*
X59449Y210630D02*
D03*
X55905Y214567D02*
D03*
X19291Y210630D02*
D03*
X22835Y214567D02*
D03*
X40945Y142126D02*
D03*
X44882Y141732D02*
D03*
Y101969D02*
D03*
X37795D02*
D03*
X34646Y98819D02*
D03*
X41339D02*
D03*
M02*
