G04*
G04 #@! TF.GenerationSoftware,Altium Limited,Altium Designer,19.1.8 (144)*
G04*
G04 Layer_Color=8421504*
%FSLAX25Y25*%
%MOIN*%
G70*
G01*
G75*
%ADD13R,0.04331X0.05315*%
%ADD14R,0.01673X0.03543*%
%ADD15R,0.03543X0.04134*%
%ADD16R,0.08661X0.02362*%
%ADD17R,0.10236X0.07087*%
G04:AMPARAMS|DCode=18|XSize=21.65mil|YSize=31.5mil|CornerRadius=1.95mil|HoleSize=0mil|Usage=FLASHONLY|Rotation=90.000|XOffset=0mil|YOffset=0mil|HoleType=Round|Shape=RoundedRectangle|*
%AMROUNDEDRECTD18*
21,1,0.02165,0.02760,0,0,90.0*
21,1,0.01776,0.03150,0,0,90.0*
1,1,0.00390,0.01380,0.00888*
1,1,0.00390,0.01380,-0.00888*
1,1,0.00390,-0.01380,-0.00888*
1,1,0.00390,-0.01380,0.00888*
%
%ADD18ROUNDEDRECTD18*%
%ADD19R,0.03543X0.03937*%
D13*
X59842Y61024D02*
D03*
X65354D02*
D03*
D14*
X44094Y114567D02*
D03*
X40945Y114567D02*
D03*
X37795D02*
D03*
X34646D02*
D03*
Y107874D02*
D03*
X37795D02*
D03*
X40945D02*
D03*
X44094D02*
D03*
D15*
X59350Y129134D02*
D03*
X65059D02*
D03*
X19390D02*
D03*
X13681D02*
D03*
D16*
X30315Y206693D02*
D03*
Y210630D02*
D03*
Y226378D02*
D03*
Y222441D02*
D03*
Y218504D02*
D03*
Y214567D02*
D03*
X48425Y226378D02*
D03*
Y222441D02*
D03*
Y206693D02*
D03*
Y210630D02*
D03*
Y214567D02*
D03*
Y218504D02*
D03*
D17*
X20866Y236614D02*
D03*
Y196457D02*
D03*
X57874D02*
D03*
Y236614D02*
D03*
D18*
X57185Y145472D02*
D03*
Y141732D02*
D03*
Y137992D02*
D03*
X67224D02*
D03*
Y145472D02*
D03*
X11516D02*
D03*
Y141732D02*
D03*
Y137992D02*
D03*
X21555D02*
D03*
Y145472D02*
D03*
D19*
X13878Y153937D02*
D03*
X19193D02*
D03*
X59547D02*
D03*
X64862D02*
D03*
M02*
