G04*
G04 #@! TF.GenerationSoftware,Altium Limited,Altium Designer,19.1.8 (144)*
G04*
G04 Layer_Color=16711935*
%FSLAX25Y25*%
%MOIN*%
G70*
G01*
G75*
%ADD41C,0.00394*%
D41*
X7504Y394D02*
Y66142D01*
X70496D01*
Y394D02*
Y66142D01*
X7504Y394D02*
X70496D01*
X58268Y63878D02*
X66929D01*
X58268Y58169D02*
X66929D01*
X58268D02*
Y63878D01*
X66929Y58169D02*
Y63878D01*
X33071Y114370D02*
X45669D01*
X33071Y108071D02*
X45669Y108071D01*
Y114370D01*
X33071Y108071D02*
Y114370D01*
X58760Y127264D02*
Y131004D01*
X65650Y127264D02*
Y131004D01*
X58760D02*
X65650D01*
X58760Y127264D02*
X65650D01*
X4528Y190945D02*
X8858D01*
X4528Y242126D02*
X8858D01*
X4528Y190945D02*
Y242126D01*
X8858Y190945D02*
Y194882D01*
Y238189D02*
Y242126D01*
X25787Y194882D02*
Y238189D01*
X8858D02*
X25787D01*
X8858Y194882D02*
X25787D01*
X58760Y135728D02*
Y147736D01*
X65650Y135728D02*
Y147736D01*
X58760D02*
X65650D01*
X58760Y135728D02*
X65650D01*
X19980Y127264D02*
Y131004D01*
X13091Y127264D02*
Y131004D01*
Y127264D02*
X19980D01*
X13091Y131004D02*
X19980D01*
X13091Y135728D02*
Y147736D01*
X19980Y135728D02*
Y147736D01*
X13091D02*
X19980D01*
X13091Y135728D02*
X19980D01*
X69882Y242126D02*
X74213D01*
X69882Y190945D02*
X74213D01*
Y242126D01*
X69882Y238189D02*
Y242126D01*
Y190945D02*
Y194882D01*
X52953D02*
Y238189D01*
Y194882D02*
X69882D01*
X52953Y238189D02*
X69882D01*
X13091Y155807D02*
X19980D01*
X13091Y152067D02*
X19980D01*
X13091D02*
Y155807D01*
X19980Y152067D02*
Y155807D01*
X58760D02*
X65650D01*
X58760Y152067D02*
X65650D01*
X58760D02*
Y155807D01*
X65650Y152067D02*
Y155807D01*
M02*
