G04*
G04 #@! TF.GenerationSoftware,Altium Limited,Altium Designer,19.1.8 (144)*
G04*
G04 Layer_Color=8388736*
%FSLAX25Y25*%
%MOIN*%
G70*
G01*
G75*
%ADD20R,0.05131X0.06115*%
%ADD21R,0.02473X0.04343*%
%ADD22R,0.04343X0.04934*%
%ADD23R,0.09461X0.03162*%
%ADD24R,0.11036X0.07887*%
G04:AMPARAMS|DCode=25|XSize=29.65mil|YSize=39.5mil|CornerRadius=5.95mil|HoleSize=0mil|Usage=FLASHONLY|Rotation=90.000|XOffset=0mil|YOffset=0mil|HoleType=Round|Shape=RoundedRectangle|*
%AMROUNDEDRECTD25*
21,1,0.02965,0.02760,0,0,90.0*
21,1,0.01776,0.03950,0,0,90.0*
1,1,0.01190,0.01380,0.00888*
1,1,0.01190,0.01380,-0.00888*
1,1,0.01190,-0.01380,-0.00888*
1,1,0.01190,-0.01380,0.00888*
%
%ADD25ROUNDEDRECTD25*%
%ADD26R,0.04343X0.04737*%
%ADD27C,0.16548*%
%ADD28C,0.13398*%
%ADD29C,0.10642*%
%ADD30C,0.06312*%
%ADD31R,0.06312X0.06312*%
%ADD32C,0.03162*%
D20*
X59842Y61024D02*
D03*
X65354D02*
D03*
D21*
X44094Y114567D02*
D03*
X40945Y114567D02*
D03*
X37795D02*
D03*
X34646D02*
D03*
Y107874D02*
D03*
X37795D02*
D03*
X40945D02*
D03*
X44094D02*
D03*
D22*
X59350Y129134D02*
D03*
X65059D02*
D03*
X19390D02*
D03*
X13681D02*
D03*
D23*
X30315Y206693D02*
D03*
Y210630D02*
D03*
Y226378D02*
D03*
Y222441D02*
D03*
Y218504D02*
D03*
Y214567D02*
D03*
X48425Y226378D02*
D03*
Y222441D02*
D03*
Y206693D02*
D03*
Y210630D02*
D03*
Y214567D02*
D03*
Y218504D02*
D03*
D24*
X20866Y236614D02*
D03*
Y196457D02*
D03*
X57874D02*
D03*
Y236614D02*
D03*
D25*
X57185Y145472D02*
D03*
Y141732D02*
D03*
Y137992D02*
D03*
X67224D02*
D03*
Y145472D02*
D03*
X11516D02*
D03*
Y141732D02*
D03*
Y137992D02*
D03*
X21555D02*
D03*
Y145472D02*
D03*
D26*
X13878Y153937D02*
D03*
X19193D02*
D03*
X59547D02*
D03*
X64862D02*
D03*
D27*
X59055Y86614D02*
D03*
X19685D02*
D03*
X39370Y177165D02*
D03*
D28*
X16499Y26181D02*
D03*
X61499D02*
D03*
D29*
X7897Y41339D02*
D03*
X70102D02*
D03*
D30*
X14196Y10000D02*
D03*
X63802D02*
D03*
X23999D02*
D03*
X53999D02*
D03*
X51499Y61181D02*
D03*
X46499Y51181D02*
D03*
X41499Y61181D02*
D03*
X36499Y51181D02*
D03*
X31499Y61181D02*
D03*
X26499Y51181D02*
D03*
X21499Y61181D02*
D03*
D31*
X56499Y51181D02*
D03*
D32*
X38189Y206693D02*
D03*
X15354Y224410D02*
D03*
X11417D02*
D03*
X7480D02*
D03*
X15354Y228346D02*
D03*
X11417D02*
D03*
X7480D02*
D03*
X71260Y203150D02*
D03*
X67323D02*
D03*
X63386D02*
D03*
X71260Y207087D02*
D03*
X67323D02*
D03*
X63386D02*
D03*
X64862Y158563D02*
D03*
X19193Y158366D02*
D03*
X29921Y114567D02*
D03*
X49606Y68110D02*
D03*
Y71653D02*
D03*
X56693Y68110D02*
D03*
X53150D02*
D03*
Y71653D02*
D03*
X56693D02*
D03*
X60236D02*
D03*
Y68110D02*
D03*
X17717Y218504D02*
D03*
X20866Y222441D02*
D03*
X59449Y210630D02*
D03*
X55905Y214567D02*
D03*
X19291Y210630D02*
D03*
X22835Y214567D02*
D03*
X40945Y142126D02*
D03*
X44882Y141732D02*
D03*
Y101969D02*
D03*
X37795D02*
D03*
X34646Y98819D02*
D03*
X41339D02*
D03*
M02*
