G04*
G04 #@! TF.GenerationSoftware,Altium Limited,Altium Designer,19.1.8 (144)*
G04*
G04 Layer_Color=8388736*
%FSLAX25Y25*%
%MOIN*%
G70*
G01*
G75*
%ADD42C,0.04737*%
%ADD43C,0.06706*%
%ADD44R,0.08819X0.08819*%
%ADD45O,0.01654X0.03898*%
%ADD46O,0.03898X0.01654*%
%ADD47R,0.04934X0.04343*%
%ADD48R,0.04343X0.04737*%
%ADD49R,0.16548X0.08674*%
%ADD50R,0.06115X0.11824*%
%ADD51R,0.04737X0.03950*%
%ADD52R,0.03556X0.04147*%
G04:AMPARAMS|DCode=53|XSize=17.84mil|YSize=31.62mil|CornerRadius=5.97mil|HoleSize=0mil|Usage=FLASHONLY|Rotation=0.000|XOffset=0mil|YOffset=0mil|HoleType=Round|Shape=RoundedRectangle|*
%AMROUNDEDRECTD53*
21,1,0.01784,0.01968,0,0,0.0*
21,1,0.00591,0.03162,0,0,0.0*
1,1,0.01194,0.00295,-0.00984*
1,1,0.01194,-0.00295,-0.00984*
1,1,0.01194,-0.00295,0.00984*
1,1,0.01194,0.00295,0.00984*
%
%ADD53ROUNDEDRECTD53*%
G04:AMPARAMS|DCode=54|XSize=17.84mil|YSize=31.62mil|CornerRadius=5.97mil|HoleSize=0mil|Usage=FLASHONLY|Rotation=270.000|XOffset=0mil|YOffset=0mil|HoleType=Round|Shape=RoundedRectangle|*
%AMROUNDEDRECTD54*
21,1,0.01784,0.01968,0,0,270.0*
21,1,0.00591,0.03162,0,0,270.0*
1,1,0.01194,-0.00984,-0.00295*
1,1,0.01194,-0.00984,0.00295*
1,1,0.01194,0.00984,0.00295*
1,1,0.01194,0.00984,-0.00295*
%
%ADD54ROUNDEDRECTD54*%
G04:AMPARAMS|DCode=55|XSize=74.93mil|YSize=74.93mil|CornerRadius=6.01mil|HoleSize=0mil|Usage=FLASHONLY|Rotation=270.000|XOffset=0mil|YOffset=0mil|HoleType=Round|Shape=RoundedRectangle|*
%AMROUNDEDRECTD55*
21,1,0.07493,0.06291,0,0,270.0*
21,1,0.06291,0.07493,0,0,270.0*
1,1,0.01202,-0.03146,-0.03146*
1,1,0.01202,-0.03146,0.03146*
1,1,0.01202,0.03146,0.03146*
1,1,0.01202,0.03146,-0.03146*
%
%ADD55ROUNDEDRECTD55*%
%ADD56R,0.04737X0.04343*%
%ADD57R,0.06902X0.06509*%
%ADD58R,0.14186X0.04658*%
%ADD59R,0.03950X0.03950*%
%ADD60R,0.04343X0.04934*%
%ADD61O,0.07296X0.03162*%
%ADD62R,0.09068X0.09068*%
%ADD63C,0.09068*%
%ADD64C,0.00800*%
%ADD65C,0.06312*%
%ADD66R,0.06312X0.06312*%
%ADD67C,0.10249*%
%ADD68C,0.13595*%
%ADD69R,0.06706X0.06706*%
%ADD70C,0.03162*%
%ADD71C,0.02769*%
%ADD72C,0.05800*%
D42*
X90945Y183071D02*
D03*
D43*
X63386Y168898D02*
D03*
X48701Y211693D02*
D03*
X58701Y201693D02*
D03*
Y211693D02*
D03*
X68701Y201693D02*
D03*
Y211693D02*
D03*
X78701Y201693D02*
D03*
Y211693D02*
D03*
X88701Y201693D02*
D03*
Y211693D02*
D03*
X98701Y201693D02*
D03*
Y211693D02*
D03*
X108701Y201693D02*
D03*
Y211693D02*
D03*
X118701Y201693D02*
D03*
Y211693D02*
D03*
X128701Y201693D02*
D03*
Y211693D02*
D03*
X138701Y201693D02*
D03*
Y211693D02*
D03*
X148701Y201693D02*
D03*
Y211693D02*
D03*
X158701Y201693D02*
D03*
Y211693D02*
D03*
X168701Y201693D02*
D03*
Y211693D02*
D03*
X178701Y201693D02*
D03*
Y211693D02*
D03*
X188701Y201693D02*
D03*
Y211693D02*
D03*
X198701Y201693D02*
D03*
Y211693D02*
D03*
X238701D02*
D03*
Y201693D02*
D03*
X228701Y211693D02*
D03*
Y201693D02*
D03*
X218701Y211693D02*
D03*
Y201693D02*
D03*
X208701Y211693D02*
D03*
Y201693D02*
D03*
D44*
X231102Y159055D02*
D03*
X181890D02*
D03*
D45*
X226181Y166831D02*
D03*
X228150D02*
D03*
X230118D02*
D03*
X232087D02*
D03*
X234055D02*
D03*
X236024D02*
D03*
Y151279D02*
D03*
X234055D02*
D03*
X232087D02*
D03*
X230118D02*
D03*
X228150D02*
D03*
X226181D02*
D03*
X176969Y166831D02*
D03*
X178937D02*
D03*
X180906D02*
D03*
X182874D02*
D03*
X184843D02*
D03*
X186811D02*
D03*
Y151279D02*
D03*
X184843D02*
D03*
X182874D02*
D03*
X180906D02*
D03*
X178937D02*
D03*
X176969D02*
D03*
D46*
X238878Y163977D02*
D03*
Y162008D02*
D03*
Y160039D02*
D03*
Y158071D02*
D03*
Y156103D02*
D03*
Y154134D02*
D03*
X223327D02*
D03*
Y156103D02*
D03*
Y158071D02*
D03*
Y160039D02*
D03*
Y162008D02*
D03*
Y163977D02*
D03*
X189665Y163976D02*
D03*
Y162008D02*
D03*
Y160039D02*
D03*
Y158071D02*
D03*
Y156102D02*
D03*
Y154134D02*
D03*
X174114D02*
D03*
Y156102D02*
D03*
Y158071D02*
D03*
Y160039D02*
D03*
Y162008D02*
D03*
Y163976D02*
D03*
D47*
X141732Y154626D02*
D03*
Y160335D02*
D03*
X199213Y180217D02*
D03*
Y185925D02*
D03*
X207480Y180217D02*
D03*
Y185925D02*
D03*
X141732Y168012D02*
D03*
Y173721D02*
D03*
D48*
X227559Y174409D02*
D03*
X232874D02*
D03*
X178051Y174409D02*
D03*
X183366D02*
D03*
X71949Y145728D02*
D03*
X66634D02*
D03*
X119488Y182303D02*
D03*
X124803D02*
D03*
D49*
X39961Y131555D02*
D03*
X12008D02*
D03*
D50*
X94882Y141004D02*
D03*
X82283D02*
D03*
D51*
X59055Y176634D02*
D03*
Y182539D02*
D03*
D52*
X21949Y190551D02*
D03*
X26870D02*
D03*
D53*
X80906Y162658D02*
D03*
X78937D02*
D03*
X76969D02*
D03*
X75000D02*
D03*
Y151634D02*
D03*
X76969D02*
D03*
X78937D02*
D03*
X80906D02*
D03*
D54*
X72441Y160098D02*
D03*
Y158130D02*
D03*
Y156161D02*
D03*
Y154193D02*
D03*
X83465D02*
D03*
Y156161D02*
D03*
Y158130D02*
D03*
Y160098D02*
D03*
D55*
X77953Y157146D02*
D03*
D56*
X66929Y157047D02*
D03*
Y151732D02*
D03*
D57*
X90551Y160886D02*
D03*
Y168366D02*
D03*
D58*
X76772Y184252D02*
D03*
Y174921D02*
D03*
D59*
X10433Y190551D02*
D03*
X16929D02*
D03*
D60*
X124902Y151181D02*
D03*
X119193D02*
D03*
D61*
X110827Y174803D02*
D03*
Y169803D02*
D03*
Y164803D02*
D03*
Y159803D02*
D03*
X133071Y174803D02*
D03*
Y169803D02*
D03*
Y164803D02*
D03*
Y159803D02*
D03*
D62*
X15748Y175236D02*
D03*
D63*
Y160236D02*
D03*
D64*
X257874Y13780D02*
D03*
X29528D02*
D03*
Y206693D02*
D03*
X257874D02*
D03*
D65*
X206496Y78110D02*
D03*
X211496Y68110D02*
D03*
X216496Y78110D02*
D03*
X221496Y68110D02*
D03*
X226496Y78110D02*
D03*
X201496Y68110D02*
D03*
X196496Y78110D02*
D03*
X141496D02*
D03*
X146496Y68110D02*
D03*
X171496Y78110D02*
D03*
X166496Y68110D02*
D03*
X161496Y78110D02*
D03*
X156496Y68110D02*
D03*
X151496Y78110D02*
D03*
X31496D02*
D03*
X36496Y68110D02*
D03*
X61496Y78110D02*
D03*
X56496Y68110D02*
D03*
X51496Y78110D02*
D03*
X46496Y68110D02*
D03*
X41496Y78110D02*
D03*
X46496Y94095D02*
D03*
X41496Y104095D02*
D03*
X36496Y94095D02*
D03*
X31496Y104095D02*
D03*
X26496Y94095D02*
D03*
X51496Y104095D02*
D03*
X56496Y94095D02*
D03*
X156496D02*
D03*
X151496Y104095D02*
D03*
X146496Y94095D02*
D03*
X141496Y104095D02*
D03*
X136496Y94095D02*
D03*
X161496Y104095D02*
D03*
X166496Y94095D02*
D03*
X111496D02*
D03*
X106496Y104095D02*
D03*
X81496Y94095D02*
D03*
X86496Y104095D02*
D03*
X91496Y94095D02*
D03*
X96496Y104095D02*
D03*
X101496Y94095D02*
D03*
X221496D02*
D03*
X216496Y104095D02*
D03*
X191496Y94095D02*
D03*
X196496Y104095D02*
D03*
X201496Y94095D02*
D03*
X206496Y104095D02*
D03*
X211496Y94095D02*
D03*
X96496Y78110D02*
D03*
X101496Y68110D02*
D03*
X106496Y78110D02*
D03*
X111496Y68110D02*
D03*
X116496Y78110D02*
D03*
X91496Y68110D02*
D03*
X86496Y78110D02*
D03*
X127047Y140945D02*
D03*
D66*
X191496Y68110D02*
D03*
X136496D02*
D03*
X26496D02*
D03*
X61496Y104095D02*
D03*
X171496D02*
D03*
X116496D02*
D03*
X226496D02*
D03*
X81496Y68110D02*
D03*
X117047Y140945D02*
D03*
D67*
X242520Y88110D02*
D03*
X10472Y104134D02*
D03*
X239528Y66142D02*
D03*
X13465Y79134D02*
D03*
X10472Y25118D02*
D03*
X242520D02*
D03*
D68*
X21496Y43110D02*
D03*
X231496D02*
D03*
D69*
X48701Y201693D02*
D03*
D70*
X89764Y153150D02*
D03*
X193701Y115354D02*
D03*
X176772Y142520D02*
D03*
X207480Y171653D02*
D03*
X214173Y181496D02*
D03*
X192126Y178740D02*
D03*
X245669Y172047D02*
D03*
X216535Y168110D02*
D03*
X233071Y181102D02*
D03*
X223228Y174409D02*
D03*
X239370Y174016D02*
D03*
X117717Y189370D02*
D03*
X124016Y188976D02*
D03*
X194488Y166929D02*
D03*
X243701Y165748D02*
D03*
X228740Y143701D02*
D03*
X253150Y152362D02*
D03*
X263386Y147244D02*
D03*
X251575Y144095D02*
D03*
X263779Y140551D02*
D03*
X263386Y134252D02*
D03*
X245669Y144488D02*
D03*
X244882Y137402D02*
D03*
X249213Y133071D02*
D03*
X253543Y127953D02*
D03*
X257087Y122047D02*
D03*
X262205Y52756D02*
D03*
X261024Y58661D02*
D03*
X255512Y59055D02*
D03*
X252362Y63779D02*
D03*
X220472Y131890D02*
D03*
X223228Y125984D02*
D03*
X211811Y124803D02*
D03*
X207874Y120472D02*
D03*
X174016Y174409D02*
D03*
X183465Y178740D02*
D03*
X152362Y164567D02*
D03*
X186614Y114961D02*
D03*
X194488Y162205D02*
D03*
X182283Y136614D02*
D03*
X181890Y144095D02*
D03*
X166929Y150394D02*
D03*
Y140945D02*
D03*
X162992Y155118D02*
D03*
Y146850D02*
D03*
X157874Y151575D02*
D03*
X152756Y156693D02*
D03*
X157480Y159449D02*
D03*
X113386Y151181D02*
D03*
X141732Y148425D02*
D03*
X127165Y169685D02*
D03*
X119587Y159429D02*
D03*
X119193Y164941D02*
D03*
X141732Y179134D02*
D03*
X31890Y190158D02*
D03*
X114173Y182283D02*
D03*
X102362Y135098D02*
D03*
Y139035D02*
D03*
Y142972D02*
D03*
Y146909D02*
D03*
X53543Y182736D02*
D03*
X70079Y190610D02*
D03*
X74409D02*
D03*
X78740D02*
D03*
X83071D02*
D03*
X91339Y174862D02*
D03*
D71*
X131102Y182283D02*
D03*
X10532Y185433D02*
D03*
X96063Y158327D02*
D03*
Y161476D02*
D03*
X62598Y147697D02*
D03*
Y144547D02*
D03*
X65354Y161476D02*
D03*
X68504D02*
D03*
X234055Y156103D02*
D03*
X231102D02*
D03*
X228150D02*
D03*
X234055Y159055D02*
D03*
X231102D02*
D03*
X228150D02*
D03*
X234055Y162008D02*
D03*
X231102D02*
D03*
X228150D02*
D03*
X184843Y156102D02*
D03*
X181890D02*
D03*
X178937D02*
D03*
X184843Y159055D02*
D03*
X181890D02*
D03*
X178937D02*
D03*
X184843Y162008D02*
D03*
X181890D02*
D03*
X178937D02*
D03*
X77953Y157146D02*
D03*
X75984Y155177D02*
D03*
X79921D02*
D03*
Y159114D02*
D03*
X75984D02*
D03*
D72*
X24803Y121654D02*
D03*
X17323D02*
D03*
X24409Y140945D02*
D03*
X16929D02*
D03*
X42126Y173622D02*
D03*
Y181102D02*
D03*
X34646Y173622D02*
D03*
Y181102D02*
D03*
X27165Y173622D02*
D03*
Y181102D02*
D03*
X9449Y141004D02*
D03*
X9843Y121713D02*
D03*
M02*
