G04*
G04 #@! TF.GenerationSoftware,Altium Limited,Altium Designer,19.1.8 (144)*
G04*
G04 Layer_Color=32768*
%FSLAX25Y25*%
%MOIN*%
G70*
G01*
G75*
%ADD113C,0.00394*%
%ADD115C,0.00197*%
D113*
X231102Y157087D02*
Y161024D01*
X229134Y159055D02*
X233071D01*
X181890Y157087D02*
Y161023D01*
X179921Y159055D02*
X183858D01*
X139862Y157480D02*
X143602D01*
X141732Y155610D02*
Y159350D01*
X199213Y181201D02*
Y184941D01*
X197343Y183071D02*
X201083D01*
X207480Y181201D02*
Y184941D01*
X205610Y183071D02*
X209350D01*
X230217Y172539D02*
Y176279D01*
X228346Y174409D02*
X232087D01*
X180709Y172539D02*
Y176279D01*
X178839Y174409D02*
X182579D01*
X24016Y131555D02*
X27953D01*
X25984Y129587D02*
Y133524D01*
X86614Y141004D02*
X90551D01*
X88583Y139035D02*
Y142972D01*
X59055Y177815D02*
Y181358D01*
X57283Y179587D02*
X60827D01*
X22539Y190551D02*
X26280D01*
X24409Y188681D02*
Y192421D01*
X67421Y145728D02*
X71161D01*
X69291Y143858D02*
Y147598D01*
X75984Y157146D02*
X79921D01*
X77953Y155177D02*
Y159114D01*
X66929Y152520D02*
Y156260D01*
X65059Y154390D02*
X68799D01*
X90551Y162658D02*
Y166595D01*
X88583Y164626D02*
X92520D01*
X74803Y179587D02*
X78740D01*
X76772Y177618D02*
Y181555D01*
X12697Y190551D02*
X14665D01*
X13681Y189567D02*
Y191535D01*
X120177Y151181D02*
X123917D01*
X122047Y149311D02*
Y153051D01*
X141732Y168996D02*
Y172736D01*
X139862Y170866D02*
X143602D01*
X120079Y140945D02*
X124016D01*
X122047Y138976D02*
Y142913D01*
X119980Y167303D02*
X123917D01*
X121949Y165335D02*
Y169272D01*
X122146Y180433D02*
Y184173D01*
X120276Y182303D02*
X124016D01*
D115*
X221260Y149213D02*
X240945D01*
X221260Y168898D02*
X240945D01*
Y149213D02*
Y168898D01*
X221260Y149213D02*
Y168898D01*
X172047Y149213D02*
X191732D01*
X172047Y168897D02*
X191732D01*
Y149213D02*
Y168897D01*
X172047Y149213D02*
Y168897D01*
X137598Y150787D02*
Y164173D01*
X145866Y150787D02*
Y164173D01*
X137598Y150787D02*
X145866D01*
X137598Y164173D02*
X145866D01*
X195079Y176378D02*
X203346D01*
X195079Y189764D02*
X203346D01*
X195079Y176378D02*
Y189764D01*
X203346Y176378D02*
Y189764D01*
X203346Y176378D02*
X211614D01*
X203346Y189764D02*
X211614D01*
X203346Y176378D02*
Y189764D01*
X211614Y176378D02*
Y189764D01*
X224902Y177362D02*
X235531D01*
X224902Y171457D02*
X235531D01*
X224902D02*
Y177362D01*
X235531Y171457D02*
Y177362D01*
X175394Y177362D02*
X186024D01*
X175394Y171457D02*
X186024D01*
X175394D02*
Y177362D01*
X186024Y171457D02*
Y177362D01*
X33858Y149606D02*
Y185866D01*
X3937Y149606D02*
X33858D01*
X3937D02*
Y185866D01*
X33858D01*
X18898Y165768D02*
Y169705D01*
X16929Y167736D02*
X20866D01*
X255906Y13780D02*
X259843D01*
X257874Y11811D02*
Y15748D01*
X245276Y26378D02*
X270472D01*
X245276Y1181D02*
Y26378D01*
Y1181D02*
X270472D01*
Y26378D01*
X27559Y13780D02*
X31496D01*
X29528Y11811D02*
Y15748D01*
X16929Y26378D02*
X42126D01*
X16929Y1181D02*
Y26378D01*
Y1181D02*
X42126D01*
Y26378D01*
X27559Y206693D02*
X31496D01*
X29528Y204724D02*
Y208661D01*
X16929Y219291D02*
X42126D01*
X16929Y194095D02*
Y219291D01*
Y194095D02*
X42126D01*
Y219291D01*
X255906Y206693D02*
X259843D01*
X257874Y204724D02*
Y208661D01*
X245276Y219291D02*
X270472D01*
X245276Y194095D02*
Y219291D01*
Y194095D02*
X270472D01*
Y219291D01*
X4961Y-0D02*
Y112598D01*
Y-0D02*
X248031D01*
Y112598D01*
X4961D02*
X248031D01*
X126496Y54331D02*
Y58268D01*
X124528Y56299D02*
X128465D01*
X48819Y113839D02*
Y149272D01*
X3150Y113839D02*
Y149272D01*
Y113839D02*
X48819D01*
X3150Y149272D02*
X48819D01*
X99606Y133524D02*
Y148484D01*
X77559Y133524D02*
Y148484D01*
Y133524D02*
X99606D01*
X77559Y148484D02*
X99606D01*
X55118Y173091D02*
X62992D01*
X55118Y186083D02*
X62992D01*
X55118Y173091D02*
Y186083D01*
X62992Y173091D02*
Y186083D01*
X20079Y188189D02*
Y192913D01*
X28740Y188189D02*
Y192913D01*
X20079D02*
X28740D01*
X20079Y188189D02*
X28740D01*
X74606Y142776D02*
Y148681D01*
X63976Y142776D02*
Y148681D01*
Y142776D02*
X74606D01*
X63976Y148681D02*
X74606D01*
X70079Y149272D02*
Y165020D01*
X85827Y149272D02*
Y165020D01*
X70079Y149272D02*
X85827D01*
X70079Y165020D02*
X85827D01*
X63976Y159705D02*
X69882D01*
X63976Y149075D02*
X69882D01*
Y159705D01*
X63976Y149075D02*
Y159705D01*
X85433Y156161D02*
X95669D01*
X85433Y173091D02*
X95669D01*
X85433Y156161D02*
Y173091D01*
X95669Y156161D02*
Y173091D01*
X67913Y170728D02*
Y188445D01*
X85630D01*
Y170728D02*
Y188445D01*
X67913Y170728D02*
X85630D01*
X8465Y188583D02*
X18898D01*
Y192520D01*
X8465Y188583D02*
Y192520D01*
X18898D01*
X128740Y147047D02*
Y155315D01*
X115354Y147047D02*
Y155315D01*
Y147047D02*
X128740D01*
X115354Y155315D02*
X128740D01*
X137598Y164173D02*
X145866D01*
X137598Y177559D02*
X145866D01*
X137598Y164173D02*
Y177559D01*
X145866Y164173D02*
Y177559D01*
X112461Y135945D02*
Y145945D01*
X131634Y135945D02*
Y145945D01*
X112461D02*
X131634D01*
X112461Y135945D02*
X131634D01*
X105610Y155492D02*
Y179114D01*
X138287Y155492D02*
Y179114D01*
X105610D02*
X138287D01*
X105610Y155492D02*
X138287D01*
X116831Y185256D02*
X127461D01*
X116831Y179350D02*
X127461D01*
X116831D02*
Y185256D01*
X127461Y179350D02*
Y185256D01*
M02*
