G04*
G04 #@! TF.GenerationSoftware,Altium Limited,Altium Designer,19.1.8 (144)*
G04*
G04 Layer_Physical_Order=2*
G04 Layer_Color=32768*
%FSLAX25Y25*%
%MOIN*%
G70*
G01*
G75*
%ADD91C,0.04000*%
G04:AMPARAMS|DCode=92|XSize=115.118mil|YSize=115.118mil|CornerRadius=0mil|HoleSize=0mil|Usage=FLASHONLY|Rotation=0.000|XOffset=0mil|YOffset=0mil|HoleType=Round|Shape=Relief|Width=10mil|Gap=10mil|Entries=4|*
%AMTHD92*
7,0,0,0.11512,0.09512,0.01000,45*
%
%ADD92THD92*%
%ADD93C,0.09512*%
%ADD94C,0.18567*%
%ADD95C,0.07543*%
G04:AMPARAMS|DCode=96|XSize=95.433mil|YSize=95.433mil|CornerRadius=0mil|HoleSize=0mil|Usage=FLASHONLY|Rotation=0.000|XOffset=0mil|YOffset=0mil|HoleType=Round|Shape=Relief|Width=10mil|Gap=10mil|Entries=4|*
%AMTHD96*
7,0,0,0.09543,0.07543,0.01000,45*
%
%ADD96THD96*%
G04:AMPARAMS|DCode=97|XSize=122.992mil|YSize=122.992mil|CornerRadius=0mil|HoleSize=0mil|Usage=FLASHONLY|Rotation=0.000|XOffset=0mil|YOffset=0mil|HoleType=Round|Shape=Relief|Width=10mil|Gap=10mil|Entries=4|*
%AMTHD97*
7,0,0,0.12299,0.10299,0.01000,45*
%
%ADD97THD97*%
%ADD98C,0.16795*%
G04:AMPARAMS|DCode=99|XSize=95.039mil|YSize=95.039mil|CornerRadius=0mil|HoleSize=0mil|Usage=FLASHONLY|Rotation=0.000|XOffset=0mil|YOffset=0mil|HoleType=Round|Shape=Relief|Width=10mil|Gap=10mil|Entries=4|*
%AMTHD99*
7,0,0,0.09504,0.07504,0.01000,45*
%
%ADD99THD99*%
%ADD100C,0.07504*%
%ADD101C,0.05378*%
%ADD102C,0.05181*%
%ADD103C,0.04984*%
G36*
X74410Y165610D02*
X75197Y164823D01*
Y162067D01*
X75787Y161476D01*
X80905Y161476D01*
X81496Y162067D01*
X81496Y166988D01*
X85827Y171319D01*
Y179390D01*
X84842Y180374D01*
X68110Y180374D01*
X66536Y178799D01*
Y172106D01*
X67716Y170925D01*
X72441Y170925D01*
X74410Y168957D01*
Y165610D01*
D02*
G37*
D91*
X257874Y0D02*
X258857Y35D01*
X259835Y140D01*
X260803Y315D01*
X261756Y558D01*
X262689Y869D01*
X263598Y1245D01*
X264478Y1685D01*
X265324Y2187D01*
X266132Y2748D01*
X266898Y3366D01*
X267618Y4036D01*
X268288Y4756D01*
X268905Y5522D01*
X269466Y6330D01*
X269968Y7176D01*
X270408Y8055D01*
X270785Y8964D01*
X271095Y9897D01*
X271339Y10851D01*
X271513Y11818D01*
X271618Y12797D01*
X271654Y13780D01*
Y206694D02*
X271618Y207677D01*
X271513Y208655D01*
X271339Y209623D01*
X271095Y210576D01*
X270785Y211509D01*
X270408Y212418D01*
X269968Y213297D01*
X269466Y214143D01*
X268905Y214951D01*
X268288Y215717D01*
X267618Y216437D01*
X266898Y217107D01*
X266132Y217724D01*
X265324Y218285D01*
X264478Y218787D01*
X263599Y219227D01*
X262690Y219604D01*
X261757Y219914D01*
X260804Y220158D01*
X259836Y220332D01*
X258858Y220437D01*
X257875Y220472D01*
X13780D02*
X12797Y220437D01*
X11818Y220332D01*
X10851Y220158D01*
X9897Y219914D01*
X8964Y219604D01*
X8055Y219227D01*
X7176Y218787D01*
X6330Y218285D01*
X5522Y217724D01*
X4756Y217107D01*
X4036Y216437D01*
X3366Y215717D01*
X2748Y214951D01*
X2187Y214143D01*
X1685Y213297D01*
X1245Y212417D01*
X869Y211508D01*
X558Y210575D01*
X315Y209622D01*
X140Y208654D01*
X35Y207676D01*
X0Y206693D01*
Y13780D02*
X35Y12797D01*
X140Y11818D01*
X315Y10851D01*
X558Y9897D01*
X869Y8964D01*
X1245Y8055D01*
X1685Y7176D01*
X2187Y6330D01*
X2748Y5522D01*
X3366Y4756D01*
X4036Y4036D01*
X4756Y3366D01*
X5522Y2748D01*
X6330Y2187D01*
X7176Y1685D01*
X8055Y1245D01*
X8964Y869D01*
X9897Y558D01*
X10851Y315D01*
X11818Y140D01*
X12797Y35D01*
X13780Y0D01*
X0Y13780D02*
Y206693D01*
X13780Y220472D02*
X257875D01*
X271654Y13780D02*
Y206694D01*
X13780Y0D02*
X257874D01*
D92*
X15748Y175236D02*
D03*
D93*
Y160236D02*
D03*
D94*
X257874Y13780D02*
D03*
X29528D02*
D03*
Y206693D02*
D03*
X257874D02*
D03*
D95*
X206496Y78110D02*
D03*
X221496Y68110D02*
D03*
X226496Y78110D02*
D03*
X201496Y68110D02*
D03*
X196496Y78110D02*
D03*
X191496Y68110D02*
D03*
X136496D02*
D03*
X141496Y78110D02*
D03*
X146496Y68110D02*
D03*
X171496Y78110D02*
D03*
X166496Y68110D02*
D03*
X151496Y78110D02*
D03*
X26496Y68110D02*
D03*
X31496Y78110D02*
D03*
X36496Y68110D02*
D03*
X61496Y78110D02*
D03*
X56496Y68110D02*
D03*
X41496Y78110D02*
D03*
X46496Y94095D02*
D03*
X31496Y104095D02*
D03*
X26496Y94095D02*
D03*
X51496Y104095D02*
D03*
X56496Y94095D02*
D03*
X61496Y104095D02*
D03*
X156496Y94095D02*
D03*
X141496Y104095D02*
D03*
X136496Y94095D02*
D03*
X161496Y104095D02*
D03*
X166496Y94095D02*
D03*
X171496Y104095D02*
D03*
X116496D02*
D03*
X111496Y94095D02*
D03*
X106496Y104095D02*
D03*
X81496Y94095D02*
D03*
X86496Y104095D02*
D03*
X101496Y94095D02*
D03*
X226496Y104095D02*
D03*
X221496Y94095D02*
D03*
X216496Y104095D02*
D03*
X191496Y94095D02*
D03*
X196496Y104095D02*
D03*
X211496Y94095D02*
D03*
X96496Y78110D02*
D03*
X111496Y68110D02*
D03*
X116496Y78110D02*
D03*
X91496Y68110D02*
D03*
X86496Y78110D02*
D03*
X81496Y68110D02*
D03*
X48701Y201693D02*
D03*
Y211693D02*
D03*
X58701Y201693D02*
D03*
Y211693D02*
D03*
X68701Y201693D02*
D03*
X78701D02*
D03*
Y211693D02*
D03*
X88701D02*
D03*
X98701Y201693D02*
D03*
Y211693D02*
D03*
X108701Y201693D02*
D03*
X118701D02*
D03*
Y211693D02*
D03*
X128701Y201693D02*
D03*
Y211693D02*
D03*
X138701Y201693D02*
D03*
X148701D02*
D03*
Y211693D02*
D03*
X158701Y201693D02*
D03*
Y211693D02*
D03*
X168701D02*
D03*
X178701Y201693D02*
D03*
Y211693D02*
D03*
X188701Y201693D02*
D03*
X198701D02*
D03*
Y211693D02*
D03*
X238701D02*
D03*
X228701D02*
D03*
Y201693D02*
D03*
X218701Y211693D02*
D03*
Y201693D02*
D03*
X208701D02*
D03*
D96*
X211496Y68110D02*
D03*
X216496Y78110D02*
D03*
X161496D02*
D03*
X156496Y68110D02*
D03*
X51496Y78110D02*
D03*
X46496Y68110D02*
D03*
X41496Y104095D02*
D03*
X36496Y94095D02*
D03*
X151496Y104095D02*
D03*
X146496Y94095D02*
D03*
X91496D02*
D03*
X96496Y104095D02*
D03*
X201496Y94095D02*
D03*
X206496Y104095D02*
D03*
X101496Y68110D02*
D03*
X106496Y78110D02*
D03*
X68701Y211693D02*
D03*
X88701Y201693D02*
D03*
X108701Y211693D02*
D03*
X138701D02*
D03*
X168701Y201693D02*
D03*
X188701Y211693D02*
D03*
X238701Y201693D02*
D03*
X208701Y211693D02*
D03*
D97*
X242520Y88110D02*
D03*
X10472Y104134D02*
D03*
X239528Y66142D02*
D03*
X13465Y79134D02*
D03*
X10472Y25118D02*
D03*
X242520D02*
D03*
D98*
X21496Y43110D02*
D03*
X231496D02*
D03*
D99*
X117047Y140945D02*
D03*
D100*
X127047D02*
D03*
D101*
X89764Y153150D02*
D03*
X193701Y115354D02*
D03*
X207480Y171653D02*
D03*
X214173Y181496D02*
D03*
X192126Y178740D02*
D03*
X245669Y172047D02*
D03*
X216535Y168110D02*
D03*
X233071Y181102D02*
D03*
X239370Y174016D02*
D03*
X117717Y189370D02*
D03*
X124016Y188976D02*
D03*
X253150Y152362D02*
D03*
X263386Y147244D02*
D03*
X251575Y144095D02*
D03*
X263779Y140551D02*
D03*
X263386Y134252D02*
D03*
X245669Y144488D02*
D03*
X244882Y137402D02*
D03*
X249213Y133071D02*
D03*
X253543Y127953D02*
D03*
X257087Y122047D02*
D03*
X262205Y52756D02*
D03*
X261024Y58661D02*
D03*
X255512Y59055D02*
D03*
X252362Y63779D02*
D03*
X220472Y131890D02*
D03*
X223228Y125984D02*
D03*
X211811Y124803D02*
D03*
X207874Y120472D02*
D03*
X183465Y178740D02*
D03*
X152362Y164567D02*
D03*
X186614Y114961D02*
D03*
X194488Y162205D02*
D03*
X182283Y136614D02*
D03*
X181890Y144095D02*
D03*
X166929Y150394D02*
D03*
Y140945D02*
D03*
X162992Y155118D02*
D03*
Y146850D02*
D03*
X157874Y151575D02*
D03*
X152756Y156693D02*
D03*
X157480Y159449D02*
D03*
X127165Y169685D02*
D03*
X119587Y159429D02*
D03*
X119193Y164941D02*
D03*
X53543Y182736D02*
D03*
X91339Y174862D02*
D03*
D102*
X113386Y151181D02*
D03*
X141732Y148425D02*
D03*
Y179134D02*
D03*
X31890Y190158D02*
D03*
X70079Y190610D02*
D03*
X74409D02*
D03*
X78740D02*
D03*
X83071D02*
D03*
D103*
X131102Y182283D02*
D03*
M02*
