G04*
G04 #@! TF.GenerationSoftware,Altium Limited,Altium Designer,19.1.8 (144)*
G04*
G04 Layer_Color=16711935*
%FSLAX25Y25*%
%MOIN*%
G70*
G01*
G75*
%ADD113C,0.00394*%
%ADD114R,0.00984X0.03150*%
D113*
X228445Y163681D02*
X228181Y164665D01*
X227461Y165386D01*
X226476Y165650D01*
X225492Y165386D01*
X224772Y164665D01*
X224508Y163681D01*
X224772Y162697D01*
X225492Y161976D01*
X226476Y161713D01*
X227461Y161976D01*
X228181Y162697D01*
X228445Y163681D01*
X179232Y163681D02*
X178969Y164665D01*
X178248Y165386D01*
X177264Y165649D01*
X176280Y165386D01*
X175559Y164665D01*
X175295Y163681D01*
X175559Y162697D01*
X176280Y161976D01*
X177264Y161713D01*
X178248Y161976D01*
X178969Y162697D01*
X179232Y163681D01*
X267913Y13780D02*
X267863Y14779D01*
X267714Y15769D01*
X267467Y16739D01*
X267125Y17679D01*
X266691Y18581D01*
X266169Y19435D01*
X265565Y20233D01*
X264884Y20966D01*
X264133Y21629D01*
X263321Y22213D01*
X262454Y22713D01*
X261542Y23125D01*
X260593Y23444D01*
X259617Y23666D01*
X258624Y23791D01*
X257624Y23816D01*
X256626Y23741D01*
X255640Y23567D01*
X254677Y23296D01*
X253745Y22930D01*
X252854Y22474D01*
X252014Y21931D01*
X251231Y21307D01*
X250515Y20608D01*
X249871Y19841D01*
X249307Y19014D01*
X248829Y18135D01*
X248440Y17213D01*
X248145Y16257D01*
X247947Y15276D01*
X247847Y14280D01*
Y13279D01*
X247947Y12283D01*
X248145Y11302D01*
X248440Y10346D01*
X248829Y9424D01*
X249307Y8545D01*
X249871Y7718D01*
X250515Y6951D01*
X251231Y6252D01*
X252014Y5628D01*
X252854Y5085D01*
X253745Y4629D01*
X254677Y4263D01*
X255640Y3992D01*
X256626Y3818D01*
X257624Y3743D01*
X258624Y3768D01*
X259617Y3893D01*
X260593Y4115D01*
X261542Y4434D01*
X262454Y4846D01*
X263321Y5346D01*
X264133Y5930D01*
X264884Y6593D01*
X265565Y7326D01*
X266169Y8124D01*
X266691Y8978D01*
X267125Y9880D01*
X267467Y10820D01*
X267714Y11790D01*
X267863Y12780D01*
X267913Y13780D01*
X39567D02*
X39517Y14779D01*
X39368Y15769D01*
X39121Y16739D01*
X38779Y17679D01*
X38344Y18581D01*
X37822Y19435D01*
X37218Y20233D01*
X36537Y20966D01*
X35787Y21629D01*
X34974Y22213D01*
X34108Y22713D01*
X33195Y23125D01*
X32247Y23444D01*
X31271Y23666D01*
X30278Y23791D01*
X29277Y23816D01*
X28279Y23741D01*
X27294Y23567D01*
X26330Y23296D01*
X25398Y22930D01*
X24508Y22474D01*
X23667Y21931D01*
X22885Y21307D01*
X22168Y20608D01*
X21525Y19841D01*
X20961Y19014D01*
X20482Y18135D01*
X20094Y17213D01*
X19799Y16257D01*
X19600Y15276D01*
X19501Y14280D01*
Y13279D01*
X19600Y12283D01*
X19799Y11302D01*
X20094Y10346D01*
X20482Y9424D01*
X20961Y8545D01*
X21525Y7718D01*
X22168Y6951D01*
X22885Y6252D01*
X23667Y5628D01*
X24508Y5085D01*
X25398Y4629D01*
X26330Y4263D01*
X27294Y3992D01*
X28279Y3818D01*
X29277Y3743D01*
X30278Y3768D01*
X31271Y3893D01*
X32247Y4115D01*
X33195Y4434D01*
X34108Y4846D01*
X34974Y5346D01*
X35787Y5930D01*
X36537Y6593D01*
X37218Y7326D01*
X37822Y8124D01*
X38344Y8978D01*
X38779Y9880D01*
X39121Y10820D01*
X39368Y11790D01*
X39517Y12780D01*
X39567Y13780D01*
Y206693D02*
X39517Y207693D01*
X39368Y208682D01*
X39121Y209652D01*
X38779Y210593D01*
X38344Y211494D01*
X37822Y212348D01*
X37218Y213146D01*
X36537Y213880D01*
X35787Y214542D01*
X34974Y215126D01*
X34108Y215627D01*
X33195Y216038D01*
X32247Y216357D01*
X31271Y216580D01*
X30278Y216704D01*
X29277Y216729D01*
X28279Y216654D01*
X27294Y216481D01*
X26330Y216210D01*
X25398Y215844D01*
X24508Y215387D01*
X23667Y214844D01*
X22885Y214220D01*
X22168Y213521D01*
X21525Y212755D01*
X20961Y211928D01*
X20482Y211049D01*
X20094Y210127D01*
X19799Y209170D01*
X19600Y208189D01*
X19501Y207193D01*
Y206192D01*
X19600Y205197D01*
X19799Y204216D01*
X20094Y203259D01*
X20482Y202337D01*
X20961Y201458D01*
X21525Y200631D01*
X22168Y199864D01*
X22885Y199166D01*
X23667Y198542D01*
X24508Y197999D01*
X25398Y197542D01*
X26330Y197176D01*
X27294Y196905D01*
X28279Y196731D01*
X29277Y196657D01*
X30278Y196682D01*
X31271Y196806D01*
X32247Y197029D01*
X33195Y197347D01*
X34108Y197759D01*
X34974Y198260D01*
X35787Y198844D01*
X36537Y199506D01*
X37218Y200240D01*
X37822Y201038D01*
X38344Y201891D01*
X38779Y202793D01*
X39121Y203734D01*
X39368Y204704D01*
X39517Y205693D01*
X39567Y206693D01*
X267913D02*
X267863Y207693D01*
X267714Y208682D01*
X267467Y209652D01*
X267125Y210593D01*
X266691Y211494D01*
X266169Y212348D01*
X265565Y213146D01*
X264884Y213880D01*
X264133Y214542D01*
X263321Y215126D01*
X262454Y215627D01*
X261542Y216038D01*
X260593Y216357D01*
X259617Y216580D01*
X258624Y216704D01*
X257624Y216729D01*
X256626Y216654D01*
X255640Y216481D01*
X254677Y216210D01*
X253745Y215844D01*
X252854Y215387D01*
X252014Y214844D01*
X251231Y214220D01*
X250515Y213521D01*
X249871Y212755D01*
X249307Y211928D01*
X248829Y211049D01*
X248440Y210127D01*
X248145Y209170D01*
X247947Y208189D01*
X247847Y207193D01*
Y206192D01*
X247947Y205197D01*
X248145Y204216D01*
X248440Y203259D01*
X248829Y202337D01*
X249307Y201458D01*
X249871Y200631D01*
X250515Y199864D01*
X251231Y199166D01*
X252014Y198542D01*
X252854Y197999D01*
X253745Y197542D01*
X254677Y197176D01*
X255640Y196905D01*
X256626Y196731D01*
X257624Y196657D01*
X258624Y196682D01*
X259617Y196806D01*
X260593Y197029D01*
X261542Y197347D01*
X262454Y197759D01*
X263321Y198260D01*
X264133Y198844D01*
X264884Y199506D01*
X265565Y200240D01*
X266169Y201038D01*
X266691Y201891D01*
X267125Y202793D01*
X267467Y203734D01*
X267714Y204704D01*
X267863Y205693D01*
X267913Y206693D01*
X10669Y30906D02*
X10160Y30049D01*
X9691Y29172D01*
X9260Y28274D01*
X8870Y27357D01*
X8522Y26425D01*
X8215Y25477D01*
X7952Y24517D01*
X7731Y23546D01*
X7554Y22566D01*
X7421Y21579D01*
X7332Y20587D01*
X7288Y19592D01*
Y18597D01*
X7332Y17602D01*
X7421Y16610D01*
X7554Y15623D01*
X7731Y14643D01*
X7952Y13672D01*
X8215Y12712D01*
X8522Y11765D01*
X8870Y10832D01*
X9260Y9915D01*
X9691Y9017D01*
X10160Y8140D01*
X10669Y7283D01*
X243740Y7283D02*
X244249Y8140D01*
X244719Y9017D01*
X245149Y9915D01*
X245539Y10832D01*
X245887Y11765D01*
X246194Y12712D01*
X246458Y13672D01*
X246678Y14643D01*
X246855Y15623D01*
X246989Y16610D01*
X247077Y17602D01*
X247122Y18597D01*
Y19592D01*
X247077Y20587D01*
X246989Y21579D01*
X246855Y22566D01*
X246678Y23546D01*
X246458Y24517D01*
X246194Y25477D01*
X245887Y26424D01*
X245539Y27357D01*
X245149Y28274D01*
X244719Y29172D01*
X244249Y30049D01*
X243740Y30906D01*
X82284Y159508D02*
X82020Y160492D01*
X81299Y161213D01*
X80315Y161476D01*
X79331Y161213D01*
X78610Y160492D01*
X78347Y159508D01*
X78610Y158524D01*
X79331Y157803D01*
X80315Y157539D01*
X81299Y157803D01*
X82020Y158524D01*
X82284Y159508D01*
X119587Y173602D02*
X119323Y174587D01*
X118602Y175307D01*
X117618Y175571D01*
X116634Y175307D01*
X115913Y174587D01*
X115650Y173602D01*
X115913Y172618D01*
X116634Y171898D01*
X117618Y171634D01*
X118602Y171898D01*
X119323Y172618D01*
X119587Y173602D01*
X222933Y150886D02*
X239272D01*
X222933Y167225D02*
X239272D01*
Y150886D02*
Y167225D01*
X222933Y150886D02*
Y167225D01*
X173721Y150886D02*
X190059D01*
X173721Y167224D02*
X190059D01*
Y150886D02*
Y167224D01*
X173721Y150886D02*
Y167224D01*
X139862Y154035D02*
Y160925D01*
X143602Y154035D02*
Y160925D01*
X139862Y154035D02*
X143602D01*
X139862Y160925D02*
X143602D01*
X197343Y179626D02*
X201083D01*
X197343Y186516D02*
X201083D01*
X197343Y179626D02*
Y186516D01*
X201083Y179626D02*
Y186516D01*
X205610Y179626D02*
X209350D01*
X205610Y186516D02*
X209350D01*
X205610Y179626D02*
Y186516D01*
X209350Y179626D02*
Y186516D01*
X226772Y176279D02*
X233662D01*
X226772Y172539D02*
X233662D01*
X226772D02*
Y176279D01*
X233662Y172539D02*
Y176279D01*
X177264Y176279D02*
X184153D01*
X177264Y172539D02*
X184153D01*
X177264D02*
Y176279D01*
X184153Y172539D02*
Y176279D01*
X4724Y150394D02*
Y185079D01*
X33071D01*
Y150394D02*
Y185079D01*
X4724Y150394D02*
X33071D01*
X10669Y787D02*
X243740D01*
X10669Y111811D02*
X243740D01*
X10669Y787D02*
Y111811D01*
X243740Y787D02*
Y111811D01*
X36319Y114823D02*
X42717Y121220D01*
X9252Y114823D02*
X36319D01*
X9252D02*
Y148287D01*
X36319D01*
X42717Y141890D01*
Y121220D02*
Y141890D01*
X95276Y135689D02*
Y146319D01*
X81890Y135689D02*
Y146319D01*
Y135689D02*
X95276D01*
X81890Y146319D02*
X95276D01*
X57283Y176240D02*
X60827D01*
X57283Y182933D02*
X60827D01*
X57283Y176240D02*
Y182933D01*
X60827Y176240D02*
Y182933D01*
X20965Y188681D02*
Y192421D01*
X27854Y188681D02*
Y192421D01*
X20965D02*
X27854D01*
X20965Y188681D02*
X27854D01*
X72736Y143858D02*
Y147598D01*
X65846Y143858D02*
Y147598D01*
Y143858D02*
X72736D01*
X65846Y147598D02*
X72736D01*
X72047Y151240D02*
Y163051D01*
X83858Y151240D02*
Y163051D01*
X72047Y151240D02*
X83858D01*
X72047Y163051D02*
X83858D01*
X65059Y157835D02*
X68799D01*
X65059Y150945D02*
X68799D01*
Y157835D01*
X65059Y150945D02*
Y157835D01*
X87795Y160394D02*
X93307D01*
X87795Y168858D02*
X93307D01*
X87795Y160394D02*
Y168858D01*
X93307Y160394D02*
Y168858D01*
X68307Y171122D02*
Y188051D01*
X85236D01*
Y171122D02*
Y188051D01*
X68307Y171122D02*
X85236D01*
X10531Y188976D02*
X16831D01*
Y192126D01*
X10531Y188976D02*
Y192126D01*
X16831D01*
X125492Y149311D02*
Y153051D01*
X118602Y149311D02*
Y153051D01*
Y149311D02*
X125492D01*
X118602Y153051D02*
X125492D01*
X139862Y167421D02*
X143602D01*
X139862Y174311D02*
X143602D01*
X139862Y167421D02*
Y174311D01*
X143602Y167421D02*
Y174311D01*
X112854Y136339D02*
X131240D01*
X112854D02*
Y145551D01*
X131240D01*
X114075Y157461D02*
Y177146D01*
X129823Y157461D02*
Y177146D01*
X114075D02*
X129823D01*
X114075Y157461D02*
X129823D01*
X118701Y184173D02*
X125591D01*
X118701Y180433D02*
X125591D01*
X118701D02*
Y184173D01*
X125591Y180433D02*
Y184173D01*
D114*
X11122Y190551D02*
D03*
M02*
