G04*
G04 #@! TF.GenerationSoftware,Altium Limited,Altium Designer,19.1.8 (144)*
G04*
G04 Layer_Color=128*
%FSLAX25Y25*%
%MOIN*%
G70*
G01*
G75*
%ADD24C,0.03937*%
%ADD25C,0.05906*%
%ADD108R,0.05906X0.05906*%
G36*
X18103Y12500D02*
X18211Y11535D01*
X18747Y9670D01*
X19589Y7920D01*
X20712Y6337D01*
X22085Y4964D01*
X23668Y3841D01*
X25418Y2999D01*
X27283Y2463D01*
X28248Y2355D01*
X28248Y2355D01*
Y6409D01*
X27687Y6529D01*
X26601Y6895D01*
X25584Y7423D01*
X24659Y8100D01*
X23849Y8910D01*
X23172Y9835D01*
X22644Y10852D01*
X22277Y11938D01*
X22158Y12499D01*
X22158Y12499D01*
Y12500D01*
X18103Y12500D01*
D02*
G37*
G36*
X28248Y25204D02*
X27283Y25096D01*
X25418Y24560D01*
X23668Y23718D01*
X22085Y22595D01*
X20712Y21222D01*
X19589Y19639D01*
X18747Y17889D01*
X18211Y16024D01*
X18103Y15059D01*
X18103D01*
X22158D01*
X22277Y15620D01*
X22643Y16706D01*
X23171Y17723D01*
X23848Y18648D01*
X24658Y19458D01*
X25583Y20135D01*
X26600Y20663D01*
X27686Y21030D01*
X28247Y21149D01*
X28247D01*
X28248D01*
X28248Y25204D01*
D02*
G37*
G36*
X30807Y2355D02*
X31772Y2463D01*
X33637Y2999D01*
X35387Y3841D01*
X36970Y4964D01*
X38343Y6337D01*
X39466Y7920D01*
X40308Y9670D01*
X40844Y11535D01*
X40952Y12500D01*
Y12500D01*
X36898D01*
X36778Y11939D01*
X36412Y10853D01*
X35884Y9836D01*
X35207Y8911D01*
X34397Y8101D01*
X33472Y7424D01*
X32455Y6896D01*
X31369Y6530D01*
X30808Y6410D01*
Y6410D01*
X30807D01*
Y2355D01*
D02*
G37*
G36*
X40952Y15059D02*
X40844Y16024D01*
X40308Y17889D01*
X39466Y19639D01*
X38343Y21222D01*
X36970Y22595D01*
X35387Y23718D01*
X33637Y24560D01*
X31772Y25096D01*
X30807Y25204D01*
D01*
Y21150D01*
X31368Y21030D01*
X32454Y20664D01*
X33471Y20136D01*
X34396Y19459D01*
X35206Y18649D01*
X35883Y17724D01*
X36411Y16707D01*
X36778Y15621D01*
X36897Y15060D01*
D01*
Y15059D01*
X40952D01*
D02*
G37*
G36*
X18103Y205413D02*
X18211Y204449D01*
X18747Y202583D01*
X19589Y200834D01*
X20712Y199250D01*
X22085Y197878D01*
X23668Y196755D01*
X25418Y195913D01*
X27283Y195376D01*
X28248Y195268D01*
X28248Y195268D01*
Y199323D01*
X27687Y199443D01*
X26601Y199809D01*
X25584Y200337D01*
X24659Y201013D01*
X23849Y201824D01*
X23172Y202748D01*
X22644Y203765D01*
X22277Y204851D01*
X22158Y205412D01*
X22158Y205412D01*
Y205413D01*
X18103Y205413D01*
D02*
G37*
G36*
X28248Y218117D02*
X27283Y218009D01*
X25418Y217473D01*
X23668Y216631D01*
X22085Y215508D01*
X20712Y214136D01*
X19589Y212552D01*
X18747Y210803D01*
X18211Y208937D01*
X18103Y207972D01*
X18103D01*
X22158D01*
X22277Y208533D01*
X22643Y209619D01*
X23171Y210636D01*
X23848Y211561D01*
X24658Y212371D01*
X25583Y213049D01*
X26600Y213577D01*
X27686Y213943D01*
X28247Y214063D01*
X28247D01*
X28248D01*
X28248Y218117D01*
D02*
G37*
G36*
X30807Y195268D02*
X31772Y195376D01*
X33637Y195913D01*
X35387Y196755D01*
X36970Y197878D01*
X38343Y199250D01*
X39466Y200834D01*
X40308Y202583D01*
X40844Y204449D01*
X40952Y205413D01*
Y205413D01*
X36898D01*
X36778Y204853D01*
X36412Y203767D01*
X35884Y202749D01*
X35207Y201825D01*
X34397Y201014D01*
X33472Y200337D01*
X32455Y199809D01*
X31369Y199443D01*
X30808Y199323D01*
Y199323D01*
X30807D01*
Y195268D01*
D02*
G37*
G36*
X40952Y207972D02*
X40844Y208937D01*
X40308Y210803D01*
X39466Y212552D01*
X38343Y214136D01*
X36970Y215508D01*
X35387Y216631D01*
X33637Y217473D01*
X31772Y218009D01*
X30807Y218117D01*
D01*
Y214063D01*
X31368Y213943D01*
X32454Y213577D01*
X33471Y213049D01*
X34396Y212372D01*
X35206Y211562D01*
X35883Y210637D01*
X36411Y209620D01*
X36778Y208535D01*
X36897Y207974D01*
D01*
Y207972D01*
X40952D01*
D02*
G37*
G36*
X246449Y12500D02*
X246557Y11535D01*
X247094Y9670D01*
X247936Y7920D01*
X249059Y6337D01*
X250431Y4964D01*
X252015Y3841D01*
X253764Y2999D01*
X255630Y2463D01*
X256594Y2355D01*
X256594Y2355D01*
Y6409D01*
X256034Y6529D01*
X254948Y6895D01*
X253930Y7423D01*
X253006Y8100D01*
X252195Y8910D01*
X251518Y9835D01*
X250990Y10852D01*
X250624Y11938D01*
X250504Y12499D01*
X250504Y12499D01*
Y12500D01*
X246449Y12500D01*
D02*
G37*
G36*
X256594Y25204D02*
X255630Y25096D01*
X253764Y24560D01*
X252015Y23718D01*
X250431Y22595D01*
X249059Y21222D01*
X247936Y19639D01*
X247094Y17889D01*
X246557Y16024D01*
X246449Y15059D01*
X246449D01*
X250504D01*
X250624Y15620D01*
X250990Y16706D01*
X251518Y17723D01*
X252194Y18648D01*
X253005Y19458D01*
X253929Y20135D01*
X254946Y20663D01*
X256032Y21030D01*
X256593Y21149D01*
X256593D01*
X256594D01*
X256594Y25204D01*
D02*
G37*
G36*
X259154Y2355D02*
X260118Y2463D01*
X261984Y2999D01*
X263733Y3841D01*
X265317Y4964D01*
X266689Y6337D01*
X267812Y7920D01*
X268654Y9670D01*
X269191Y11535D01*
X269299Y12500D01*
Y12500D01*
X265244D01*
X265124Y11939D01*
X264758Y10853D01*
X264230Y9836D01*
X263554Y8911D01*
X262743Y8101D01*
X261819Y7424D01*
X260802Y6896D01*
X259716Y6530D01*
X259155Y6410D01*
Y6410D01*
X259154D01*
Y2355D01*
D02*
G37*
G36*
X269299Y15059D02*
X269191Y16024D01*
X268654Y17889D01*
X267812Y19639D01*
X266689Y21222D01*
X265317Y22595D01*
X263733Y23718D01*
X261984Y24560D01*
X260118Y25096D01*
X259154Y25204D01*
D01*
Y21150D01*
X259714Y21030D01*
X260800Y20664D01*
X261818Y20136D01*
X262742Y19459D01*
X263553Y18649D01*
X264230Y17724D01*
X264758Y16707D01*
X265124Y15621D01*
X265244Y15060D01*
D01*
Y15059D01*
X269299D01*
D02*
G37*
G36*
X246449Y205413D02*
X246557Y204449D01*
X247094Y202583D01*
X247936Y200834D01*
X249059Y199250D01*
X250431Y197878D01*
X252015Y196755D01*
X253764Y195913D01*
X255630Y195376D01*
X256594Y195268D01*
X256594Y195268D01*
Y199323D01*
X256034Y199443D01*
X254948Y199809D01*
X253930Y200337D01*
X253006Y201013D01*
X252195Y201824D01*
X251518Y202748D01*
X250990Y203765D01*
X250624Y204851D01*
X250504Y205412D01*
X250504Y205412D01*
Y205413D01*
X246449Y205413D01*
D02*
G37*
G36*
X256594Y218117D02*
X255630Y218009D01*
X253764Y217473D01*
X252015Y216631D01*
X250431Y215508D01*
X249059Y214136D01*
X247936Y212552D01*
X247094Y210803D01*
X246557Y208937D01*
X246449Y207972D01*
X246449D01*
X250504D01*
X250624Y208533D01*
X250990Y209619D01*
X251518Y210636D01*
X252194Y211561D01*
X253005Y212371D01*
X253929Y213049D01*
X254946Y213577D01*
X256032Y213943D01*
X256593Y214063D01*
X256593D01*
X256594D01*
X256594Y218117D01*
D02*
G37*
G36*
X259154Y195268D02*
X260118Y195376D01*
X261984Y195913D01*
X263733Y196755D01*
X265317Y197878D01*
X266689Y199250D01*
X267812Y200834D01*
X268654Y202583D01*
X269191Y204449D01*
X269299Y205413D01*
Y205413D01*
X265244D01*
X265124Y204853D01*
X264758Y203767D01*
X264230Y202749D01*
X263554Y201825D01*
X262743Y201014D01*
X261819Y200337D01*
X260802Y199809D01*
X259716Y199443D01*
X259155Y199323D01*
Y199323D01*
X259154D01*
Y195268D01*
D02*
G37*
G36*
X269299Y207972D02*
X269191Y208937D01*
X268654Y210803D01*
X267812Y212552D01*
X266689Y214136D01*
X265317Y215508D01*
X263733Y216631D01*
X261984Y217473D01*
X260118Y218009D01*
X259154Y218117D01*
D01*
Y214063D01*
X259714Y213943D01*
X260800Y213577D01*
X261818Y213049D01*
X262742Y212372D01*
X263553Y211562D01*
X264230Y210637D01*
X264758Y209620D01*
X265124Y208535D01*
X265244Y207974D01*
D01*
Y207972D01*
X269299D01*
D02*
G37*
D24*
X211811Y107480D02*
D03*
X196063Y109843D02*
D03*
X206693Y97244D02*
D03*
X189764Y99606D02*
D03*
X161417Y109843D02*
D03*
X141339D02*
D03*
X161024Y97638D02*
D03*
X131890D02*
D03*
X106299Y109843D02*
D03*
X86221D02*
D03*
X96850Y97638D02*
D03*
X77165Y98032D02*
D03*
X37402Y82284D02*
D03*
X57087Y74410D02*
D03*
X92126Y81890D02*
D03*
X112205Y74410D02*
D03*
X155905D02*
D03*
X175984D02*
D03*
X211024D02*
D03*
X231102D02*
D03*
X201575Y62205D02*
D03*
X221654D02*
D03*
X166535D02*
D03*
X146457D02*
D03*
X117323Y68898D02*
D03*
X96063Y71653D02*
D03*
X40945D02*
D03*
X62205Y69291D02*
D03*
X31496Y109843D02*
D03*
X30709Y90158D02*
D03*
X50787D02*
D03*
X51575Y109843D02*
D03*
D25*
X112598Y53150D02*
D03*
D108*
X92520D02*
D03*
M02*
