G04*
G04 #@! TF.GenerationSoftware,Altium Limited,Altium Designer,19.1.8 (144)*
G04*
G04 Layer_Color=8421504*
%FSLAX25Y25*%
%MOIN*%
G70*
G01*
G75*
G04:AMPARAMS|DCode=19|XSize=61.02mil|YSize=61.02mil|CornerRadius=1.83mil|HoleSize=0mil|Usage=FLASHONLY|Rotation=270.000|XOffset=0mil|YOffset=0mil|HoleType=Round|Shape=RoundedRectangle|*
%AMROUNDEDRECTD19*
21,1,0.06102,0.05736,0,0,270.0*
21,1,0.05736,0.06102,0,0,270.0*
1,1,0.00366,-0.02868,-0.02868*
1,1,0.00366,-0.02868,0.02868*
1,1,0.00366,0.02868,0.02868*
1,1,0.00366,0.02868,-0.02868*
%
%ADD19ROUNDEDRECTD19*%
%ADD20R,0.03248X0.03248*%
%ADD21R,0.03248X0.03248*%
%ADD22R,0.03248X0.03248*%
%ADD23R,0.03248X0.03248*%
%ADD24C,0.03937*%
%ADD25C,0.05906*%
%ADD26O,0.00906X0.03150*%
%ADD27O,0.03150X0.00906*%
%ADD28R,0.04134X0.03543*%
%ADD29R,0.03543X0.03937*%
%ADD30R,0.15748X0.07874*%
%ADD31R,0.05315X0.11024*%
%ADD32R,0.03937X0.03150*%
%ADD33R,0.02756X0.03347*%
G04:AMPARAMS|DCode=34|XSize=9.84mil|YSize=23.62mil|CornerRadius=1.97mil|HoleSize=0mil|Usage=FLASHONLY|Rotation=0.000|XOffset=0mil|YOffset=0mil|HoleType=Round|Shape=RoundedRectangle|*
%AMROUNDEDRECTD34*
21,1,0.00984,0.01968,0,0,0.0*
21,1,0.00591,0.02362,0,0,0.0*
1,1,0.00394,0.00295,-0.00984*
1,1,0.00394,-0.00295,-0.00984*
1,1,0.00394,-0.00295,0.00984*
1,1,0.00394,0.00295,0.00984*
%
%ADD34ROUNDEDRECTD34*%
G04:AMPARAMS|DCode=35|XSize=9.84mil|YSize=23.62mil|CornerRadius=1.97mil|HoleSize=0mil|Usage=FLASHONLY|Rotation=270.000|XOffset=0mil|YOffset=0mil|HoleType=Round|Shape=RoundedRectangle|*
%AMROUNDEDRECTD35*
21,1,0.00984,0.01968,0,0,270.0*
21,1,0.00591,0.02362,0,0,270.0*
1,1,0.00394,-0.00984,-0.00295*
1,1,0.00394,-0.00984,0.00295*
1,1,0.00394,0.00984,0.00295*
1,1,0.00394,0.00984,-0.00295*
%
%ADD35ROUNDEDRECTD35*%
%ADD36R,0.03937X0.03543*%
%ADD37R,0.06102X0.05709*%
%ADD38R,0.13386X0.03858*%
%ADD39R,0.03150X0.03150*%
%ADD40R,0.03543X0.04134*%
%ADD41O,0.06496X0.02362*%
D19*
X77953Y157146D02*
D03*
D20*
X233317Y161270D02*
D03*
X228888D02*
D03*
Y156841D02*
D03*
X233317D02*
D03*
X184104Y156841D02*
D03*
D21*
Y161270D02*
D03*
D22*
X179675D02*
D03*
D23*
Y156841D02*
D03*
D24*
X90945Y183071D02*
D03*
D25*
X63386Y168898D02*
D03*
D26*
X226181Y166831D02*
D03*
X228150D02*
D03*
X230118D02*
D03*
X232087D02*
D03*
X234055D02*
D03*
X236024D02*
D03*
Y151279D02*
D03*
X234055D02*
D03*
X232087D02*
D03*
X230118D02*
D03*
X228150D02*
D03*
X226181D02*
D03*
X176969Y166831D02*
D03*
X178937D02*
D03*
X180906D02*
D03*
X182874D02*
D03*
X184843D02*
D03*
X186811D02*
D03*
Y151279D02*
D03*
X184843D02*
D03*
X182874D02*
D03*
X180906D02*
D03*
X178937D02*
D03*
X176969D02*
D03*
D27*
X238878Y163977D02*
D03*
Y162008D02*
D03*
Y160039D02*
D03*
Y158071D02*
D03*
Y156103D02*
D03*
Y154134D02*
D03*
X223327D02*
D03*
Y156103D02*
D03*
Y158071D02*
D03*
Y160039D02*
D03*
Y162008D02*
D03*
Y163977D02*
D03*
X189665Y163976D02*
D03*
Y162008D02*
D03*
Y160039D02*
D03*
Y158071D02*
D03*
Y156102D02*
D03*
Y154134D02*
D03*
X174114D02*
D03*
Y156102D02*
D03*
Y158071D02*
D03*
Y160039D02*
D03*
Y162008D02*
D03*
Y163976D02*
D03*
D28*
X141732Y154626D02*
D03*
Y160335D02*
D03*
X199213Y180217D02*
D03*
Y185925D02*
D03*
X207480Y180217D02*
D03*
Y185925D02*
D03*
X141732Y168012D02*
D03*
Y173721D02*
D03*
D29*
X227559Y174409D02*
D03*
X232874D02*
D03*
X178051Y174409D02*
D03*
X183366D02*
D03*
X71949Y145728D02*
D03*
X66634D02*
D03*
X119488Y182303D02*
D03*
X124803D02*
D03*
D30*
X39961Y131555D02*
D03*
X12008D02*
D03*
D31*
X94882Y141004D02*
D03*
X82283D02*
D03*
D32*
X59055Y176634D02*
D03*
Y182539D02*
D03*
D33*
X21949Y190551D02*
D03*
X26870D02*
D03*
D34*
X80906Y162658D02*
D03*
X78937D02*
D03*
X76969D02*
D03*
X75000D02*
D03*
Y151634D02*
D03*
X76969D02*
D03*
X78937D02*
D03*
X80906D02*
D03*
D35*
X72441Y160098D02*
D03*
Y158130D02*
D03*
Y156161D02*
D03*
Y154193D02*
D03*
X83465D02*
D03*
Y156161D02*
D03*
Y158130D02*
D03*
Y160098D02*
D03*
D36*
X66929Y157047D02*
D03*
Y151732D02*
D03*
D37*
X90551Y160886D02*
D03*
Y168366D02*
D03*
D38*
X76772Y184252D02*
D03*
Y174921D02*
D03*
D39*
X10433Y190551D02*
D03*
X16929D02*
D03*
D40*
X124902Y151181D02*
D03*
X119193D02*
D03*
D41*
X110827Y174803D02*
D03*
Y169803D02*
D03*
Y164803D02*
D03*
Y159803D02*
D03*
X133071Y174803D02*
D03*
Y169803D02*
D03*
Y164803D02*
D03*
Y159803D02*
D03*
M02*
