M48
;Layer_Color=9474304
;FILE_FORMAT=2:5
INCH,TZ
;TYPE=PLATED
T1F00S00C0.00787
T2F00S00C0.00984
T3F00S00C0.01181
T4F00S00C0.01378
T5F00S00C0.02800
T6F00S00C0.03504
T7F00S00C0.03543
T8F00S00C0.05512
T9F00S00C0.06299
;TYPE=NON_PLATED
T10F00S00C0.12795
T11F00S00C0.14567
%
T01
X178937Y156102
X181890
X184843
Y159055
Y162008
X181890
Y159055
X178937
Y162008
X228150Y162008
Y159055
Y156103
X231102
Y159055
X234055
Y156103
Y162008
X231102
T02
X131102Y182283
X96063Y161476
Y158327
X68504Y161476
X65354
X62598Y147697
Y144547
T03
X113386Y151181
X141732Y148425
Y179134
X83071Y190610
X78740
X74409
X70079
X75984Y159114
Y155177
X77953Y157146
X79921Y155177
Y159114
X102362Y146909
Y142972
Y139035
Y135098
X31890Y190158
X10532Y185433
T04
X255512Y59055
X261024Y58661
X262205Y52756
X252362Y63779
X263386Y134252
X263779Y140551
X263386Y147244
X251575Y144095
X245669Y144488
X244882Y137402
X249213Y133071
X253543Y127953
X257087Y122047
X253150Y152362
X243701Y165748
X245669Y172047
X239370Y174016
X233071Y181102
X223228Y174409
X216535Y168110
X207480Y171653
X214173Y181496
X192126Y178740
X183465
X174016Y174409
X194488Y166929
Y162205
X181890Y144095
X176772Y142520
X182283Y136614
X166929Y140945
Y150394
X162992Y146850
Y155118
X157874Y151575
X157480Y159449
X152756Y156693
X152362Y164567
X127165Y169685
X119193Y164941
X119587Y159429
X114173Y182283
X117717Y189370
X124016Y188976
X186614Y114961
X193701Y115354
X207874Y120472
X211811Y124803
X223228Y125984
X220472Y131890
X228740Y143701
X89764Y153150
X91339Y174862
X53543Y182736
T05
X9843Y121713
X17323Y121654
X24803
X24409Y140945
X16929
X9449Y141004
X27165Y173622
X34646
X42126
Y181102
X34646
X27165
T06
X117047Y140945
X127047
T07
X26496Y68110
X36496
X46496
X56496
X61496Y78110
X51496
X41496
X31496
X86496
X96496
X106496
X101496Y68110
X91496
X81496
X111496
X116496Y78110
X141496
X151496
X161496
X171496
X166496Y68110
X156496
X146496
X136496
X191496
X201496
X211496
X221496
X216496Y78110
X206496
X196496
X226496
X221496Y94095
X211496
X201496
X191496
X196496Y104095
X206496
X216496
X226496
X171496
X161496
X151496
X141496
X146496Y94095
X156496
X166496
X136496
X111496
X116496Y104095
X118701Y201693
X108701
Y211693
X118701
X128701
Y201693
X138701
Y211693
X148701
Y201693
X158701
Y211693
X168701
Y201693
X178701
Y211693
X188701
Y201693
X198701
Y211693
X208701
X218701
X228701
X238701
Y201693
X228701
X218701
X208701
X98701
X88701
X78701
X68701
X58701
X48701
Y211693
X58701
X68701
X78701
X88701
X98701
X96496Y104095
X106496
X101496Y94095
X91496
X81496
X86496Y104095
X61496
X51496
X41496
X31496
X36496Y94095
X46496
X56496
X26496
T08
X15748Y160236
Y175236
T09
X10472Y25118
X13465Y79134
X242520Y88110
X239528Y66142
X242520Y25118
X10472Y104134
T10
X21496Y43110
X231496
T11
X29528Y13780
X257874
Y206693
X29528
M30
